<svg width="40" height="40" fill="none" xmlns="http://www.w3.org/2000/svg"><path fill-rule="evenodd" clip-rule="evenodd" d="M8.37 17.76a3.5 3.5 0 0 1-5.95-2.53 3.52 3.52 0 0 1 7.03 0l-.03.33-.01.1 3.47 1.73a3.5 3.5 0 0 1 3.94-.63l4.7-4.7a3.52 3.52 0 0 1 5.1-4.43l4.1-3.07a3.52 3.52 0 1 1 1.4 1.88l-4.1 3.07c.11.33.18.67.18 1.04a3.52 3.52 0 0 1-5.02 3.16l-4.7 4.7a3.52 3.52 0 1 1-6.68 1.5l.03-.31.01-.1-3.47-1.74Zm29.2 19.9h1.26a1.17 1.17 0 1 1 0 2.34H1.17a1.17 1.17 0 1 1 0-2.34h1.25V24.6c0-.65.53-1.17 1.17-1.17h4.7c.64 0 1.16.52 1.16 1.17v13.05h2.35V29.3c0-.65.52-1.18 1.17-1.18h4.69c.64 0 1.17.53 1.17 1.18v8.36h2.34V19.92c0-.65.53-1.17 1.17-1.17h4.7c.64 0 1.16.52 1.16 1.17v17.74h2.35V12.89c0-.65.52-1.17 1.17-1.17h4.69c.64 0 1.17.52 1.17 1.17v24.77Z" fill="#fff"/></svg>