<svg width="605" height="444" fill="none" xmlns="http://www.w3.org/2000/svg"><g filter="url(#a)"><rect x="55" y="55" width="445" height="284" rx="8" fill="#1B262F"/></g><path d="M55 63a8 8 0 0 1 8-8h429a8 8 0 0 1 8 8v32H55V63Z" fill="#2E3F4D"/><circle cx="79" cy="75" r="8" fill="#BA4270"/><circle cx="101.4" cy="75" r="8" fill="#527695"/><circle cx="123.8" cy="75" r="8" fill="#36536B"/><path d="m89.58 137.8-.34.1.34.11 3.88 1.5v1.25l-5.38-2.41v-.93l5.38-2.4v1.25l-3.88 1.52Zm8.08 4.2v-5.96h-1.89v-.9h1.9v-.5c0-.43.06-.82.18-1.15.14-.33.32-.6.55-.83.24-.23.52-.4.85-.51.33-.12.7-.17 1.1-.17.29 0 .56.02.82.07.27.04.54.1.82.17l-.14.98a4.35 4.35 0 0 0-1.35-.23c-.55 0-.96.15-1.24.42-.28.28-.42.7-.42 1.26v.48h2.65v.91h-2.65V142h-1.18Zm5.73-3.5c0-.5.07-.95.22-1.38.14-.42.34-.8.61-1.1a3 3 0 0 1 2.28-1 3.02 3.02 0 0 1 2.3 1c.27.3.48.68.62 1.1.14.43.22.89.22 1.38v.14c0 .5-.08.96-.22 1.38-.14.42-.35.8-.62 1.1-.27.32-.6.56-.98.74-.38.18-.82.27-1.3.27-.49 0-.93-.1-1.31-.27a2.87 2.87 0 0 1-.99-.74 3.36 3.36 0 0 1-.61-1.1 4.28 4.28 0 0 1-.22-1.38v-.14Zm1.17.14c0 .34.04.66.13.97.08.3.2.58.36.8.16.24.37.43.61.56.25.14.53.2.86.2a1.7 1.7 0 0 0 1.45-.75c.17-.23.29-.5.37-.8.08-.32.12-.64.12-.98v-.14c0-.33-.04-.65-.13-.96-.08-.3-.2-.58-.36-.8a1.78 1.78 0 0 0-.61-.56c-.24-.14-.53-.21-.85-.21-.33 0-.61.07-.85.2-.24.15-.45.33-.61.56-.16.23-.28.5-.36.81-.09.3-.13.63-.13.96v.14Zm11.47-3.63a4.54 4.54 0 0 1 1.2.16l-.16 1.15a5.56 5.56 0 0 0-1.29-.15c-.55 0-1 .13-1.34.38-.34.25-.59.6-.75 1.04V142h-1.18v-6.87h1.12l.06 1.1c.28-.38.6-.68 1-.9.4-.22.84-.33 1.34-.33Zm3.84.12.04.65c.14-.24.32-.43.54-.57.23-.13.5-.2.83-.2.63 0 1.05.24 1.26.73.14-.22.31-.4.53-.53.23-.13.5-.2.82-.2.5 0 .89.15 1.16.46.27.3.4.78.4 1.4V142h-1.11v-5.14c0-.58-.27-.86-.8-.86-.14 0-.26.02-.36.06a.7.7 0 0 0-.41.39.97.97 0 0 0-.08.26V142h-1.11v-5.15a.97.97 0 0 0-.19-.63c-.12-.15-.32-.22-.58-.22a.97.97 0 0 0-.57.15.85.85 0 0 0-.3.38V142h-1.12v-6.87h1.06Zm15.26 0h3.52v5.85h2.23V142h-5.75v-1.02h2.34v-4.83h-2.34v-1.02Zm2.19-1.8c0-.2.06-.36.17-.49.12-.13.3-.2.53-.2.23 0 .41.07.53.2.12.13.18.3.18.49s-.06.35-.18.47c-.12.13-.3.2-.53.2-.24 0-.41-.07-.53-.2a.68.68 0 0 1-.17-.47Zm5.22 5.18c0-.51.06-.98.19-1.41.13-.43.31-.8.55-1.11a2.46 2.46 0 0 1 2-.98c.41 0 .77.06 1.08.2.3.14.57.34.8.6v-3.56h1.17V142h-1.08l-.05-.72c-.23.28-.5.49-.82.63-.31.15-.69.22-1.1.22a2.39 2.39 0 0 1-2-1 3.57 3.57 0 0 1-.55-1.11c-.13-.43-.2-.89-.2-1.38v-.13Zm1.17.13c0 .34.04.65.1.95.08.3.19.57.34.8.15.23.34.4.58.54a1.96 1.96 0 0 0 1.38.13c.15-.05.3-.11.43-.2a1.76 1.76 0 0 0 .62-.71v-3.19c-.16-.28-.36-.5-.62-.69a1.63 1.63 0 0 0-.96-.27c-.33 0-.62.07-.85.2a1.7 1.7 0 0 0-.58.56c-.15.23-.26.5-.33.8-.07.3-.11.61-.11.95v.13Zm12.52-1.6h-5.67v-1.01h5.67v1.02Zm0 2.64h-5.67v-1.01h5.67v1.01Zm4.24-6.74-.13 2.35h-.82v-3.04h.95v.7Zm2.27 0-.13 2.35h-.82v-3.04h.96l-.01.7Zm5.2 9.06v-5.96h-1.9v-.9h1.9v-.5c0-.43.06-.82.18-1.15.13-.33.32-.6.55-.83.24-.23.52-.4.85-.51.33-.12.7-.17 1.1-.17.28 0 .55.02.82.07.26.04.54.1.81.17l-.13.98a4.4 4.4 0 0 0-1.35-.23c-.55 0-.97.15-1.24.42-.28.28-.42.7-.42 1.26v.48h2.65v.91h-2.65V142h-1.18Zm5.72-3.5c0-.5.07-.95.21-1.38.15-.42.35-.8.62-1.1a3 3 0 0 1 2.28-1 3.03 3.03 0 0 1 2.3 1c.27.3.47.68.62 1.1.14.43.21.89.21 1.38v.14c0 .5-.07.96-.21 1.38-.15.42-.35.8-.62 1.1-.27.32-.6.56-.98.74-.39.18-.82.27-1.3.27-.49 0-.93-.1-1.32-.27a2.87 2.87 0 0 1-.98-.74 3.34 3.34 0 0 1-.62-1.1 4.26 4.26 0 0 1-.21-1.38v-.14Zm1.17.14c0 .34.04.66.12.97.08.3.2.58.37.8.16.24.37.43.61.56.25.14.53.2.86.2a1.7 1.7 0 0 0 1.45-.75c.17-.23.29-.5.37-.8.08-.32.12-.64.12-.98v-.14c0-.33-.04-.65-.13-.96-.08-.3-.2-.58-.36-.8a1.78 1.78 0 0 0-.62-.56c-.24-.14-.52-.21-.84-.21-.33 0-.61.07-.86.2-.24.15-.44.33-.6.56-.17.23-.29.5-.37.81-.08.3-.12.63-.12.96v.14Zm11.47-3.63a4.52 4.52 0 0 1 1.2.16l-.16 1.15a5.63 5.63 0 0 0-1.3-.15c-.54 0-.99.13-1.33.38-.34.25-.59.6-.75 1.04V142h-1.18v-6.87h1.12l.05 1.1c.28-.38.62-.68 1-.9.4-.22.85-.33 1.35-.33Zm3.84.12.04.65c.13-.24.32-.43.54-.57.23-.13.5-.2.83-.2.63 0 1.05.24 1.26.73.13-.22.31-.4.53-.53.23-.13.5-.2.81-.2.5 0 .9.15 1.17.46.27.3.4.78.4 1.4V142h-1.12v-5.14c0-.58-.26-.86-.79-.86-.14 0-.26.02-.36.06a.72.72 0 0 0-.41.39.97.97 0 0 0-.08.26V142h-1.12v-5.15a.97.97 0 0 0-.18-.63c-.12-.15-.32-.22-.58-.22a.97.97 0 0 0-.58.15.85.85 0 0 0-.3.38V142h-1.11v-6.87h1.05Zm12.4 3.3h-4.85v-.96h4.86v.97Zm2.86-3.3h3.51v5.85h2.24V142h-5.75v-1.02h2.34v-4.83h-2.34v-1.02Zm2.19-1.8c0-.2.05-.36.17-.49.12-.13.3-.2.53-.2.23 0 .4.07.53.2.12.13.18.3.18.49s-.06.35-.18.47c-.12.13-.3.2-.53.2-.24 0-.41-.07-.53-.2a.69.69 0 0 1-.17-.47Zm5.21 5.18c0-.51.07-.98.2-1.41.13-.43.31-.8.55-1.11a2.46 2.46 0 0 1 2-.98c.41 0 .77.06 1.08.2.3.14.57.34.8.6v-3.56h1.17V142h-1.08l-.05-.72c-.23.28-.5.49-.82.63-.32.15-.69.22-1.11.22a2.4 2.4 0 0 1-1.99-1 3.55 3.55 0 0 1-.55-1.11c-.13-.43-.2-.89-.2-1.38v-.13Zm1.18.13c0 .34.03.65.1.95.08.3.19.57.34.8.15.23.34.4.57.54a1.96 1.96 0 0 0 1.38.13c.16-.05.3-.11.44-.2a1.79 1.79 0 0 0 .62-.71v-3.19c-.16-.28-.36-.5-.62-.69a1.64 1.64 0 0 0-.97-.27c-.33 0-.6.07-.85.2a1.7 1.7 0 0 0-.57.56c-.15.23-.26.5-.33.8-.08.3-.11.61-.11.95v.13Zm8.96-5.7-.14 2.35h-.82v-3.04h.96v.7Zm2.26 0-.13 2.35h-.82v-3.04h.96v.7Zm11.79 2.2.03.64c.14-.24.32-.43.55-.57.22-.13.5-.2.82-.2.63 0 1.05.24 1.27.73.13-.22.3-.4.53-.53.22-.13.5-.2.81-.2.5 0 .9.15 1.16.46.27.3.4.78.4 1.4V142h-1.1v-5.14c0-.58-.27-.86-.8-.86-.14 0-.26.02-.36.06a.7.7 0 0 0-.42.39.97.97 0 0 0-.07.26V142h-1.12v-5.15a.97.97 0 0 0-.18-.63c-.13-.15-.32-.22-.59-.22a.97.97 0 0 0-.57.15.86.86 0 0 0-.3.38V142h-1.12v-6.87H237Zm10.3 6.99c-.48 0-.93-.09-1.33-.25a3.03 3.03 0 0 1-1.71-1.75 3.6 3.6 0 0 1-.24-1.32v-.27c0-.55.09-1.05.27-1.48a3.14 3.14 0 0 1 1.7-1.8 3.02 3.02 0 0 1 2.45.02c.38.15.69.4.93.7.25.3.43.65.55 1.06.12.41.18.86.18 1.34v.52h-4.9a2.4 2.4 0 0 0 .62 1.6 2.11 2.11 0 0 0 1.54.67 2.4 2.4 0 0 0 1.93-.93l.72.56a2.75 2.75 0 0 1-1.02.92 3.58 3.58 0 0 1-1.69.4Zm-.15-6.16a1.72 1.72 0 0 0-1.24.51c-.18.17-.32.37-.44.62-.11.24-.2.52-.24.84h3.7v-.1a2.57 2.57 0 0 0-.14-.67 1.85 1.85 0 0 0-.32-.6 1.64 1.64 0 0 0-1.32-.6Zm7.7-2.5v1.66h2.62v.91h-2.61v3.73c0 .27.03.49.1.66.06.18.16.31.28.42.11.1.25.18.4.22.16.04.32.06.5.06a4.13 4.13 0 0 0 .78-.08l.37-.06.28-.06.16.83c-.1.06-.22.11-.36.16a4.76 4.76 0 0 1-2.39.08 1.83 1.83 0 0 1-1.14-1.14c-.11-.3-.17-.67-.17-1.09v-3.73h-1.8v-.9h1.8v-1.67h1.19Zm6.2 2.68c.25-.36.55-.64.91-.83.36-.2.77-.31 1.22-.31.36 0 .68.05.97.15.3.1.55.27.76.49.2.22.37.5.48.83.11.34.17.74.17 1.2V142h-1.18v-4.34c0-.56-.13-.98-.4-1.25-.27-.28-.65-.41-1.15-.4-.38 0-.72.09-1.03.27-.3.18-.55.43-.74.73V142h-1.18v-9.75h1.18v3.9Zm6.31 2.35c0-.5.07-.95.21-1.38.15-.42.36-.8.62-1.1a3 3 0 0 1 2.29-1 3.02 3.02 0 0 1 2.29 1c.27.3.48.68.62 1.1.14.43.22.89.22 1.38v.14c0 .5-.08.96-.22 1.38-.14.42-.35.8-.62 1.1-.27.32-.6.56-.98.74-.38.18-.82.27-1.3.27-.49 0-.93-.1-1.31-.27a2.87 2.87 0 0 1-.99-.74 3.36 3.36 0 0 1-.62-1.1 4.28 4.28 0 0 1-.21-1.38v-.14Zm1.17.14c0 .34.04.66.13.97.08.3.2.58.36.8.16.24.37.43.61.56.25.14.53.2.86.2a1.7 1.7 0 0 0 1.45-.75c.17-.23.29-.5.37-.8.08-.32.12-.64.12-.98v-.14c0-.33-.04-.65-.13-.96-.08-.3-.2-.58-.36-.8a1.79 1.79 0 0 0-.61-.56c-.24-.14-.53-.21-.85-.21-.33 0-.61.07-.85.2-.25.15-.45.33-.61.56-.16.23-.28.5-.37.81-.08.3-.12.63-.12.96v.14Zm6.75-.13c0-.51.06-.98.19-1.41.13-.43.31-.8.55-1.11a2.47 2.47 0 0 1 2-.98c.41 0 .77.06 1.08.2.3.14.57.34.8.6v-3.56h1.17V142h-1.08l-.05-.72c-.23.28-.5.49-.82.63-.32.15-.69.22-1.1.22a2.4 2.4 0 0 1-2-1 3.55 3.55 0 0 1-.55-1.11c-.13-.43-.2-.89-.2-1.38v-.13Zm1.17.13c0 .34.04.65.1.95.08.3.19.57.34.8.15.23.34.4.57.54a1.96 1.96 0 0 0 1.38.13c.16-.05.3-.11.44-.2a1.79 1.79 0 0 0 .62-.71v-3.19c-.16-.28-.36-.5-.62-.69a1.64 1.64 0 0 0-.96-.27c-.33 0-.62.07-.86.2-.23.14-.42.32-.57.56-.15.23-.26.5-.33.8-.07.3-.11.61-.11.95v.13Zm12.52-1.6h-5.67v-1.01h5.67v1.02Zm0 2.64h-5.67v-1.01h5.67v1.01Zm4.24-6.74-.13 2.35h-.82v-3.04h.95v.7Zm2.27 0-.13 2.35h-.82v-3.04h.96l-.01.7Zm9.42 7.85a3.7 3.7 0 0 1-3 1.34 3.16 3.16 0 0 1-2.58-1.33 4.54 4.54 0 0 1-.77-1.85c-.06-.34-.1-.69-.1-1.03v-1.07a5.36 5.36 0 0 1 .8-2.88 2.97 2.97 0 0 1 2.53-1.34c.44 0 .83.07 1.2.2a2.77 2.77 0 0 1 1.6 1.47c.17.35.27.74.3 1.17h-1.16a3.24 3.24 0 0 0-.21-.74c-.1-.23-.23-.42-.39-.58a1.62 1.62 0 0 0-.56-.38c-.22-.09-.48-.14-.77-.14a1.77 1.77 0 0 0-1.3.53c-.17.16-.3.35-.4.57a3.8 3.8 0 0 0-.41 1.4c-.03.24-.05.47-.05.7v1.09a4.62 4.62 0 0 0 .52 2.12c.12.21.26.4.43.56.17.16.36.29.58.38.22.1.47.15.75.15a3.9 3.9 0 0 0 1.02-.12c.16-.05.31-.12.46-.2.14-.1.26-.2.36-.35l.01-2.07h-1.88v-1h3l.02 3.4Zm6.91-3.06h-3.86V141h4.5v1h-5.67v-9.24h5.62v1h-4.45v2.97h3.86v1Zm8.96-3.97h-2.86V142h-1.14v-8.24h-2.86v-1h6.86v1Zm3.67-.82-.13 2.35h-.82v-3.04h.95v.7Zm2.27 0-.13 2.35h-.82v-3.04h.96l-.01.7Zm3.47 3.29v-1.21l5.6 2.4v.92l-5.6 2.41v-1.22l4.1-1.55.38-.1-.38-.13-4.1-1.52Zm17.06 1.56-.34.1.34.12 3.88 1.5v1.25l-5.38-2.41v-.93l5.38-2.4v1.25l-3.88 1.52Zm7.88 5h-1.05l3.86-10.03h1.04l-3.85 10.03Zm8.01-.79v-5.96h-1.89v-.9h1.9v-.5c0-.43.06-.82.18-1.15.13-.33.32-.6.55-.83.24-.23.52-.4.85-.51.33-.12.7-.17 1.1-.17.28 0 .56.02.82.07.26.04.54.1.82.17l-.14.98a4.35 4.35 0 0 0-1.35-.23c-.55 0-.96.15-1.24.42-.28.28-.42.7-.42 1.26v.48h2.65v.91h-2.65V142h-1.18Zm5.73-3.5c0-.5.07-.95.21-1.38.15-.42.35-.8.62-1.1a3 3 0 0 1 2.28-1 3.02 3.02 0 0 1 2.3 1c.27.3.48.68.62 1.1.14.43.22.89.22 1.38v.14c0 .5-.08.96-.22 1.38-.14.42-.35.8-.62 1.1-.27.32-.6.56-.98.74-.39.18-.82.27-1.3.27-.49 0-.93-.1-1.32-.27a2.87 2.87 0 0 1-.98-.74 3.36 3.36 0 0 1-.62-1.1 4.28 4.28 0 0 1-.21-1.38v-.14Zm1.17.14c0 .34.04.66.12.97.08.3.2.58.37.8.16.24.37.43.61.56.25.14.53.2.86.2a1.7 1.7 0 0 0 1.45-.75c.17-.23.29-.5.37-.8.08-.32.12-.64.12-.98v-.14c0-.33-.04-.65-.13-.96-.08-.3-.2-.58-.37-.8a1.79 1.79 0 0 0-.6-.56c-.25-.14-.53-.21-.86-.21-.32 0-.6.07-.84.2-.25.15-.45.33-.62.56-.15.23-.28.5-.36.81-.08.3-.12.63-.12.96v.14Zm11.47-3.63a4.54 4.54 0 0 1 1.2.16l-.16 1.15a5.56 5.56 0 0 0-1.3-.15c-.54 0-.99.13-1.33.38-.34.25-.59.6-.75 1.04V142h-1.18v-6.87h1.12l.06 1.1c.27-.38.6-.68 1-.9.4-.22.84-.33 1.34-.33Zm3.84.12.04.65c.13-.24.32-.43.54-.57.23-.13.5-.2.83-.2.63 0 1.05.24 1.26.73.13-.22.31-.4.53-.53.23-.13.5-.2.82-.2.5 0 .89.15 1.16.46.27.3.4.78.4 1.4V142h-1.11v-5.14c0-.58-.27-.86-.8-.86-.14 0-.26.02-.36.06a.7.7 0 0 0-.41.39.97.97 0 0 0-.08.26V142h-1.11v-5.15a.97.97 0 0 0-.19-.63c-.12-.15-.32-.22-.58-.22a.97.97 0 0 0-.57.15.85.85 0 0 0-.3.38V142h-1.12v-6.87h1.05Zm7.3 1.1v-1.21l5.6 2.4v.92l-5.6 2.41v-1.22l4.1-1.55.38-.1-.38-.13-4.1-1.52ZM89.58 157.79l-.34.1.34.12 3.88 1.5v1.25l-5.38-2.41v-.93l5.38-2.4v1.25l-3.88 1.52Zm10.9 2.39a.83.83 0 0 0-.09-.38.83.83 0 0 0-.28-.3c-.13-.1-.3-.19-.52-.26a5.16 5.16 0 0 0-.8-.22c-.4-.08-.76-.18-1.08-.29-.32-.11-.6-.25-.83-.4-.23-.17-.4-.35-.54-.56a1.61 1.61 0 0 1 0-1.53 2 2 0 0 1 .56-.65c.24-.18.52-.32.85-.43a3.69 3.69 0 0 1 2.23 0c.33.12.62.27.86.47a2.03 2.03 0 0 1 .74 1.52h-1.17c0-.15-.04-.3-.12-.43a1.23 1.23 0 0 0-.32-.38c-.13-.11-.3-.2-.49-.27a2.39 2.39 0 0 0-1.3-.02c-.2.06-.35.13-.48.22-.12.1-.21.2-.28.33a.82.82 0 0 0-.1.38c0 .13.03.26.08.36.05.1.14.2.26.29.13.08.3.16.5.22.22.07.48.14.8.2.43.1.8.2 1.14.31.34.12.62.26.85.42.22.16.4.35.52.57.12.21.18.46.18.75 0 .3-.07.58-.2.83a1.9 1.9 0 0 1-.58.64c-.25.18-.54.31-.88.41a4.11 4.11 0 0 1-2.37-.04c-.36-.12-.67-.29-.93-.5-.25-.2-.44-.44-.57-.71-.14-.27-.2-.55-.2-.84h1.17c.02.24.08.44.2.6.1.17.25.3.41.4.17.1.36.18.56.22.2.04.4.06.6.06.5 0 .89-.09 1.18-.27.29-.18.43-.42.44-.72Zm6.17 1a1.9 1.9 0 0 0 1.15-.39c.16-.12.28-.26.38-.42.1-.17.14-.34.15-.53h1.1c0 .3-.08.6-.23.87-.16.28-.36.52-.62.73a3 3 0 0 1-1.94.69 2.88 2.88 0 0 1-2.93-2.12c-.12-.42-.19-.85-.19-1.31v-.27c0-.45.07-.88.2-1.3.13-.41.33-.78.58-1.09.27-.32.6-.57.98-.76.4-.18.84-.28 1.37-.28a3.05 3.05 0 0 1 2 .73 2.33 2.33 0 0 1 .79 1.76h-1.11c0-.2-.05-.4-.14-.58a1.54 1.54 0 0 0-.88-.82c-.2-.08-.43-.12-.66-.12-.37 0-.68.07-.92.22-.25.15-.45.34-.6.57-.15.24-.26.5-.33.79-.06.3-.1.59-.1.88v.27c0 .3.03.6.1.9.07.29.17.55.32.79.16.23.35.42.6.57.25.14.56.22.93.22Zm9.38-6.18a4.54 4.54 0 0 1 1.2.17l-.16 1.15a5.56 5.56 0 0 0-1.29-.15c-.55 0-1 .13-1.34.38-.34.25-.59.6-.75 1.04V162h-1.18v-6.87h1.12l.06 1.1c.28-.38.6-.68 1-.9.4-.22.84-.33 1.34-.33Zm3.49.13h3.5v5.85h2.25V162h-5.75v-1.02h2.34v-4.83h-2.34v-1.02Zm2.18-1.8c0-.2.06-.36.17-.49.12-.13.3-.2.54-.2.23 0 .4.07.52.2s.18.3.18.49-.06.35-.18.47c-.11.13-.29.2-.52.2-.24 0-.42-.07-.54-.2a.68.68 0 0 1-.17-.47Zm11.24 5.31c0 .5-.06.95-.18 1.38-.12.42-.3.8-.52 1.1a2.45 2.45 0 0 1-2 1c-.42 0-.79-.06-1.11-.2a2.3 2.3 0 0 1-.82-.58v3.3h-1.17v-9.5h1.07l.06.74c.22-.28.5-.5.82-.65.33-.15.7-.22 1.13-.22.44 0 .83.08 1.17.25.34.18.62.42.85.73.23.3.4.68.52 1.11.12.43.18.9.18 1.4v.14Zm-1.18-.13c0-.34-.03-.65-.11-.95-.07-.3-.19-.57-.34-.8a1.7 1.7 0 0 0-.59-.55c-.23-.14-.52-.2-.85-.2-.38 0-.7.08-.95.26-.25.17-.46.4-.6.67v3.3c.14.28.35.5.6.67.25.17.58.26.97.26.32 0 .6-.07.84-.2.24-.14.43-.33.58-.56.16-.24.27-.5.34-.8.08-.31.11-.63.11-.97v-.13Zm5.97-5.04v1.66h2.62v.91h-2.62v3.73c0 .27.03.49.1.66.07.18.16.31.28.42.12.1.25.18.4.22.16.04.33.06.5.06a4.1 4.1 0 0 0 .79-.08l.36-.06.28-.06.17.83c-.1.06-.22.11-.36.16a4.74 4.74 0 0 1-2.39.08 1.82 1.82 0 0 1-1.14-1.14c-.12-.3-.17-.67-.17-1.09v-3.73h-1.8v-.9h1.8v-1.67h1.18Zm-29.45 26.7a.83.83 0 0 0-.08-.37.83.83 0 0 0-.28-.3c-.13-.1-.3-.19-.52-.26a5.12 5.12 0 0 0-.8-.22c-.4-.08-.76-.18-1.08-.29a3.7 3.7 0 0 1-.83-.4c-.23-.17-.41-.35-.54-.56a1.61 1.61 0 0 1 0-1.53c.14-.25.32-.46.56-.65.24-.18.52-.32.84-.43.33-.1.7-.16 1.09-.16.42 0 .8.06 1.14.17.34.11.63.26.87.46a2.03 2.03 0 0 1 .74 1.52h-1.18c0-.15-.03-.3-.11-.43a1.24 1.24 0 0 0-.32-.38c-.13-.11-.3-.2-.5-.27a2.4 2.4 0 0 0-1.3-.02c-.19.06-.34.13-.47.22-.12.1-.22.2-.28.33a.84.84 0 0 0-.02.74c.05.1.14.2.26.29.13.08.3.16.5.22.22.07.48.14.8.2.43.1.8.2 1.14.31.33.12.62.26.84.42.23.16.4.35.52.57a1.68 1.68 0 0 1-.03 1.58 1.9 1.9 0 0 1-.56.64c-.25.18-.54.31-.89.41a4.12 4.12 0 0 1-2.36-.04c-.37-.12-.68-.29-.93-.5-.25-.2-.44-.44-.58-.71-.13-.27-.2-.55-.2-.84h1.18c.02.24.08.44.2.6.1.17.25.3.41.4.17.1.35.18.56.22.2.04.4.06.6.06.5 0 .89-.09 1.18-.27.28-.18.43-.42.43-.72Zm7.75-5.16a4.54 4.54 0 0 1 1.2.16l-.16 1.15a5.56 5.56 0 0 0-1.29-.15c-.55 0-1 .13-1.34.38-.34.25-.59.6-.75 1.04V182h-1.18v-6.87h1.12l.06 1.1c.28-.38.6-.68 1-.9.4-.22.84-.33 1.34-.33Zm6.23 6.17a1.9 1.9 0 0 0 1.16-.39c.15-.12.28-.26.37-.42.1-.17.15-.34.15-.53h1.11c0 .3-.08.6-.24.87a2.5 2.5 0 0 1-.61.73c-.26.2-.56.38-.9.5a3.14 3.14 0 0 1-2.41-.1 2.88 2.88 0 0 1-1.56-1.83c-.13-.42-.2-.85-.2-1.31v-.27c0-.45.07-.88.2-1.3.14-.41.33-.78.59-1.09.26-.32.59-.57.98-.76.39-.18.84-.28 1.36-.28a3.05 3.05 0 0 1 2 .73 2.34 2.34 0 0 1 .8 1.76h-1.12a1.56 1.56 0 0 0-1.02-1.4c-.2-.08-.42-.12-.66-.12-.36 0-.67.07-.92.22s-.44.34-.6.57c-.15.24-.26.5-.33.79-.06.3-.1.59-.1.88v.27c0 .3.04.6.1.9.07.29.18.55.33.79.15.23.35.42.6.57.24.14.55.22.92.22Zm10.55-4.13h-5.67v-1.02h5.67v1.02Zm0 2.63h-5.67v-1.01h5.67v1.01Zm4.24-6.74-.13 2.35h-.83v-3.04h.96v.7Zm2.27 0-.14 2.35h-.81v-3.04h.95v.7Zm4.61 3.21c.25-.36.55-.64.91-.83.36-.2.76-.31 1.21-.31.36 0 .69.05.98.15.3.1.55.27.75.49.21.22.37.5.48.83.12.34.17.74.17 1.2V182h-1.17v-4.34c0-.56-.14-.98-.4-1.25-.28-.28-.66-.41-1.16-.4-.37 0-.72.09-1.02.27-.31.18-.56.43-.75.73V182h-1.17v-9.75h1.17v3.9Zm9.42-2.68v1.66h2.61v.91h-2.61v3.73c0 .27.03.49.1.66.06.18.16.31.28.42.12.1.25.18.4.22.16.04.32.06.5.06a4.1 4.1 0 0 0 .78-.08l.37-.06.28-.06.16.83c-.1.06-.22.11-.35.16a4.76 4.76 0 0 1-2.39.08 1.83 1.83 0 0 1-1.15-1.14c-.11-.3-.17-.67-.17-1.09v-3.73h-1.8v-.9h1.8v-1.67h1.19Zm7.8 0v1.66h2.62v.91h-2.62v3.73c0 .27.04.49.1.66.07.18.17.31.28.42.12.1.26.18.41.22.16.04.32.06.5.06a4.11 4.11 0 0 0 .78-.08l.36-.06.28-.06.17.83c-.1.06-.22.11-.36.16a4.73 4.73 0 0 1-2.39.08 1.82 1.82 0 0 1-1.14-1.14c-.11-.3-.17-.67-.17-1.09v-3.73h-1.8v-.9h1.8v-1.67h1.18Zm10.83 5.17c0 .5-.06.95-.18 1.38-.12.42-.3.8-.52 1.1a2.45 2.45 0 0 1-2 1c-.42 0-.8-.06-1.11-.2a2.3 2.3 0 0 1-.82-.58v3.3h-1.18v-9.5h1.08l.05.74c.23-.28.5-.5.83-.65.33-.15.7-.22 1.13-.22.44 0 .83.08 1.17.25.34.18.62.42.85.73.23.3.4.68.52 1.11.12.43.18.9.18 1.4v.14Zm-1.18-.13c0-.34-.04-.65-.11-.95-.07-.3-.19-.57-.34-.8a1.7 1.7 0 0 0-.59-.55c-.24-.14-.52-.2-.85-.2-.38 0-.7.08-.95.26-.26.17-.46.4-.61.67v3.3c.15.28.35.5.6.67.26.17.58.26.97.26.33 0 .61-.07.85-.2.23-.14.43-.33.58-.56.15-.24.27-.5.34-.8.07-.31.11-.63.11-.97v-.13Zm7.75 1.67a.83.83 0 0 0-.08-.38.82.82 0 0 0-.28-.3c-.13-.1-.3-.19-.52-.26a5.18 5.18 0 0 0-.8-.22c-.4-.08-.76-.18-1.09-.29-.32-.11-.6-.25-.83-.4-.22-.17-.4-.35-.53-.56-.13-.22-.2-.47-.2-.75s.07-.54.2-.78c.14-.25.32-.46.56-.65.24-.18.52-.32.84-.43.33-.1.7-.16 1.09-.16.42 0 .8.06 1.14.17.34.11.63.26.86.46a2.03 2.03 0 0 1 .75 1.52h-1.18c0-.15-.04-.3-.11-.43a1.23 1.23 0 0 0-.32-.38c-.14-.11-.3-.2-.5-.27a2.39 2.39 0 0 0-1.3-.02c-.19.06-.34.13-.47.22-.12.1-.22.2-.28.33a.83.83 0 0 0-.1.38c0 .13.03.26.08.36.05.1.14.2.26.29.13.08.3.16.5.22.21.07.48.14.8.2.43.1.8.2 1.14.31.33.12.61.26.84.42.23.16.4.35.52.57.13.21.19.46.19.75 0 .3-.07.58-.21.83a1.9 1.9 0 0 1-.57.64c-.25.18-.54.31-.89.41a4.1 4.1 0 0 1-2.36-.04c-.37-.12-.68-.29-.93-.5-.25-.2-.44-.44-.58-.71-.13-.27-.2-.55-.2-.84h1.18c.02.24.08.44.19.6.11.17.25.3.42.4.17.1.35.18.56.22.2.04.4.06.6.06.5 0 .89-.09 1.17-.27.3-.18.44-.42.44-.72Zm5.6 1.06c0-.13.03-.25.06-.36.05-.1.1-.2.18-.28a.77.77 0 0 1 .29-.2c.11-.05.25-.07.4-.07.15 0 .28.02.4.07s.21.11.29.2c.08.08.14.17.18.28a.96.96 0 0 1 0 .7.76.76 0 0 1-.47.47c-.12.05-.25.07-.4.07-.16 0-.29-.02-.4-.07a.75.75 0 0 1-.29-.18.9.9 0 0 1-.18-.28 1.06 1.06 0 0 1-.05-.35Zm0-5.56c0-.13.03-.25.06-.36a.87.87 0 0 1 .47-.48c.11-.05.25-.07.4-.07.15 0 .28.02.4.07s.21.11.29.2c.08.08.14.17.18.28a.97.97 0 0 1 0 .7.8.8 0 0 1-.47.47c-.12.05-.25.07-.4.07-.16 0-.29-.02-.4-.06a.8.8 0 0 1-.47-.47 1.06 1.06 0 0 1-.05-.35Zm7 7.11h-1.05l3.86-10.03H195l-3.85 10.03Zm7.81 0h-1.05l3.86-10.03h1.04l-3.85 10.03Zm6.44-10.54h3.51v8.73h2.24V182h-5.75v-1.02h2.34v-7.7h-2.34v-1.03Zm7.3 6.25c0-.5.07-.95.21-1.38.15-.42.35-.8.62-1.1a3 3 0 0 1 2.28-1 3.02 3.02 0 0 1 2.3 1c.26.3.47.68.62 1.1.14.43.21.89.21 1.38v.14c0 .5-.07.96-.21 1.38-.15.42-.35.8-.63 1.1-.26.32-.59.56-.97.74-.39.18-.82.27-1.3.27-.5 0-.93-.1-1.32-.27a2.87 2.87 0 0 1-.98-.74 3.34 3.34 0 0 1-.62-1.1 4.26 4.26 0 0 1-.21-1.38v-.14Zm1.17.14c0 .34.04.66.12.97.08.3.2.58.36.8a1.75 1.75 0 0 0 1.47.76 1.7 1.7 0 0 0 1.46-.75c.16-.23.29-.5.37-.8.08-.32.12-.64.12-.98v-.14c0-.33-.04-.65-.13-.96-.08-.3-.2-.58-.37-.8a1.79 1.79 0 0 0-.6-.56c-.25-.14-.53-.21-.86-.21-.32 0-.6.07-.85.2-.24.15-.44.33-.6.56-.17.23-.29.5-.37.81-.08.3-.12.63-.12.96v.14Zm11.46-3.63a4.52 4.52 0 0 1 1.21.16l-.16 1.15a5.63 5.63 0 0 0-1.3-.15c-.54 0-.99.13-1.33.38-.34.25-.6.6-.75 1.04V182h-1.18v-6.87h1.12l.05 1.1c.28-.38.62-.68 1-.9.4-.22.84-.33 1.34-.33Zm6.35 7.12a3.5 3.5 0 0 1-1.34-.25 3.03 3.03 0 0 1-1.7-1.75c-.17-.4-.25-.84-.25-1.32v-.27c0-.55.1-1.05.27-1.48a3.13 3.13 0 0 1 1.7-1.8 3.01 3.01 0 0 1 2.45.02c.38.15.69.4.94.7.24.3.42.65.54 1.06.12.41.19.86.19 1.34v.52h-4.91c.01.31.07.61.18.88a2.13 2.13 0 0 0 2 1.38 2.39 2.39 0 0 0 1.92-.92l.72.56a2.75 2.75 0 0 1-1.03.92 3.58 3.58 0 0 1-1.69.4Zm-.16-6.16a1.71 1.71 0 0 0-1.24.51c-.17.17-.31.37-.43.62-.12.24-.2.52-.24.84h3.7v-.1a2.53 2.53 0 0 0-.14-.67 1.83 1.83 0 0 0-.33-.6 1.64 1.64 0 0 0-1.32-.6Zm5.47-.84.03.65c.14-.24.32-.43.55-.57.22-.13.5-.2.82-.2.63 0 1.05.24 1.27.73.13-.22.3-.4.53-.53.22-.13.5-.2.81-.2.5 0 .9.15 1.16.46.27.3.4.78.4 1.4V182h-1.1v-5.14c0-.58-.27-.86-.8-.86-.14 0-.26.02-.36.06a.7.7 0 0 0-.42.39.97.97 0 0 0-.07.26V182h-1.12v-5.15a.97.97 0 0 0-.18-.63c-.13-.15-.32-.22-.59-.22a.97.97 0 0 0-.57.15.86.86 0 0 0-.3.38V182h-1.12v-6.87H237Zm7.45 0h3.51v5.85h2.24V182h-5.75v-1.02h2.34v-4.83h-2.34v-1.02Zm2.19-1.8c0-.2.05-.36.17-.49.11-.13.3-.2.53-.2.23 0 .4.07.53.2.11.13.17.3.17.49s-.06.35-.17.47c-.12.13-.3.2-.53.2-.24 0-.42-.07-.53-.2a.68.68 0 0 1-.18-.47Zm11.23 5.31c0 .5-.06.95-.18 1.38-.12.42-.29.8-.52 1.1a2.45 2.45 0 0 1-2 1c-.42 0-.79-.06-1.1-.2a2.32 2.32 0 0 1-.83-.58v3.3h-1.17v-9.5h1.07l.06.74c.23-.28.5-.5.82-.65.33-.15.7-.22 1.13-.22.44 0 .83.08 1.17.25.34.18.62.42.85.73.23.3.4.68.52 1.11.12.43.18.9.18 1.4v.14Zm-1.17-.13c0-.34-.04-.65-.12-.95-.07-.3-.19-.57-.34-.8a1.7 1.7 0 0 0-.59-.55c-.23-.14-.52-.2-.85-.2-.37 0-.69.08-.95.26-.25.17-.46.4-.6.67v3.3c.14.28.35.5.6.67.26.17.58.26.97.26.32 0 .6-.07.84-.2.24-.14.43-.33.59-.56.15-.24.26-.5.33-.8.08-.31.12-.63.12-.97v-.13Zm7.75 1.67a.83.83 0 0 0-.09-.38.83.83 0 0 0-.28-.3c-.13-.1-.3-.19-.52-.26a5.18 5.18 0 0 0-.8-.22c-.4-.08-.76-.18-1.08-.29-.32-.11-.6-.25-.83-.4-.23-.17-.4-.35-.54-.56a1.61 1.61 0 0 1 0-1.53c.14-.25.32-.46.56-.65.24-.18.52-.32.85-.43a3.7 3.7 0 0 1 2.23 0c.33.12.62.27.86.47a2.03 2.03 0 0 1 .74 1.52h-1.17c0-.15-.04-.3-.12-.43a1.23 1.23 0 0 0-.31-.38c-.14-.11-.3-.2-.5-.27s-.4-.1-.65-.1-.47.03-.66.08c-.18.06-.34.13-.47.22-.12.1-.21.2-.28.33a.81.81 0 0 0-.1.38.74.74 0 0 0 .34.65c.13.08.3.16.5.22.22.07.48.14.8.2.43.1.8.2 1.14.31.34.12.62.26.85.42.22.16.4.35.52.57.12.21.18.46.18.75 0 .3-.07.58-.2.83-.15.25-.34.46-.58.64-.25.18-.54.31-.88.41a4.11 4.11 0 0 1-2.37-.04c-.36-.12-.67-.29-.93-.5-.25-.2-.44-.44-.57-.71-.14-.27-.2-.55-.2-.84h1.17c.02.24.08.44.2.6.1.17.25.3.41.4.17.1.36.18.56.22.2.04.4.06.6.06.5 0 .89-.09 1.18-.27.29-.18.43-.42.44-.72Zm7.7.87c-.23.34-.52.6-.86.8a2.76 2.76 0 0 1-2.17.11 1.9 1.9 0 0 1-.74-.53c-.21-.23-.37-.53-.49-.9-.1-.36-.16-.8-.16-1.32v-4.08h1.17v4.1c0 .37.03.68.1.92.05.25.14.44.26.6.12.14.26.24.43.3.17.06.37.09.6.09.47 0 .86-.1 1.15-.3.3-.19.52-.45.66-.78v-4.93h1.18V182h-1.06l-.07-.95Zm3.89-5.92.03.65c.14-.24.32-.43.54-.57.23-.13.5-.2.83-.2.63 0 1.05.24 1.26.73.14-.22.32-.4.54-.53.22-.13.5-.2.8-.2.51 0 .9.15 1.17.46.27.3.4.78.4 1.4V182h-1.11v-5.14c0-.58-.26-.86-.8-.86-.13 0-.25.02-.36.06a.7.7 0 0 0-.4.39.97.97 0 0 0-.08.26V182h-1.12v-5.15a.97.97 0 0 0-.19-.63c-.12-.15-.31-.22-.58-.22a.97.97 0 0 0-.57.15.86.86 0 0 0-.3.38V182h-1.12v-6.87h1.06Zm9.3 6.1c0-.12.03-.24.07-.35a.86.86 0 0 1 .46-.48c.11-.05.25-.07.4-.07.15 0 .29.02.4.07.12.05.21.11.3.2.07.08.13.17.17.28a.99.99 0 0 1 0 .7c-.04.11-.1.2-.18.29a.74.74 0 0 1-.3.18c-.1.05-.24.07-.4.07-.14 0-.28-.02-.4-.07a.75.75 0 0 1-.28-.18.88.88 0 0 1-.17-.28 1.06 1.06 0 0 1-.06-.35Zm8.7-.05a1.9 1.9 0 0 0 1.15-.39c.16-.12.28-.26.38-.42.1-.17.15-.34.15-.53h1.11c0 .3-.08.6-.24.87-.15.28-.36.52-.62.73a3 3 0 0 1-1.94.69 2.88 2.88 0 0 1-2.93-2.12c-.12-.42-.18-.85-.18-1.31v-.27c0-.45.06-.88.2-1.3.12-.41.32-.78.58-1.09.26-.32.58-.57.97-.76.4-.18.85-.28 1.37-.28a3.05 3.05 0 0 1 2 .73 2.32 2.32 0 0 1 .8 1.76h-1.12c0-.2-.05-.4-.14-.58a1.54 1.54 0 0 0-.88-.82c-.2-.08-.42-.12-.66-.12-.36 0-.67.07-.92.22s-.45.34-.6.57c-.15.24-.26.5-.33.79-.06.3-.1.59-.1.88v.27c0 .3.04.6.1.9.07.29.18.55.32.79.16.23.36.42.6.57.25.14.56.22.93.22Zm4.55-2.68c0-.5.07-.95.22-1.38.14-.42.34-.8.61-1.1a3 3 0 0 1 2.29-1 3.02 3.02 0 0 1 2.29 1c.27.3.48.68.62 1.1.14.43.22.89.22 1.38v.14c0 .5-.08.96-.22 1.38-.14.42-.35.8-.62 1.1-.27.32-.6.56-.98.74-.38.18-.82.27-1.3.27-.49 0-.92-.1-1.31-.27a2.85 2.85 0 0 1-.99-.74 3.34 3.34 0 0 1-.61-1.1 4.26 4.26 0 0 1-.22-1.38v-.14Zm1.17.14c0 .34.05.66.13.97.07.3.2.58.36.8.16.24.37.43.61.56.25.14.53.2.86.2a1.7 1.7 0 0 0 1.45-.75c.17-.23.3-.5.37-.8.08-.32.12-.64.12-.98v-.14c0-.33-.04-.65-.13-.96-.08-.3-.2-.58-.36-.8a1.78 1.78 0 0 0-.61-.56c-.24-.14-.53-.21-.85-.21-.33 0-.61.07-.85.2-.25.15-.45.33-.61.56-.16.23-.29.5-.37.81-.07.3-.12.63-.12.96v.14Zm7.5-3.5.04.64c.14-.24.32-.43.54-.57.23-.13.5-.2.83-.2.63 0 1.05.24 1.26.73.14-.22.32-.4.54-.53.22-.13.5-.2.8-.2.51 0 .9.15 1.17.46.27.3.4.78.4 1.4V182h-1.11v-5.14c0-.58-.27-.86-.8-.86-.13 0-.25.02-.36.06a.7.7 0 0 0-.4.39.93.93 0 0 0-.08.26V182h-1.12v-5.15a.97.97 0 0 0-.19-.63c-.12-.15-.31-.22-.58-.22a.97.97 0 0 0-.57.15.85.85 0 0 0-.3.38V182h-1.12v-6.87h1.06Zm8.82 7.65h-1.05l3.86-10.03h1.05l-3.86 10.03Zm10.78-.79a1.4 1.4 0 0 1-.12-.33 4.55 4.55 0 0 1-.06-.42 3.18 3.18 0 0 1-1.44.8 2.92 2.92 0 0 1-1.63-.09 1.97 1.97 0 0 1-1.22-1.07 1.98 1.98 0 0 1-.16-.8c0-.37.07-.7.22-.99.15-.28.37-.51.64-.7.28-.19.6-.33 1-.42.38-.1.81-.14 1.3-.14h1.28v-.54c0-.21-.04-.4-.12-.56-.08-.17-.18-.3-.32-.42a1.44 1.44 0 0 0-.52-.27 2.2 2.2 0 0 0-.67-.1c-.23 0-.44.03-.63.09-.18.06-.33.14-.46.23-.13.1-.23.22-.3.35a.88.88 0 0 0-.1.42h-1.18c0-.25.07-.5.19-.74.13-.24.3-.46.54-.65.24-.2.52-.35.86-.47a3.88 3.88 0 0 1 2.24-.03c.32.1.61.24.85.43a2 2 0 0 1 .58.72c.14.29.21.62.21 1v3.2a4.45 4.45 0 0 0 .24 1.4v.1h-1.22Zm-2.08-.9a2.25 2.25 0 0 0 1.6-.65c.13-.13.22-.26.29-.4v-1.38h-1.1c-.68 0-1.21.1-1.6.3-.38.2-.57.53-.57.96 0 .17.03.33.09.47a1.05 1.05 0 0 0 .69.62c.17.05.37.08.6.08Zm11.17-2.46c0 .5-.06.95-.18 1.38-.12.42-.3.8-.52 1.1a2.45 2.45 0 0 1-2 1c-.42 0-.8-.06-1.11-.2a2.3 2.3 0 0 1-.82-.58v3.3h-1.18v-9.5h1.08l.05.74c.23-.28.5-.5.83-.65.33-.15.7-.22 1.13-.22.44 0 .83.08 1.17.25.34.18.62.42.85.73.23.3.4.68.52 1.11.12.43.18.9.18 1.4v.14Zm-1.18-.13c0-.34-.04-.65-.11-.95-.07-.3-.19-.57-.34-.8a1.7 1.7 0 0 0-.59-.55c-.24-.14-.52-.2-.85-.2-.38 0-.7.08-.95.26-.26.17-.46.4-.61.67v3.3c.15.28.35.5.6.67.26.17.58.26.97.26.33 0 .61-.07.85-.2.23-.14.43-.33.58-.56.15-.24.27-.5.34-.8.07-.31.11-.63.11-.97v-.13Zm3.37-3.38h3.51v5.85h2.24V182h-5.75v-1.02h2.34v-4.83h-2.34v-1.02Zm2.19-1.8c0-.2.05-.36.17-.49.12-.13.3-.2.53-.2.23 0 .4.07.53.2.12.13.18.3.18.49s-.06.35-.18.47c-.12.13-.3.2-.53.2-.24 0-.41-.07-.53-.2a.68.68 0 0 1-.17-.47Zm7.48 7.9c0-.12.02-.24.06-.35a.85.85 0 0 1 .46-.48c.12-.05.25-.07.4-.07.15 0 .29.02.4.07.12.05.22.11.3.2.07.08.13.17.17.28a.99.99 0 0 1 0 .7c-.04.11-.1.2-.18.29a.74.74 0 0 1-.29.18c-.11.05-.25.07-.4.07-.15 0-.29-.02-.4-.07a.75.75 0 0 1-.28-.18.86.86 0 0 1-.24-.63Zm6.56-6.1h3.46v6.91c0 .45-.06.83-.18 1.17a2.18 2.18 0 0 1-1.37 1.38c-.33.12-.7.18-1.13.18a9.02 9.02 0 0 1-1.34-.1l.08-.97.27.03a4.07 4.07 0 0 0 .66.04h.25c.21 0 .42-.02.62-.08a1.21 1.21 0 0 0 .84-.83c.09-.22.13-.49.13-.82v-5.89h-2.3v-1.02Zm2.12-1.8c0-.2.06-.36.17-.49.12-.13.3-.2.53-.2.24 0 .42.07.53.2.12.13.18.3.18.48a.7.7 0 0 1-.18.49c-.11.12-.3.19-.53.19-.24 0-.41-.07-.53-.2a.71.71 0 0 1-.17-.48Zm9.45 6.85a.83.83 0 0 0-.08-.38.83.83 0 0 0-.28-.3c-.13-.1-.3-.19-.52-.26a5.18 5.18 0 0 0-.8-.22c-.4-.08-.76-.18-1.08-.29-.32-.11-.6-.25-.83-.4-.23-.17-.41-.35-.54-.56a1.61 1.61 0 0 1 0-1.53c.14-.25.32-.46.56-.65.24-.18.52-.32.85-.43a3.7 3.7 0 0 1 2.23 0c.33.12.62.27.86.47a2.03 2.03 0 0 1 .74 1.52h-1.18c0-.15-.03-.3-.1-.43a1.23 1.23 0 0 0-.33-.38c-.13-.11-.3-.2-.5-.27a2.38 2.38 0 0 0-1.3-.02c-.19.06-.34.13-.47.22-.12.1-.22.2-.28.33a.81.81 0 0 0-.1.38.74.74 0 0 0 .34.65c.13.08.3.16.5.22.22.07.48.14.8.2.43.1.8.2 1.14.31.33.12.62.26.84.42.23.16.4.35.53.57.12.21.18.46.18.75 0 .3-.07.58-.21.83-.14.25-.33.46-.57.64-.25.18-.54.31-.88.41a4.1 4.1 0 0 1-2.37-.04c-.37-.12-.67-.29-.93-.5-.25-.2-.44-.44-.58-.71-.13-.27-.2-.55-.2-.84h1.18c.02.24.08.44.2.6.1.17.25.3.41.4.17.1.36.18.56.22.2.04.4.06.6.06.5 0 .89-.09 1.18-.27.29-.18.43-.42.44-.72Zm5.35-7.24-.13 2.35h-.83v-3.04h.96v.7Zm2.27 0-.14 2.35h-.82l.01-2.25v-.79h.95v.7ZM103.5 198.51c0-.51.06-.98.19-1.41.13-.43.31-.8.55-1.11a2.46 2.46 0 0 1 2-.98c.42 0 .77.06 1.08.2.3.14.57.34.8.6v-3.56h1.17V202h-1.08l-.05-.72c-.22.28-.5.49-.82.63-.31.15-.68.22-1.1.22a2.39 2.39 0 0 1-2-1 3.57 3.57 0 0 1-.55-1.11c-.13-.43-.2-.89-.2-1.38v-.13Zm1.17.13c0 .34.04.65.11.95.07.3.18.57.33.8.15.23.34.4.58.54a1.96 1.96 0 0 0 1.38.13c.16-.05.3-.11.43-.2a1.79 1.79 0 0 0 .62-.71v-3.19c-.15-.28-.36-.5-.62-.69a1.63 1.63 0 0 0-.96-.27c-.33 0-.62.07-.85.2a1.7 1.7 0 0 0-.58.56c-.15.23-.26.5-.33.8-.07.3-.1.61-.1.95v.13Zm11.37 3.36c-.05-.09-.08-.2-.11-.33a4.55 4.55 0 0 1-.06-.42 3.11 3.11 0 0 1-1.44.8 2.92 2.92 0 0 1-1.63-.09 1.97 1.97 0 0 1-1.22-1.07 1.98 1.98 0 0 1-.17-.8 1.97 1.97 0 0 1 .86-1.7c.28-.18.61-.32 1-.41.39-.1.82-.14 1.3-.14h1.28v-.54c0-.21-.04-.4-.11-.56-.08-.17-.19-.3-.33-.42a1.44 1.44 0 0 0-.51-.27 2.2 2.2 0 0 0-.68-.1c-.23 0-.44.03-.62.09s-.34.14-.47.23c-.12.1-.22.22-.3.35a.88.88 0 0 0-.1.42h-1.18c0-.25.07-.5.2-.74.12-.24.3-.46.53-.65.24-.2.53-.35.86-.47a3.88 3.88 0 0 1 2.23-.03c.34.1.63.24.87.43.24.2.44.43.58.72.14.29.2.62.2 1v3.2a4.57 4.57 0 0 0 .25 1.4v.1h-1.23Zm-2.08-.9a2.25 2.25 0 0 0 1.61-.65c.12-.13.21-.26.28-.4v-1.38h-1.1c-.68 0-1.21.1-1.6.3-.37.2-.56.53-.56.96a1.05 1.05 0 0 0 .77 1.08c.17.06.38.1.6.1Zm8.16-7.63v1.66h2.61v.91h-2.62v3.73c0 .27.04.49.1.66.08.18.17.31.29.42.11.1.25.18.4.22.16.04.32.06.5.06a4.12 4.12 0 0 0 .78-.08l.37-.06.28-.06.16.83c-.1.06-.21.11-.35.16a4.73 4.73 0 0 1-2.39.08 1.82 1.82 0 0 1-1.15-1.14c-.11-.3-.16-.67-.16-1.09v-3.73h-1.8v-.9h1.8v-1.67h1.17Zm9.54 8.53c-.05-.09-.09-.2-.12-.33a4.23 4.23 0 0 1-.06-.42 3.05 3.05 0 0 1-2.07.88c-.37 0-.7-.06-1-.16a1.98 1.98 0 0 1-1.23-1.07 1.98 1.98 0 0 1-.15-.8c0-.38.07-.71.22-1 .15-.28.37-.51.64-.7.28-.19.6-.33 1-.42.38-.1.82-.14 1.3-.14h1.28v-.54c0-.21-.04-.4-.12-.56-.07-.17-.18-.3-.32-.42a1.43 1.43 0 0 0-.52-.27 2.2 2.2 0 0 0-.67-.1c-.23 0-.44.03-.63.09-.18.06-.34.14-.46.23-.13.1-.23.22-.3.35a.88.88 0 0 0-.1.42h-1.18c0-.25.07-.5.19-.74.13-.24.3-.46.54-.65.23-.2.52-.35.85-.47a3.88 3.88 0 0 1 2.23-.03c.34.1.63.24.87.43.25.2.44.43.58.72.14.29.21.62.21 1v3.2a4.56 4.56 0 0 0 .24 1.4v.1h-1.22Zm-2.08-.9a2.24 2.24 0 0 0 1.6-.65c.13-.13.22-.26.28-.4v-1.38h-1.09c-.68 0-1.22.1-1.6.3-.38.2-.57.53-.57.96 0 .17.03.33.09.47a1.05 1.05 0 0 0 .69.62c.17.05.37.08.6.08Zm10.5-2.66h-4.85v-.97h4.86v.97Zm5.6 2.74a1.9 1.9 0 0 0 1.16-.39c.16-.12.28-.26.37-.42.1-.17.15-.34.16-.53h1.1c0 .3-.08.6-.23.87-.16.28-.36.52-.62.73a3 3 0 0 1-1.94.69 2.88 2.88 0 0 1-2.93-2.12c-.12-.42-.19-.85-.19-1.31v-.27c0-.45.07-.88.2-1.3.13-.41.32-.78.58-1.09.26-.32.59-.57.98-.76.39-.18.84-.28 1.36-.28a3.05 3.05 0 0 1 2 .73 2.34 2.34 0 0 1 .8 1.76h-1.11a1.54 1.54 0 0 0-1.02-1.4c-.2-.08-.43-.12-.67-.12-.36 0-.67.07-.92.22-.24.15-.44.34-.6.57-.15.24-.25.5-.32.79-.07.3-.1.59-.1.88v.27c0 .3.03.6.1.9.06.29.17.55.32.79.15.23.35.42.6.57.25.14.56.22.92.22Zm5.07-8.93h3.51v8.73h2.24V202h-5.75v-1.02h2.34v-7.7h-2.34v-1.03Zm7.8 2.88h3.52v5.85h2.24V202h-5.75v-1.02h2.33v-4.83h-2.33v-1.02Zm2.2-1.8c0-.2.05-.36.16-.49.12-.13.3-.2.53-.2.24 0 .41.07.53.2.12.13.18.3.18.49s-.06.35-.18.47c-.12.13-.3.2-.53.2-.23 0-.4-.07-.53-.2a.68.68 0 0 1-.17-.47Zm8.47 8.8a3.5 3.5 0 0 1-1.34-.25 3.03 3.03 0 0 1-1.7-1.75 3.6 3.6 0 0 1-.25-1.32v-.27c0-.55.1-1.05.27-1.48a3.14 3.14 0 0 1 1.7-1.8 3.01 3.01 0 0 1 2.45.02c.38.15.69.4.93.7.25.3.43.65.55 1.06.12.41.18.86.18 1.34v.52h-4.9a2.4 2.4 0 0 0 .62 1.6 2.13 2.13 0 0 0 1.55.67 2.4 2.4 0 0 0 1.93-.93l.72.56a2.75 2.75 0 0 1-1.03.92 3.58 3.58 0 0 1-1.69.4Zm-.16-6.16a1.71 1.71 0 0 0-1.24.51c-.17.17-.31.37-.43.62-.12.24-.2.52-.24.84h3.69v-.1a2.57 2.57 0 0 0-.13-.67 1.85 1.85 0 0 0-.33-.6 1.64 1.64 0 0 0-1.32-.6Zm5.98-.84.09 1.02c.24-.36.55-.64.91-.83.37-.2.78-.31 1.22-.31.36 0 .69.05.98.15a1.88 1.88 0 0 1 1.23 1.3c.12.33.17.72.17 1.18V202h-1.17v-4.34c0-.3-.03-.56-.1-.77a1.16 1.16 0 0 0-.8-.8c-.19-.06-.4-.09-.66-.09-.39 0-.74.1-1.04.3-.3.2-.53.45-.7.77V202h-1.18v-6.87h1.05Zm9.54-1.66v1.66h2.61v.91h-2.61v3.73c0 .27.03.49.1.66.06.18.16.31.28.42.12.1.25.18.4.22.16.04.32.06.5.06a4.12 4.12 0 0 0 .79-.08l.36-.06.28-.06.16.83c-.1.06-.21.11-.35.16a4.73 4.73 0 0 1-2.39.08 1.82 1.82 0 0 1-1.15-1.14c-.1-.3-.16-.67-.16-1.09v-3.73h-1.8v-.9h1.8v-1.67h1.18Zm10.16 4.97h-4.86v-.97h4.86v.97Zm3.72-3.3.09 1c.25-.35.55-.63.92-.82.36-.2.77-.31 1.22-.31.36 0 .68.05.97.15.3.1.55.26.76.47.2.22.37.5.48.83.11.33.17.72.17 1.18V202h-1.18v-4.34c0-.3-.03-.56-.1-.77a1.16 1.16 0 0 0-.8-.8c-.18-.06-.4-.09-.65-.09-.4 0-.74.1-1.04.3-.3.2-.54.45-.72.77V202h-1.17v-6.87h1.06Zm11.27 6.86c-.04-.09-.08-.2-.11-.33a3.95 3.95 0 0 1-.06-.42 3.18 3.18 0 0 1-1.44.8 2.92 2.92 0 0 1-1.63-.09 1.96 1.96 0 0 1-1.22-1.07 1.98 1.98 0 0 1-.17-.8 1.96 1.96 0 0 1 .86-1.7c.28-.18.61-.32 1-.41.39-.1.82-.14 1.3-.14h1.28v-.54c0-.21-.04-.4-.11-.56-.08-.17-.19-.3-.33-.42a1.45 1.45 0 0 0-.51-.27 2.2 2.2 0 0 0-.67-.1c-.24 0-.45.03-.63.09s-.34.14-.47.23c-.12.1-.22.22-.3.35a.9.9 0 0 0-.1.42h-1.18c0-.25.07-.5.2-.74.12-.24.3-.46.53-.65.24-.2.53-.35.86-.47a3.88 3.88 0 0 1 2.23-.03c.34.1.63.24.87.43.24.2.44.43.58.72.14.29.2.62.2 1v3.2a4.56 4.56 0 0 0 .25 1.4v.1h-1.23Zm-2.07-.9a2.24 2.24 0 0 0 1.6-.65c.12-.13.21-.26.28-.4v-1.38h-1.09c-.69 0-1.22.1-1.6.3-.38.2-.57.53-.57.96a1.05 1.05 0 0 0 .77 1.08c.18.06.38.1.6.1Zm5.9-5.97.04.65c.14-.24.32-.43.54-.57.23-.13.5-.2.83-.2.63 0 1.05.24 1.26.73.14-.22.31-.4.53-.53.23-.13.5-.2.82-.2.5 0 .89.15 1.16.46.27.3.4.78.4 1.4V202h-1.11v-5.14c0-.58-.27-.86-.8-.86-.13 0-.25.02-.36.06a.7.7 0 0 0-.41.39.97.97 0 0 0-.08.26V202h-1.11v-5.15a.97.97 0 0 0-.19-.63c-.12-.15-.31-.22-.58-.22a.97.97 0 0 0-.57.15.86.86 0 0 0-.3.38V202h-1.12v-6.87h1.06Zm10.3 7c-.47 0-.92-.09-1.33-.25a3.03 3.03 0 0 1-1.7-1.75c-.16-.4-.24-.84-.24-1.32v-.27c0-.55.09-1.05.26-1.48a3.11 3.11 0 0 1 1.7-1.8 2.9 2.9 0 0 1 1.17-.25c.5 0 .92.08 1.3.25.36.17.67.41.92.72.24.3.43.65.54 1.06.13.41.19.86.19 1.34v.52h-4.9a2.43 2.43 0 0 0 .62 1.6 2.12 2.12 0 0 0 1.54.67 2.4 2.4 0 0 0 1.93-.93l.72.56a2.8 2.8 0 0 1-1.02.92 3.58 3.58 0 0 1-1.69.4Zm-.14-6.16a1.72 1.72 0 0 0-1.25.51c-.17.17-.31.37-.43.62-.11.24-.2.52-.24.84h3.7v-.1a2.57 2.57 0 0 0-.14-.67 1.85 1.85 0 0 0-.32-.6 1.64 1.64 0 0 0-1.32-.6Zm10.58 1.08h-5.67v-1.02h5.67v1.02Zm0 2.63h-5.67v-1.01h5.67v1.01Zm4.25-6.74-.13 2.35h-.83v-3.04h.96v.7Zm2.27 0-.14 2.35h-.82l.01-2.25v-.79h.95v.7Zm6.16 4.46 2.1-4.64h1.34l-2.88 5.8-.01 3.44h-1.1l-.02-3.45-2.87-5.8h1.34l2.1 4.65Zm4.75 1.1c0-.5.08-.95.22-1.38.14-.42.35-.8.62-1.1a3 3 0 0 1 2.28-1 3.02 3.02 0 0 1 2.3 1c.26.3.47.68.62 1.1.14.43.21.89.21 1.38v.14c0 .5-.07.96-.22 1.38-.14.42-.35.8-.62 1.1-.26.32-.59.56-.97.74-.39.18-.82.27-1.3.27-.5 0-.93-.1-1.32-.27a2.87 2.87 0 0 1-.98-.74 3.34 3.34 0 0 1-.62-1.1 4.26 4.26 0 0 1-.22-1.38v-.14Zm1.18.14c0 .34.04.66.12.97.08.3.2.58.36.8a1.75 1.75 0 0 0 1.47.76 1.7 1.7 0 0 0 1.46-.75c.16-.23.29-.5.37-.8.08-.32.12-.64.12-.98v-.14c0-.33-.05-.65-.13-.96-.08-.3-.2-.58-.37-.8a1.79 1.79 0 0 0-.6-.56c-.25-.14-.53-.21-.86-.21-.32 0-.6.07-.85.2-.24.15-.44.33-.6.56-.17.23-.29.5-.37.81-.08.3-.12.63-.12.96v.14Zm11.42 2.41c-.23.34-.52.6-.86.8a2.75 2.75 0 0 1-2.16.11 1.9 1.9 0 0 1-.75-.53c-.21-.23-.37-.53-.49-.9-.1-.36-.16-.8-.16-1.32v-4.08h1.17v4.1c0 .37.03.68.1.92.05.25.14.44.26.6.12.14.26.24.43.3.18.06.37.09.6.09.48 0 .86-.1 1.15-.3.3-.19.52-.45.66-.78v-4.93h1.18V202h-1.06l-.07-.95Zm7.85-6.05a4.54 4.54 0 0 1 1.2.17l-.15 1.15a5.63 5.63 0 0 0-1.3-.15c-.55 0-1 .13-1.34.38-.33.25-.58.6-.75 1.04V202h-1.18v-6.87h1.12l.06 1.1c.28-.38.61-.68 1-.9.4-.22.84-.33 1.34-.33Zm17.1 4.22c-.05.43-.16.82-.33 1.18a2.8 2.8 0 0 1-1.59 1.52 3.3 3.3 0 0 1-1.2.2c-.38 0-.73-.05-1.04-.15a3 3 0 0 1-1.46-1.13 4.24 4.24 0 0 1-.7-1.8 6.73 6.73 0 0 1-.09-1.01v-1.3a5.4 5.4 0 0 1 .35-1.97c.12-.3.26-.58.44-.84a2.88 2.88 0 0 1 1.46-1.12 3.34 3.34 0 0 1 2.28.05c.36.14.67.34.93.6.27.26.48.57.63.93.16.37.27.77.32 1.2h-1.17c-.04-.27-.1-.53-.2-.77s-.22-.46-.38-.64a1.62 1.62 0 0 0-.57-.42c-.23-.1-.5-.16-.8-.16-.28 0-.53.05-.75.14-.2.09-.4.21-.55.37a2.2 2.2 0 0 0-.38.54 5.12 5.12 0 0 0-.43 2.08v1.3a5.36 5.36 0 0 0 .43 2.09 1.8 1.8 0 0 0 .94.93c.2.09.45.14.74.14a2 2 0 0 0 .8-.15c.23-.1.42-.23.58-.4.15-.19.28-.4.37-.63.1-.24.16-.5.2-.78h1.17Zm1.5-.72c0-.5.06-.95.2-1.38.15-.42.36-.8.62-1.1a3 3 0 0 1 2.29-1 3.02 3.02 0 0 1 2.3 1c.26.3.47.68.61 1.1.15.43.22.89.22 1.38v.14c0 .5-.07.96-.22 1.38-.14.42-.35.8-.62 1.1-.27.32-.6.56-.98.74-.38.18-.82.27-1.3.27-.48 0-.92-.1-1.31-.27a2.87 2.87 0 0 1-.99-.74 3.34 3.34 0 0 1-.61-1.1 4.26 4.26 0 0 1-.22-1.38v-.14Zm1.17.14c0 .34.04.66.12.97.08.3.2.58.36.8a1.75 1.75 0 0 0 1.47.76 1.7 1.7 0 0 0 1.45-.75c.17-.23.3-.5.37-.8.08-.32.12-.64.12-.98v-.14c0-.33-.04-.65-.12-.96-.08-.3-.2-.58-.37-.8a1.79 1.79 0 0 0-.61-.56c-.24-.14-.53-.21-.85-.21-.33 0-.61.07-.85.2-.24.15-.45.33-.61.56-.16.23-.28.5-.36.81-.08.3-.12.63-.12.96v.14Zm7.5-3.5.03.64c.14-.24.32-.43.55-.57.23-.13.5-.2.82-.2.63 0 1.05.24 1.27.73.13-.22.3-.4.53-.53.22-.13.5-.2.81-.2.5 0 .9.15 1.16.46.27.3.4.78.4 1.4V202h-1.1v-5.14c0-.58-.27-.86-.8-.86-.14 0-.26.02-.36.06a.7.7 0 0 0-.42.39.97.97 0 0 0-.07.26V202h-1.12v-5.15a.97.97 0 0 0-.18-.63c-.13-.15-.32-.22-.59-.22a.97.97 0 0 0-.57.15.86.86 0 0 0-.3.38V202h-1.11v-6.87h1.05Zm13.06 3.5c0 .5-.06.95-.18 1.38-.11.42-.29.8-.51 1.1a2.45 2.45 0 0 1-2 1c-.42 0-.8-.06-1.12-.2a2.3 2.3 0 0 1-.81-.58v3.3h-1.18v-9.5h1.07l.06.74c.23-.28.5-.5.83-.65.32-.15.7-.22 1.13-.22.44 0 .83.08 1.16.25.34.18.63.42.86.73.22.3.4.68.51 1.11.12.43.18.9.18 1.4v.14Zm-1.17-.13c0-.34-.04-.65-.11-.95-.08-.3-.2-.57-.35-.8a1.7 1.7 0 0 0-.58-.55c-.24-.14-.52-.2-.85-.2-.38 0-.7.08-.95.26-.26.17-.46.4-.61.67v3.3c.15.28.35.5.6.67.26.17.58.26.97.26.33 0 .6-.07.84-.2.24-.14.44-.33.59-.56.15-.24.26-.5.34-.8.07-.31.1-.63.1-.97v-.13Zm7.7 3.49c-.05-.09-.09-.2-.12-.33a4.55 4.55 0 0 1-.05-.42 3.11 3.11 0 0 1-1.44.8 2.93 2.93 0 0 1-1.63-.09 1.97 1.97 0 0 1-1.22-1.07 1.98 1.98 0 0 1-.17-.8c0-.37.07-.7.22-.99.16-.28.37-.51.64-.7.28-.19.61-.33 1-.42.38-.1.82-.14 1.3-.14h1.28v-.54c0-.21-.04-.4-.12-.56-.07-.17-.18-.3-.32-.42a1.43 1.43 0 0 0-.51-.27 2.2 2.2 0 0 0-.68-.1c-.23 0-.44.03-.63.09-.18.06-.33.14-.46.23-.13.1-.23.22-.3.35a.88.88 0 0 0-.1.42h-1.18c0-.25.07-.5.2-.74.12-.24.3-.46.53-.65.24-.2.52-.35.86-.47a3.88 3.88 0 0 1 2.23-.03c.34.1.62.24.87.43.24.2.43.43.57.72.14.29.21.62.21 1v3.2a4.57 4.57 0 0 0 .24 1.4v.1h-1.22Zm-2.08-.9a2.25 2.25 0 0 0 1.6-.65c.13-.13.22-.26.29-.4v-1.38h-1.1c-.68 0-1.21.1-1.6.3-.37.2-.56.53-.56.96a1.05 1.05 0 0 0 .78 1.08c.16.06.36.1.6.1Zm6.43-5.97.08 1.02c.25-.36.56-.64.92-.83.36-.2.77-.31 1.22-.31.36 0 .68.05.98.15.3.1.54.26.75.47.2.22.37.5.48.83.11.33.17.72.17 1.18V202h-1.18v-4.34c0-.3-.03-.56-.1-.77a1.16 1.16 0 0 0-.8-.8 2.23 2.23 0 0 0-.65-.09c-.4 0-.74.1-1.04.3-.3.2-.54.45-.71.77V202h-1.18v-6.87h1.06Zm9.28 4.43.3.83 2.1-5.26h1.31l-3.48 7.93a4.6 4.6 0 0 1-.77 1.12c-.17.17-.38.3-.62.42a1.87 1.87 0 0 1-1 .16l-.2-.02a2.3 2.3 0 0 1-.2-.04c-.05 0-.1-.02-.14-.03l.19-.96.12.01.16.01a2.2 2.2 0 0 0 .28.02c.16 0 .3-.05.44-.14a2.22 2.22 0 0 0 .62-.7l.18-.32.47-.91-2.96-6.55h1.31l1.89 4.43Zm8.32-6.6-.13 2.33h-.88v-3.04h1v.7Zm9.33 7.22a.83.83 0 0 0-.08-.38.83.83 0 0 0-.28-.3c-.13-.1-.3-.19-.52-.26a5.16 5.16 0 0 0-.8-.22c-.4-.08-.76-.18-1.09-.29-.32-.11-.6-.25-.83-.4-.23-.17-.4-.35-.53-.56-.13-.22-.2-.47-.2-.75s.07-.54.2-.78c.13-.25.32-.46.56-.65.23-.18.51-.32.84-.43.33-.1.7-.16 1.09-.16.42 0 .8.06 1.14.17.34.11.63.26.86.46a2.03 2.03 0 0 1 .74 1.52h-1.17c0-.15-.04-.3-.11-.43a1.22 1.22 0 0 0-.32-.38c-.14-.11-.3-.2-.5-.27a2.38 2.38 0 0 0-1.3-.02 1.5 1.5 0 0 0-.47.22c-.13.1-.22.2-.28.33a.83.83 0 0 0-.02.74c.05.1.13.2.26.29.13.08.3.16.5.22.21.07.48.14.8.2.42.1.8.2 1.13.31.34.12.62.26.85.42.23.16.4.35.52.57.12.21.18.46.18.75 0 .3-.07.58-.2.83a1.9 1.9 0 0 1-.58.64c-.24.18-.54.31-.88.41a4.11 4.11 0 0 1-2.37-.04 3.1 3.1 0 0 1-.92-.5c-.25-.2-.45-.44-.58-.71-.13-.27-.2-.55-.2-.84h1.18a1.23 1.23 0 0 0 .6 1c.17.1.36.18.56.22.2.04.4.06.6.06.5 0 .9-.09 1.18-.27.29-.18.44-.42.44-.72Zm16.84 1.82h-1.2l-3.58-6.9-.02 6.9h-1.19v-9.24h1.2l3.58 6.9.02-6.9h1.19V202Zm6.53 0c-.05-.09-.08-.2-.11-.33a3.95 3.95 0 0 1-.06-.42 3.18 3.18 0 0 1-1.44.8 2.92 2.92 0 0 1-1.63-.09 1.97 1.97 0 0 1-1.23-1.07 1.98 1.98 0 0 1-.16-.8 1.96 1.96 0 0 1 .86-1.7c.28-.18.61-.32 1-.41.39-.1.82-.14 1.3-.14h1.28v-.54c0-.21-.04-.4-.11-.56-.08-.17-.19-.3-.33-.42a1.43 1.43 0 0 0-.51-.27 2.2 2.2 0 0 0-.67-.1c-.24 0-.45.03-.63.09s-.34.14-.46.23c-.13.1-.23.22-.3.35a.9.9 0 0 0-.1.42h-1.19c0-.25.07-.5.2-.74.12-.24.3-.46.53-.65.24-.2.53-.35.86-.47a3.88 3.88 0 0 1 2.23-.03c.34.1.63.24.87.43.24.2.44.43.58.72.14.29.2.62.2 1v3.2a4.56 4.56 0 0 0 .25 1.4v.1h-1.23Zm-2.07-.9a2.24 2.24 0 0 0 1.6-.65c.12-.13.21-.26.28-.4v-1.38h-1.09c-.69 0-1.22.1-1.6.3-.38.2-.57.53-.57.96a1.05 1.05 0 0 0 .77 1.08c.18.06.38.1.6.1Zm5.9-5.97.04.65c.14-.24.32-.43.54-.57.23-.13.5-.2.83-.2.63 0 1.05.24 1.26.73.14-.22.31-.4.54-.53.22-.13.49-.2.8-.2.51 0 .9.15 1.17.46.27.3.4.78.4 1.4V202H382v-5.14c0-.58-.27-.86-.8-.86-.13 0-.25.02-.36.06a.7.7 0 0 0-.41.39.97.97 0 0 0-.08.26V202h-1.11v-5.15a.97.97 0 0 0-.19-.63c-.12-.15-.31-.22-.58-.22a.97.97 0 0 0-.57.15.86.86 0 0 0-.3.38V202h-1.12v-6.87h1.06Zm10.3 7c-.47 0-.92-.09-1.32-.25a3.03 3.03 0 0 1-1.71-1.75c-.16-.4-.24-.84-.24-1.32v-.27c0-.55.08-1.05.26-1.48a3.11 3.11 0 0 1 1.7-1.8 2.9 2.9 0 0 1 1.17-.25c.5 0 .92.08 1.3.25.36.17.67.41.92.72.24.3.43.65.54 1.06.13.41.19.86.19 1.34v.52h-4.9a2.41 2.41 0 0 0 .62 1.6 2.12 2.12 0 0 0 1.54.67 2.4 2.4 0 0 0 1.93-.93l.72.56a2.8 2.8 0 0 1-1.02.92 3.58 3.58 0 0 1-1.69.4Zm-.14-6.16a1.72 1.72 0 0 0-1.25.51c-.17.17-.31.37-.43.62-.11.24-.2.52-.24.84h3.7v-.1a2.57 2.57 0 0 0-.14-.67 1.85 1.85 0 0 0-.32-.6 1.64 1.64 0 0 0-1.32-.6Zm7.02-3.03-.13 2.35h-.83l.01-2.25v-.79h.95v.7Zm2.27 0-.14 2.35h-.81v-3.04h.96l-.01.7ZM103.5 218.51c0-.51.06-.98.19-1.41.13-.43.31-.8.55-1.11a2.46 2.46 0 0 1 2-.98c.42 0 .77.06 1.08.2.3.14.57.34.8.6v-3.56h1.17V222h-1.08l-.05-.72c-.22.28-.5.49-.82.63-.31.15-.68.22-1.1.22a2.39 2.39 0 0 1-2-1 3.57 3.57 0 0 1-.55-1.11c-.13-.43-.2-.89-.2-1.38v-.13Zm1.17.13c0 .34.04.65.11.95.07.3.18.57.33.8.15.23.34.4.58.54a1.96 1.96 0 0 0 1.38.13c.16-.05.3-.11.43-.2a1.79 1.79 0 0 0 .62-.71v-3.19c-.15-.28-.36-.5-.62-.69a1.63 1.63 0 0 0-.96-.27c-.33 0-.62.07-.85.2a1.7 1.7 0 0 0-.58.56c-.15.23-.26.5-.33.8-.07.3-.1.61-.1.95v.13Zm11.37 3.36c-.05-.09-.08-.2-.11-.33a4.55 4.55 0 0 1-.06-.42 3.11 3.11 0 0 1-1.44.8 2.92 2.92 0 0 1-1.63-.09 1.97 1.97 0 0 1-1.22-1.07 1.98 1.98 0 0 1-.17-.8 1.97 1.97 0 0 1 .86-1.7c.28-.18.61-.32 1-.41.39-.1.82-.14 1.3-.14h1.28v-.54c0-.21-.04-.4-.11-.56-.08-.17-.19-.3-.33-.42a1.44 1.44 0 0 0-.51-.27 2.2 2.2 0 0 0-.68-.1c-.23 0-.44.03-.62.09s-.34.14-.47.23c-.12.1-.22.22-.3.35a.88.88 0 0 0-.1.42h-1.18c0-.25.07-.5.2-.74.12-.24.3-.46.53-.65.24-.2.53-.35.86-.47a3.88 3.88 0 0 1 2.23-.03c.34.1.63.24.87.43.24.2.44.43.58.72.14.29.2.62.2 1v3.2a4.57 4.57 0 0 0 .25 1.4v.1h-1.23Zm-2.08-.9a2.25 2.25 0 0 0 1.61-.65c.12-.13.21-.26.28-.4v-1.38h-1.1c-.68 0-1.21.1-1.6.3-.37.2-.56.53-.56.96a1.05 1.05 0 0 0 .77 1.08c.17.06.38.1.6.1Zm8.16-7.63v1.66h2.61v.91h-2.62v3.73c0 .27.04.49.1.66.08.18.17.31.29.42.11.1.25.18.4.22.16.04.32.06.5.06a4.12 4.12 0 0 0 .78-.08l.37-.06.28-.06.16.83c-.1.06-.21.11-.35.16a4.73 4.73 0 0 1-2.39.08 1.82 1.82 0 0 1-1.15-1.14c-.11-.3-.16-.67-.16-1.09v-3.73h-1.8v-.9h1.8v-1.67h1.17Zm9.54 8.53c-.05-.09-.09-.2-.12-.33a4.23 4.23 0 0 1-.06-.42 3.05 3.05 0 0 1-2.07.88c-.37 0-.7-.06-1-.16a1.98 1.98 0 0 1-1.23-1.07 1.98 1.98 0 0 1-.15-.8c0-.38.07-.71.22-1 .15-.28.37-.51.64-.7.28-.19.6-.33 1-.42.38-.1.82-.14 1.3-.14h1.28v-.54c0-.21-.04-.4-.12-.56-.07-.17-.18-.3-.32-.42a1.43 1.43 0 0 0-.52-.27 2.2 2.2 0 0 0-.67-.1c-.23 0-.44.03-.63.09-.18.06-.34.14-.46.23-.13.1-.23.22-.3.35a.88.88 0 0 0-.1.42h-1.18c0-.25.07-.5.19-.74.13-.24.3-.46.54-.65.23-.2.52-.35.85-.47a3.88 3.88 0 0 1 2.23-.03c.34.1.63.24.87.43.25.2.44.43.58.72.14.29.21.62.21 1v3.2a4.56 4.56 0 0 0 .24 1.4v.1h-1.22Zm-2.08-.9a2.24 2.24 0 0 0 1.6-.65c.13-.13.22-.26.28-.4v-1.38h-1.09c-.68 0-1.22.1-1.6.3-.38.2-.57.53-.57.96 0 .17.03.33.09.47a1.05 1.05 0 0 0 .69.62c.17.05.37.08.6.08Zm10.5-2.66h-4.85v-.97h4.86v.97Zm4.43 3.56v-5.96h-1.9v-.9h1.9v-.5c0-.43.06-.82.19-1.15.13-.33.31-.6.55-.83.23-.23.52-.4.85-.51.33-.12.7-.17 1.1-.17.28 0 .55.02.81.07.27.04.54.1.82.17l-.14.98a4.4 4.4 0 0 0-1.34-.23c-.55 0-.97.15-1.25.42-.27.28-.41.7-.41 1.26v.48h2.65v.91h-2.65V222h-1.18Zm5.73-3.5c0-.5.07-.95.21-1.38.15-.42.35-.8.62-1.1a3 3 0 0 1 2.28-1 3.02 3.02 0 0 1 2.3 1c.26.3.47.68.62 1.1.14.43.21.89.21 1.38v.14c0 .5-.07.96-.21 1.38-.15.42-.36.8-.63 1.1-.26.32-.59.56-.97.74-.39.18-.82.27-1.3.27-.5 0-.93-.1-1.32-.27a2.87 2.87 0 0 1-.98-.74 3.34 3.34 0 0 1-.62-1.1 4.26 4.26 0 0 1-.21-1.38v-.14Zm1.17.14c0 .34.04.66.12.97.08.3.2.58.36.8a1.75 1.75 0 0 0 1.47.76 1.7 1.7 0 0 0 1.46-.75c.16-.23.29-.5.37-.8.08-.32.12-.64.12-.98v-.14c0-.33-.05-.65-.13-.96-.08-.3-.2-.58-.37-.8a1.79 1.79 0 0 0-.6-.56c-.25-.14-.53-.21-.86-.21-.32 0-.6.07-.85.2-.24.15-.44.33-.6.56-.17.23-.29.5-.37.81-.08.3-.12.63-.12.96v.14Zm11.46-3.63a4.5 4.5 0 0 1 1.21.16l-.16 1.15a5.63 5.63 0 0 0-1.3-.15c-.54 0-1 .13-1.33.38-.34.25-.6.6-.75 1.04V222h-1.18v-6.87h1.11l.06 1.1c.28-.38.62-.68 1-.9.4-.22.84-.33 1.34-.33Zm3.85.12.03.65c.14-.24.32-.43.55-.57.23-.13.5-.2.82-.2.63 0 1.06.24 1.27.73.13-.22.3-.4.53-.53.22-.13.5-.2.81-.2.5 0 .9.15 1.16.46.27.3.41.78.41 1.4V222h-1.12v-5.14c0-.58-.26-.86-.8-.86-.13 0-.25.02-.35.06a.72.72 0 0 0-.41.39.93.93 0 0 0-.08.26V222h-1.12v-5.15a.97.97 0 0 0-.18-.63c-.13-.15-.32-.22-.59-.22a.97.97 0 0 0-.57.15.85.85 0 0 0-.3.38V222h-1.11v-6.87h1.05Zm12.4 3.3h-4.85v-.96h4.85v.97Zm2.86-3.3h3.51v5.85h2.24V222h-5.75v-1.02h2.34v-4.83h-2.34v-1.02Zm2.18-1.8c0-.2.06-.36.18-.49.11-.13.3-.2.53-.2.23 0 .4.07.53.2.11.13.17.3.17.49s-.06.35-.17.47c-.12.13-.3.2-.53.2-.24 0-.42-.07-.53-.2a.68.68 0 0 1-.18-.47Zm5.22 5.18c0-.51.06-.98.2-1.41.12-.43.3-.8.54-1.11a2.46 2.46 0 0 1 2-.98c.42 0 .78.06 1.08.2.31.14.58.34.8.6v-3.56h1.18V222h-1.08l-.05-.72c-.23.28-.5.49-.82.63-.32.15-.69.22-1.11.22a2.4 2.4 0 0 1-1.99-1 3.55 3.55 0 0 1-.55-1.11c-.13-.43-.2-.89-.2-1.38v-.13Zm1.18.13c0 .34.03.65.1.95.08.3.19.57.33.8.16.23.35.4.58.54a1.96 1.96 0 0 0 1.38.13c.16-.05.3-.11.44-.2a1.79 1.79 0 0 0 .61-.71v-3.19c-.15-.28-.35-.5-.61-.69a1.63 1.63 0 0 0-.97-.27c-.33 0-.61.07-.85.2a1.7 1.7 0 0 0-.58.56c-.14.23-.25.5-.33.8-.07.3-.1.61-.1.95v.13Zm12.51-1.6h-5.66v-1.01h5.66v1.02Zm0 2.64h-5.66v-1.01h5.66v1.01Zm4.25-6.74-.13 2.35h-.83v-3.04h.96v.7Zm2.27 0-.14 2.35h-.82l.01-2.25v-.79h.95v.7Zm5.19 9.06v-5.96h-1.9v-.9h1.9v-.5c0-.43.06-.82.19-1.15.13-.33.31-.6.54-.83.24-.23.53-.4.86-.51.32-.12.7-.17 1.1-.17.28 0 .55.02.81.07.27.04.54.1.82.17l-.14.98a4.35 4.35 0 0 0-1.34-.23c-.55 0-.97.15-1.25.42-.27.28-.41.7-.41 1.26v.48h2.65v.91h-2.65V222h-1.18Zm5.72-3.5c0-.5.08-.95.22-1.38.14-.42.35-.8.62-1.1a3.01 3.01 0 0 1 2.29-1 3.02 3.02 0 0 1 2.28 1c.27.3.48.68.62 1.1.15.43.22.89.22 1.38v.14c0 .5-.07.96-.22 1.38-.14.42-.35.8-.62 1.1-.26.32-.59.56-.97.74-.4.18-.82.27-1.3.27-.5 0-.93-.1-1.32-.27a2.87 2.87 0 0 1-.98-.74 3.35 3.35 0 0 1-.62-1.1 4.26 4.26 0 0 1-.22-1.38v-.14Zm1.18.14c0 .34.04.66.12.97.08.3.2.58.36.8a1.75 1.75 0 0 0 1.47.76 1.7 1.7 0 0 0 1.46-.75c.16-.23.28-.5.37-.8.07-.32.12-.64.12-.98v-.14c0-.33-.05-.65-.13-.96-.08-.3-.2-.58-.37-.8a1.78 1.78 0 0 0-.6-.56c-.25-.14-.53-.21-.86-.21-.33 0-.6.07-.85.2-.24.15-.44.33-.6.56-.17.23-.3.5-.37.81-.08.3-.12.63-.12.96v.14Zm11.46-3.63a4.54 4.54 0 0 1 1.2.16l-.15 1.15a5.58 5.58 0 0 0-1.3-.15c-.55 0-1 .13-1.33.38-.34.25-.6.6-.75 1.04V222h-1.19v-6.87h1.12l.06 1.1c.28-.38.61-.68 1-.9.4-.22.84-.33 1.34-.33Zm3.85.12.03.65c.14-.24.32-.43.55-.57.22-.13.5-.2.82-.2.63 0 1.05.24 1.27.73.13-.22.3-.4.53-.53.22-.13.5-.2.81-.2.5 0 .9.15 1.16.46.27.3.4.78.4 1.4V222h-1.1v-5.14c0-.58-.27-.86-.8-.86-.14 0-.26.02-.36.06a.7.7 0 0 0-.42.39.97.97 0 0 0-.07.26V222h-1.12v-5.15a.97.97 0 0 0-.18-.63c-.13-.15-.32-.22-.59-.22a.97.97 0 0 0-.57.15.86.86 0 0 0-.3.38V222h-1.12v-6.87H237Zm12.4 3.3h-4.85v-.96h4.85v.97Zm2.86-3.3h3.5v5.85H258V222h-5.75v-1.02h2.33v-4.83h-2.33v-1.02Zm2.18-1.8c0-.2.06-.36.17-.49.12-.13.3-.2.54-.2.23 0 .4.07.52.2s.18.3.18.49-.06.35-.18.47c-.12.13-.3.2-.52.2-.24 0-.42-.07-.54-.2a.68.68 0 0 1-.17-.47Zm5.22 5.18c0-.51.06-.98.19-1.41.13-.43.32-.8.55-1.11a2.46 2.46 0 0 1 2-.98c.42 0 .78.06 1.08.2.31.14.58.34.8.6v-3.56h1.18V222h-1.08l-.06-.72c-.22.28-.5.49-.81.63-.32.15-.7.22-1.11.22a2.39 2.39 0 0 1-2-1 3.55 3.55 0 0 1-.54-1.11c-.14-.43-.2-.89-.2-1.38v-.13Zm1.17.13c0 .34.04.65.11.95.07.3.18.57.33.8.16.23.35.4.58.54a1.96 1.96 0 0 0 1.38.13c.16-.05.3-.11.43-.2a1.76 1.76 0 0 0 .62-.71v-3.19c-.15-.28-.36-.5-.62-.69a1.63 1.63 0 0 0-.96-.27c-.33 0-.61.07-.85.2-.23.14-.42.32-.58.56-.15.23-.26.5-.33.8-.07.3-.1.61-.1.95v.13Zm8.96-5.7-.13 2.35h-.83v-3.04h.96v.7Zm2.27 0-.14 2.35h-.81v-3.04h.95v.7ZM103.5 238.51c0-.51.06-.98.19-1.41.13-.43.31-.8.55-1.11a2.46 2.46 0 0 1 2-.98c.42 0 .77.06 1.08.2.3.14.57.34.8.6v-3.56h1.17V242h-1.08l-.05-.72c-.22.28-.5.49-.82.63-.31.15-.68.22-1.1.22a2.39 2.39 0 0 1-2-1 3.57 3.57 0 0 1-.55-1.11c-.13-.43-.2-.89-.2-1.38v-.13Zm1.17.13c0 .34.04.65.11.95.07.3.18.57.33.8.15.23.34.4.58.54a1.96 1.96 0 0 0 1.38.13c.16-.05.3-.11.43-.2a1.79 1.79 0 0 0 .62-.71v-3.19c-.15-.28-.36-.5-.62-.69a1.63 1.63 0 0 0-.96-.27c-.33 0-.62.07-.85.2a1.7 1.7 0 0 0-.58.56c-.15.23-.26.5-.33.8-.07.3-.1.61-.1.95v.13Zm11.37 3.36c-.05-.09-.08-.2-.11-.33a4.55 4.55 0 0 1-.06-.42 3.11 3.11 0 0 1-1.44.8 2.92 2.92 0 0 1-1.63-.09 1.97 1.97 0 0 1-1.22-1.07 1.98 1.98 0 0 1-.17-.8 1.97 1.97 0 0 1 .86-1.7c.28-.18.61-.32 1-.41.39-.1.82-.14 1.3-.14h1.28v-.54c0-.21-.04-.4-.11-.56-.08-.17-.19-.3-.33-.42a1.44 1.44 0 0 0-.51-.27 2.2 2.2 0 0 0-.68-.1c-.23 0-.44.03-.62.09s-.34.14-.47.23c-.12.1-.22.22-.3.35a.88.88 0 0 0-.1.42h-1.18c0-.25.07-.5.2-.74.12-.24.3-.46.53-.65.24-.2.53-.35.86-.47a3.88 3.88 0 0 1 2.23-.03c.34.1.63.24.87.43.24.2.44.43.58.72.14.29.2.62.2 1v3.2a4.57 4.57 0 0 0 .25 1.4v.1h-1.23Zm-2.08-.9a2.25 2.25 0 0 0 1.61-.65c.12-.13.21-.26.28-.4v-1.38h-1.1c-.68 0-1.21.1-1.6.3-.37.2-.56.53-.56.96a1.05 1.05 0 0 0 .77 1.08c.17.06.38.1.6.1Zm8.16-7.63v1.66h2.61v.91h-2.62v3.73c0 .27.04.49.1.66.08.18.17.31.29.42.11.1.25.18.4.22.16.04.32.06.5.06a4.12 4.12 0 0 0 .78-.08l.37-.06.28-.06.16.83c-.1.06-.21.11-.35.16a4.73 4.73 0 0 1-2.39.08 1.82 1.82 0 0 1-1.15-1.14c-.11-.3-.16-.67-.16-1.09v-3.73h-1.8v-.9h1.8v-1.67h1.17Zm9.54 8.53c-.05-.09-.09-.2-.12-.33a4.23 4.23 0 0 1-.06-.42 3.05 3.05 0 0 1-2.07.88c-.37 0-.7-.06-1-.16a1.98 1.98 0 0 1-1.23-1.07 1.98 1.98 0 0 1-.15-.8c0-.38.07-.71.22-1 .15-.28.37-.51.64-.7.28-.19.6-.33 1-.42.38-.1.82-.14 1.3-.14h1.28v-.54c0-.21-.04-.4-.12-.56-.07-.17-.18-.3-.32-.42a1.43 1.43 0 0 0-.52-.27 2.2 2.2 0 0 0-.67-.1c-.23 0-.44.03-.63.09-.18.06-.34.14-.46.23-.13.1-.23.22-.3.35a.88.88 0 0 0-.1.42h-1.18c0-.25.07-.5.19-.74.13-.24.3-.46.54-.65.23-.2.52-.35.85-.47a3.88 3.88 0 0 1 2.23-.03c.34.1.63.24.87.43.25.2.44.43.58.72.14.29.21.62.21 1v3.2a4.56 4.56 0 0 0 .24 1.4v.1h-1.22Zm-2.08-.9a2.24 2.24 0 0 0 1.6-.65c.13-.13.22-.26.28-.4v-1.38h-1.09c-.68 0-1.22.1-1.6.3-.38.2-.57.53-.57.96 0 .17.03.33.09.47a1.05 1.05 0 0 0 .69.62c.17.05.37.08.6.08Zm10.5-2.66h-4.85v-.97h4.86v.97Zm4.73.35-.86.84V242h-1.18v-9.75h1.18v5.97l.77-.83 2.25-2.26h1.43l-2.78 2.87 3.2 4h-1.49l-2.52-3.2Zm8.79 3.34a3.5 3.5 0 0 1-1.33-.25 3.03 3.03 0 0 1-1.71-1.75c-.16-.4-.24-.84-.24-1.32v-.27c0-.55.09-1.05.26-1.48a3.13 3.13 0 0 1 1.7-1.8 3.02 3.02 0 0 1 2.45.02c.39.15.7.4.94.7.24.3.43.65.55 1.06.12.41.18.86.18 1.34v.52h-4.9a2.4 2.4 0 0 0 .62 1.6 2.13 2.13 0 0 0 1.54.67 2.4 2.4 0 0 0 1.93-.93l.72.56a2.72 2.72 0 0 1-1.02.92 3.56 3.56 0 0 1-1.69.4Zm-.15-6.16a1.72 1.72 0 0 0-1.25.51c-.17.17-.31.37-.43.62-.11.24-.2.52-.24.84h3.7v-.1a2.57 2.57 0 0 0-.14-.67 1.87 1.87 0 0 0-.32-.6 1.64 1.64 0 0 0-1.32-.6Zm7.45 3.6.3.82 2.1-5.26h1.31l-3.48 7.93a4.46 4.46 0 0 1-.76 1.12c-.18.17-.39.3-.63.42a1.87 1.87 0 0 1-1 .16l-.2-.02-.2-.04c-.05 0-.1-.02-.14-.03l.2-.96.11.01.16.01a2.2 2.2 0 0 0 .28.02c.16 0 .3-.05.44-.14a2.23 2.23 0 0 0 .62-.7l.18-.32.47-.91-2.96-6.55h1.31l1.89 4.43Zm10.94-2.52h-5.67v-1.02h5.67v1.02Zm0 2.63h-5.67v-1.01h5.67v1.01Zm4.25-6.74-.13 2.35h-.83v-3.04h.96v.7Zm2.26 0-.13 2.35h-.82l.01-2.25v-.79h.95v.7Zm6.23.53v1.66h2.61v.91h-2.61v3.73c0 .27.03.49.1.66.06.18.16.31.28.42.12.1.25.18.4.22.16.04.32.06.5.06a4.12 4.12 0 0 0 .79-.08l.36-.06.28-.06.16.83c-.1.06-.21.11-.35.16a4.73 4.73 0 0 1-2.39.08 1.82 1.82 0 0 1-1.15-1.14c-.1-.3-.16-.67-.16-1.09v-3.73h-1.8v-.9h1.8v-1.67h1.18Zm8.06 8.66a3.5 3.5 0 0 1-1.33-.25 3.03 3.03 0 0 1-1.71-1.75c-.16-.4-.24-.84-.24-1.32v-.27c0-.55.08-1.05.26-1.48a3.13 3.13 0 0 1 1.7-1.8 3.02 3.02 0 0 1 2.45.02c.38.15.7.4.94.7.24.3.42.65.54 1.06.13.41.19.86.19 1.34v.52h-4.91c.01.31.07.61.18.88a2.13 2.13 0 0 0 2 1.38 2.39 2.39 0 0 0 1.92-.92l.72.56a2.75 2.75 0 0 1-1.02.92 3.56 3.56 0 0 1-1.69.4Zm-.15-6.16a1.72 1.72 0 0 0-1.25.51c-.17.17-.31.37-.43.62-.12.24-.2.52-.24.84h3.7v-.1a2.53 2.53 0 0 0-.14-.67 1.85 1.85 0 0 0-.32-.6 1.64 1.64 0 0 0-1.32-.6Zm9.48 4.2a.83.83 0 0 0-.08-.37.83.83 0 0 0-.28-.3c-.13-.1-.3-.19-.52-.26a5.18 5.18 0 0 0-.8-.22c-.4-.08-.76-.18-1.08-.29-.32-.11-.6-.25-.83-.4-.23-.17-.41-.35-.54-.56a1.61 1.61 0 0 1 0-1.53c.14-.25.32-.46.56-.65.24-.18.52-.32.85-.43a3.7 3.7 0 0 1 2.23 0c.33.12.62.27.86.47a2.03 2.03 0 0 1 .74 1.52h-1.18c0-.15-.03-.3-.1-.43a1.23 1.23 0 0 0-.33-.38c-.13-.11-.3-.2-.5-.27a2.38 2.38 0 0 0-1.3-.02c-.19.06-.34.13-.47.22-.12.1-.21.2-.28.33a.81.81 0 0 0-.1.38.74.74 0 0 0 .34.65c.13.08.3.16.5.22.22.07.48.14.8.2.43.1.8.2 1.14.31.34.12.62.26.84.42.23.16.4.35.53.57.12.21.18.46.18.75 0 .3-.07.58-.21.83a1.9 1.9 0 0 1-.57.64c-.25.18-.54.31-.88.41a4.1 4.1 0 0 1-2.37-.04c-.37-.12-.67-.29-.93-.5-.25-.2-.44-.44-.58-.71-.13-.27-.2-.55-.2-.84h1.18c.02.24.08.44.2.6.1.17.25.3.41.4.17.1.36.18.56.22.2.04.4.06.6.06.5 0 .89-.09 1.18-.27.28-.18.43-.42.44-.72Zm6.03-6.7v1.66h2.61v.91H208v3.73c0 .27.03.49.1.66.07.18.16.31.28.42.12.1.25.18.4.22.16.04.33.06.5.06a4.13 4.13 0 0 0 .79-.08l.36-.06.28-.06.16.83c-.1.06-.21.11-.35.16a4.76 4.76 0 0 1-2.39.08 1.81 1.81 0 0 1-1.15-1.14c-.1-.3-.16-.67-.16-1.09v-3.73h-1.8v-.9h1.8v-1.67H208Zm10.73 9.49h-5.82V242h5.82v.96Zm4.16-4.17-.86.84V242h-1.18v-9.75h1.18v5.97l.76-.83 2.26-2.26h1.43L223.7 238l3.2 4h-1.49l-2.52-3.2Zm8.79 3.34a3.5 3.5 0 0 1-1.34-.25 3.03 3.03 0 0 1-1.7-1.75c-.17-.4-.25-.84-.25-1.32v-.27c0-.55.1-1.05.27-1.48a3.13 3.13 0 0 1 1.7-1.8 3.01 3.01 0 0 1 2.45.02c.38.15.69.4.94.7.24.3.42.65.54 1.06.12.41.19.86.19 1.34v.52h-4.91c.01.31.07.61.18.88a2.13 2.13 0 0 0 2 1.38 2.39 2.39 0 0 0 1.92-.92l.72.56a2.75 2.75 0 0 1-1.03.92 3.58 3.58 0 0 1-1.69.4Zm-.16-6.16a1.71 1.71 0 0 0-1.24.51c-.17.17-.31.37-.43.62-.12.24-.2.52-.24.84h3.7v-.1a2.53 2.53 0 0 0-.14-.67 1.83 1.83 0 0 0-.33-.6 1.64 1.64 0 0 0-1.32-.6Zm7.46 3.6.3.82 2.1-5.26h1.3l-3.48 7.93a4.46 4.46 0 0 1-.76 1.12 2.4 2.4 0 0 1-.62.42 1.87 1.87 0 0 1-1 .16l-.2-.02-.2-.04c-.05 0-.1-.02-.14-.03l.19-.96.12.01.16.01a2.17 2.17 0 0 0 .28.02c.16 0 .3-.05.44-.14a2.23 2.23 0 0 0 .62-.7l.17-.32.47-.91-2.95-6.55h1.31l1.89 4.43Zm7.38-6.63-.14 2.35h-.82v-3.04h.96v.7Zm2.26 0-.13 2.35h-.82v-3.04h.96v.7ZM103.5 258.51c0-.51.06-.98.19-1.41.13-.43.31-.8.55-1.11a2.46 2.46 0 0 1 2-.98c.42 0 .77.06 1.08.2.3.14.57.34.8.6v-3.56h1.17V262h-1.08l-.05-.72c-.22.28-.5.49-.82.63-.31.14-.68.22-1.1.22a2.39 2.39 0 0 1-2-1 3.57 3.57 0 0 1-.55-1.11c-.13-.43-.2-.89-.2-1.38v-.13Zm1.17.13c0 .34.04.65.11.95.07.3.18.57.33.8.15.23.34.4.58.54a1.96 1.96 0 0 0 1.38.13c.16-.05.3-.11.43-.2a1.79 1.79 0 0 0 .62-.71v-3.19c-.15-.28-.36-.5-.62-.69a1.63 1.63 0 0 0-.96-.27c-.33 0-.62.07-.85.2a1.7 1.7 0 0 0-.58.56c-.15.23-.26.5-.33.8-.07.3-.1.61-.1.95v.13Zm11.37 3.36c-.05-.09-.08-.2-.11-.33a4.55 4.55 0 0 1-.06-.42 3.11 3.11 0 0 1-1.44.8 2.92 2.92 0 0 1-1.63-.09 1.97 1.97 0 0 1-1.22-1.07 1.98 1.98 0 0 1-.17-.8 1.97 1.97 0 0 1 .86-1.7c.28-.18.61-.32 1-.41.39-.1.82-.14 1.3-.14h1.28v-.54c0-.21-.04-.4-.11-.56-.08-.17-.19-.3-.33-.42a1.44 1.44 0 0 0-.51-.27 2.2 2.2 0 0 0-.68-.1c-.23 0-.44.03-.62.09s-.34.14-.47.23c-.12.1-.22.22-.3.35a.88.88 0 0 0-.1.42h-1.18c0-.25.07-.5.2-.74.12-.24.3-.46.53-.65.24-.2.53-.35.86-.47a3.88 3.88 0 0 1 2.23-.03c.34.1.63.24.87.43.24.2.44.43.58.72.14.29.2.62.2 1v3.2a4.57 4.57 0 0 0 .25 1.4v.1h-1.23Zm-2.08-.9a2.25 2.25 0 0 0 1.61-.65c.12-.13.21-.26.28-.4v-1.38h-1.1c-.68 0-1.21.1-1.6.3-.37.2-.56.52-.56.96a1.05 1.05 0 0 0 .77 1.09c.17.06.38.09.6.09Zm8.16-7.63v1.66h2.61v.91h-2.62v3.73c0 .27.04.49.1.66.08.18.17.31.29.42.11.1.25.17.4.22.16.04.32.06.5.06a4.12 4.12 0 0 0 .78-.08l.37-.06.28-.06.16.83c-.1.06-.21.11-.35.16a4.73 4.73 0 0 1-2.39.08 1.82 1.82 0 0 1-1.15-1.14c-.11-.3-.16-.67-.16-1.09v-3.73h-1.8v-.9h1.8v-1.67h1.17Zm9.54 8.53c-.05-.09-.09-.2-.12-.33a4.23 4.23 0 0 1-.06-.42 3.05 3.05 0 0 1-2.07.88c-.37 0-.7-.06-1-.16a1.98 1.98 0 0 1-1.23-1.07 1.98 1.98 0 0 1-.15-.8c0-.38.07-.71.22-1 .15-.28.37-.51.64-.7.28-.19.6-.33 1-.42.38-.1.82-.14 1.3-.14h1.28v-.54c0-.21-.04-.4-.12-.56-.07-.17-.18-.3-.32-.42a1.43 1.43 0 0 0-.52-.27 2.2 2.2 0 0 0-.67-.1c-.23 0-.44.03-.63.09-.18.06-.34.14-.46.23-.13.1-.23.22-.3.35a.88.88 0 0 0-.1.42h-1.18c0-.25.07-.5.19-.74.13-.24.3-.46.54-.65.23-.2.52-.35.85-.47a3.88 3.88 0 0 1 2.23-.03c.34.1.63.24.87.43.25.2.44.43.58.72.14.29.21.62.21 1v3.2a4.56 4.56 0 0 0 .24 1.4v.1h-1.22Zm-2.08-.9a2.24 2.24 0 0 0 1.6-.65c.13-.13.22-.26.28-.4v-1.38h-1.09c-.68 0-1.22.1-1.6.3-.38.2-.57.52-.57.96 0 .17.03.33.09.47a1.05 1.05 0 0 0 .69.62c.17.06.37.09.6.09Zm10.5-2.66h-4.85v-.97h4.86v.97Zm8.47.2c0 .5-.06.95-.18 1.38-.11.42-.29.8-.52 1.1a2.45 2.45 0 0 1-2 1c-.41 0-.78-.06-1.1-.2a2.3 2.3 0 0 1-.82-.58v3.3h-1.18v-9.5h1.07l.06.74c.23-.28.5-.5.83-.65.32-.15.7-.22 1.13-.22.44 0 .83.08 1.16.25.34.18.63.42.85.73.23.3.4.68.53 1.11.11.43.17.9.17 1.4v.14Zm-1.17-.13c0-.34-.04-.65-.12-.95-.07-.3-.18-.57-.34-.8a1.69 1.69 0 0 0-.58-.56c-.24-.13-.52-.2-.85-.2-.38 0-.7.09-.96.27-.25.17-.45.4-.6.67v3.3c.15.28.35.5.6.68.26.16.58.25.97.25.33 0 .6-.07.84-.2.24-.14.44-.33.59-.56.15-.24.26-.5.33-.8.08-.31.12-.63.12-.97v-.13Zm7.69-3.5a4.54 4.54 0 0 1 1.2.16l-.16 1.15a5.56 5.56 0 0 0-1.3-.15c-.54 0-.99.13-1.33.38-.34.25-.59.6-.75 1.05v4.4h-1.18v-6.87h1.12l.05 1.1c.28-.38.62-.68 1-.9.4-.22.85-.33 1.35-.33Zm2.97 3.5c0-.5.08-.96.22-1.38.14-.43.35-.8.62-1.12a3.01 3.01 0 0 1 2.28-1 3.02 3.02 0 0 1 2.3 1c.26.32.47.69.61 1.12.15.42.22.88.22 1.37v.14c0 .5-.07.96-.22 1.38-.14.42-.35.8-.62 1.1-.26.32-.6.56-.98.74-.38.18-.81.27-1.3.27-.48 0-.92-.1-1.31-.27a2.86 2.86 0 0 1-.99-.74 3.34 3.34 0 0 1-.61-1.1 4.26 4.26 0 0 1-.22-1.38v-.14Zm1.18.13c0 .34.04.66.12.97.08.3.2.58.36.8a1.75 1.75 0 0 0 1.47.76 1.7 1.7 0 0 0 1.46-.75c.16-.23.28-.5.36-.8.08-.32.13-.64.13-.98v-.14c0-.33-.05-.65-.13-.96-.08-.3-.2-.58-.37-.8a1.78 1.78 0 0 0-.61-.56c-.24-.14-.52-.21-.85-.21-.33 0-.61.07-.85.2-.24.14-.44.33-.61.56-.16.23-.28.5-.36.81-.08.3-.12.63-.12.96v.14Zm6.74-.13c0-.51.06-.98.19-1.41.13-.43.31-.8.55-1.11a2.46 2.46 0 0 1 2-.98c.42 0 .78.06 1.08.2.3.14.57.34.8.6v-3.56h1.17V262h-1.07l-.06-.72c-.22.28-.5.49-.81.63-.32.14-.7.22-1.12.22a2.4 2.4 0 0 1-1.98-1 3.55 3.55 0 0 1-.56-1.11c-.13-.43-.2-.89-.2-1.38v-.13Zm1.17.13c0 .34.04.65.11.95.07.3.18.57.33.8.15.23.35.4.58.54a1.96 1.96 0 0 0 1.38.13c.16-.05.3-.11.43-.2a1.79 1.79 0 0 0 .62-.71v-3.19c-.15-.28-.36-.5-.62-.69a1.63 1.63 0 0 0-.96-.27c-.33 0-.62.07-.85.2a1.7 1.7 0 0 0-.58.56c-.15.23-.26.5-.33.8-.07.3-.1.61-.1.95v.13Zm11.31 2.41c-.22.34-.51.6-.85.8a2.75 2.75 0 0 1-2.16.11 1.9 1.9 0 0 1-.76-.52c-.2-.24-.36-.54-.48-.9-.1-.37-.16-.81-.16-1.33v-4.08h1.17v4.1a4 4 0 0 0 .09.92c.06.25.15.45.27.6.12.14.26.24.43.3.17.06.37.09.6.09.47 0 .86-.1 1.15-.3.3-.19.52-.45.66-.78v-4.93h1.18V262h-1.07l-.07-.95Zm6.28.13a1.9 1.9 0 0 0 1.16-.39c.15-.12.28-.26.37-.42.1-.17.15-.34.15-.54h1.11c0 .31-.08.6-.24.88a2.5 2.5 0 0 1-.61.73 3.01 3.01 0 0 1-1.94.69 2.88 2.88 0 0 1-2.93-2.12c-.13-.42-.2-.85-.2-1.31v-.27c0-.45.07-.88.2-1.3.14-.41.33-.78.59-1.09.26-.32.59-.57.98-.76.39-.18.84-.28 1.36-.28a3.05 3.05 0 0 1 2 .73 2.34 2.34 0 0 1 .8 1.76h-1.12a1.56 1.56 0 0 0-1.02-1.4c-.2-.08-.42-.12-.66-.12-.36 0-.67.07-.92.22-.24.15-.44.34-.6.57-.15.24-.26.5-.32.79-.07.3-.1.59-.1.88v.27c0 .3.03.6.1.9.06.29.17.55.32.79.15.23.35.42.6.57.24.14.55.22.92.22Zm7.66-7.71v1.66H195v.91h-2.62v3.73c0 .27.04.49.1.66.07.18.17.31.28.42.12.1.26.17.41.22.16.04.32.06.5.06a4.13 4.13 0 0 0 .78-.08l.37-.06.27-.06.17.83c-.1.06-.22.11-.36.16a4.76 4.76 0 0 1-2.39.08 1.81 1.81 0 0 1-1.14-1.14c-.11-.3-.17-.67-.17-1.09v-3.73h-1.8v-.9h1.8v-1.67h1.18Zm10.7 3.58h-5.68v-1.02h5.67v1.02Zm0 2.63h-5.68v-1.01h5.67v1.01Zm4.24-6.74-.13 2.35h-.83v-3.04h.96v.7Zm2.27 0-.14 2.35h-.82l.01-2.25v-.79h.95v.7Zm6.22.53v1.66h2.61v.91h-2.61v3.73c0 .27.03.49.1.66.07.18.16.31.28.42.12.1.25.17.4.22.16.04.32.06.5.06a4.1 4.1 0 0 0 .79-.08l.36-.06.28-.06.16.83c-.1.06-.21.11-.35.16a4.76 4.76 0 0 1-2.39.08 1.83 1.83 0 0 1-1.15-1.14c-.1-.3-.16-.67-.16-1.09v-3.73h-1.8v-.9h1.8v-1.67h1.18Zm9.52 1.53a4.52 4.52 0 0 1 1.21.17l-.16 1.15a5.63 5.63 0 0 0-1.3-.15c-.54 0-.99.13-1.33.38-.34.25-.6.6-.75 1.05v4.4h-1.18v-6.87h1.12l.05 1.1c.28-.38.62-.68 1-.9.4-.22.84-.33 1.34-.33Zm7.82 7c-.04-.09-.08-.2-.1-.33a4.23 4.23 0 0 1-.07-.42 3.05 3.05 0 0 1-2.07.88c-.37 0-.7-.06-1-.16a1.98 1.98 0 0 1-1.22-1.07 1.98 1.98 0 0 1-.16-.8c0-.38.07-.71.22-1 .15-.28.37-.51.64-.7.28-.19.6-.33 1-.42.38-.1.81-.14 1.3-.14h1.27v-.54c0-.21-.03-.4-.11-.56-.08-.17-.18-.3-.32-.42a1.43 1.43 0 0 0-.52-.27 2.2 2.2 0 0 0-.67-.1c-.23 0-.44.03-.63.09-.18.06-.34.14-.46.23-.13.1-.23.22-.3.35a.9.9 0 0 0-.1.42h-1.18c0-.25.07-.5.19-.74s.3-.46.54-.65c.23-.2.52-.35.85-.47a3.88 3.88 0 0 1 2.23-.03c.34.1.63.24.87.43.25.2.44.43.58.72.14.29.2.62.2 1v3.2a4.56 4.56 0 0 0 .25 1.4v.1h-1.22Zm-2.07-.9a2.24 2.24 0 0 0 1.6-.65c.12-.13.22-.26.28-.4v-1.38h-1.09c-.68 0-1.22.1-1.6.3-.38.2-.57.52-.57.96a1.05 1.05 0 0 0 .77 1.09c.18.06.38.09.6.09Zm6.42-5.97.09 1.02c.25-.36.55-.63.92-.83.36-.2.77-.31 1.22-.31.35 0 .68.05.97.15a1.88 1.88 0 0 1 1.23 1.3c.12.33.17.72.17 1.18V262h-1.17v-4.33c0-.31-.03-.57-.1-.78a1.16 1.16 0 0 0-.8-.8c-.19-.06-.4-.09-.66-.09-.39 0-.74.1-1.04.3-.3.2-.53.45-.7.77V262h-1.18v-6.87h1.05Zm11.32 5.05a.83.83 0 0 0-.08-.38.83.83 0 0 0-.28-.3c-.13-.1-.3-.19-.52-.26a5.12 5.12 0 0 0-.8-.22c-.4-.08-.76-.17-1.09-.29-.32-.11-.6-.25-.83-.4-.23-.17-.4-.35-.53-.56a1.61 1.61 0 0 1 0-1.53c.14-.25.32-.46.56-.65.23-.18.51-.32.84-.43.33-.1.7-.16 1.09-.16.42 0 .8.06 1.14.17.34.11.63.26.86.46a2.03 2.03 0 0 1 .75 1.52h-1.18c0-.15-.04-.3-.11-.43a1.22 1.22 0 0 0-.32-.38c-.14-.11-.3-.2-.5-.27a2.38 2.38 0 0 0-1.3-.02 1.5 1.5 0 0 0-.47.22c-.13.1-.22.2-.28.33a.83.83 0 0 0-.02.74c.05.1.14.2.26.29.13.08.3.16.5.23l.8.2c.42.08.8.18 1.14.3.33.12.61.26.84.42.23.16.4.35.52.57a1.68 1.68 0 0 1-.03 1.58 1.9 1.9 0 0 1-.57.64c-.24.18-.53.31-.88.41a4.12 4.12 0 0 1-2.37-.04 3.1 3.1 0 0 1-.92-.5c-.25-.2-.44-.44-.58-.71-.13-.27-.2-.55-.2-.84h1.18a1.23 1.23 0 0 0 .6 1c.18.1.36.18.56.22.2.04.41.06.6.06.5 0 .9-.09 1.18-.27.3-.18.44-.42.44-.72Zm7.76 1.82c-.05-.09-.09-.2-.12-.33a4.55 4.55 0 0 1-.05-.42 3.11 3.11 0 0 1-1.45.8 2.93 2.93 0 0 1-1.63-.09 1.97 1.97 0 0 1-1.22-1.07 1.98 1.98 0 0 1-.16-.8c0-.37.07-.7.22-.98.16-.29.37-.52.64-.7.28-.2.6-.34 1-.43.38-.1.82-.14 1.3-.14h1.28v-.54c0-.21-.04-.4-.12-.56-.07-.17-.18-.3-.32-.42a1.43 1.43 0 0 0-.51-.27 2.2 2.2 0 0 0-.68-.1c-.23 0-.44.03-.63.09-.18.06-.33.14-.46.23-.13.1-.23.22-.3.35a.88.88 0 0 0-.1.42h-1.18c0-.25.07-.5.19-.74.13-.24.3-.46.54-.65.24-.2.52-.35.86-.47a3.88 3.88 0 0 1 2.23-.03c.33.1.62.24.86.43.25.2.44.43.58.72.14.29.21.62.21 1v3.2a4.56 4.56 0 0 0 .24 1.4v.1h-1.22Zm-2.08-.9a2.25 2.25 0 0 0 1.6-.65c.13-.13.22-.26.29-.4v-1.38h-1.1c-.68 0-1.21.1-1.6.3-.38.2-.56.52-.56.96a1.05 1.05 0 0 0 .77 1.09c.17.06.37.09.6.09Zm8.3.07a1.9 1.9 0 0 0 1.15-.38c.16-.12.29-.26.38-.42.1-.17.15-.34.15-.54h1.11c0 .31-.08.6-.24.88a2.5 2.5 0 0 1-.62.73 3.01 3.01 0 0 1-1.94.69 2.88 2.88 0 0 1-2.93-2.12c-.12-.42-.19-.85-.19-1.31v-.27c0-.45.07-.88.2-1.3.13-.41.33-.78.59-1.09.26-.32.58-.57.97-.76.4-.18.85-.28 1.37-.28a3.05 3.05 0 0 1 2 .73 2.33 2.33 0 0 1 .8 1.76h-1.12a1.56 1.56 0 0 0-1.02-1.4c-.2-.08-.42-.12-.66-.12-.37 0-.67.07-.92.22s-.45.34-.6.57c-.15.24-.26.5-.33.79-.06.3-.1.59-.1.88v.27c0 .3.04.6.1.9.07.29.18.55.32.79.16.23.36.42.6.57.25.14.56.22.93.22Zm7.66-7.7v1.66h2.62v.91h-2.62v3.73c0 .27.03.49.1.66.07.18.16.31.28.42.12.1.26.17.4.22.16.04.33.06.5.06a4.13 4.13 0 0 0 .79-.08l.36-.06.28-.06.16.83c-.1.06-.21.11-.35.16a4.76 4.76 0 0 1-2.39.08 1.81 1.81 0 0 1-1.15-1.14c-.1-.3-.16-.67-.16-1.09v-3.73h-1.8v-.9h1.8v-1.67h1.18Zm5.21 1.66h3.51v5.85h2.24V262h-5.75v-1.02h2.34v-4.83h-2.34v-1.02Zm2.19-1.8c0-.2.05-.36.17-.49.12-.13.3-.2.53-.2.23 0 .4.07.53.2.12.13.17.3.17.49s-.06.35-.17.47c-.12.13-.3.2-.53.2-.24 0-.42-.07-.53-.2a.68.68 0 0 1-.17-.47Zm5.1 5.17c0-.5.08-.95.22-1.38.14-.42.35-.8.62-1.1a3.01 3.01 0 0 1 2.29-1 3.02 3.02 0 0 1 2.28 1c.27.3.48.68.63 1.1.14.43.21.89.21 1.38v.14c0 .5-.07.96-.21 1.38-.15.42-.36.8-.63 1.1-.26.32-.59.56-.97.74-.39.18-.82.27-1.3.27-.5 0-.93-.1-1.32-.27a2.87 2.87 0 0 1-.98-.74 3.35 3.35 0 0 1-.62-1.1 4.26 4.26 0 0 1-.22-1.38v-.14Zm1.18.14c0 .34.04.66.12.97.08.3.2.58.36.8a1.75 1.75 0 0 0 1.47.76 1.7 1.7 0 0 0 1.46-.75c.16-.23.29-.5.37-.8.08-.32.12-.64.12-.98v-.14c0-.33-.05-.65-.13-.96-.08-.3-.2-.58-.37-.8a1.78 1.78 0 0 0-.6-.56c-.25-.14-.53-.21-.86-.21-.32 0-.6.07-.85.2-.24.14-.44.33-.6.56-.17.23-.29.5-.37.81-.08.3-.12.63-.12.96v.14Zm8.02-3.5.08 1c.25-.35.56-.63.92-.82.36-.2.77-.31 1.22-.31.36 0 .68.05.98.15.3.1.54.26.75.47.2.22.37.5.48.83.11.33.17.72.17 1.18V262h-1.18v-4.33c0-.31-.03-.57-.1-.78a1.16 1.16 0 0 0-.8-.8 2.23 2.23 0 0 0-.65-.09c-.4 0-.74.1-1.04.3-.3.2-.54.45-.71.77V262h-1.18v-6.87h1.06Zm11.31 5.04a.83.83 0 0 0-.08-.38.83.83 0 0 0-.28-.3c-.13-.1-.3-.19-.52-.26a5.18 5.18 0 0 0-.8-.22c-.4-.08-.76-.17-1.08-.29-.32-.11-.6-.25-.83-.4-.23-.17-.41-.35-.54-.56a1.61 1.61 0 0 1 0-1.53c.14-.25.32-.46.56-.65.24-.18.52-.32.85-.43a3.7 3.7 0 0 1 2.23 0c.33.12.62.27.86.47a2.03 2.03 0 0 1 .74 1.52h-1.18c0-.15-.03-.3-.11-.43a1.23 1.23 0 0 0-.32-.38c-.13-.11-.3-.2-.5-.27a2.38 2.38 0 0 0-1.3-.02c-.19.06-.34.13-.47.22-.12.1-.22.2-.28.33a.81.81 0 0 0-.1.38c0 .13.03.25.08.36.05.1.14.2.26.29.13.08.3.16.5.23l.8.2c.43.08.8.18 1.14.3.33.12.61.26.84.42.23.16.4.35.52.57.13.21.19.46.19.75 0 .3-.07.58-.21.83a1.9 1.9 0 0 1-.57.64c-.25.18-.54.31-.88.41a4.1 4.1 0 0 1-2.37-.04c-.37-.12-.68-.29-.93-.5-.25-.2-.44-.44-.58-.71-.13-.27-.2-.55-.2-.84h1.18c.02.24.08.44.2.6.1.17.25.3.41.4.17.1.36.18.56.22.2.04.4.06.6.06.5 0 .89-.09 1.18-.27.28-.18.43-.42.43-.72Zm5.35-7.24-.13 2.35h-.83v-3.04h.96v.7Zm2.26 0-.13 2.35h-.82v-3.04h.96v.7ZM103.5 278.51c0-.51.06-.98.19-1.41.13-.43.31-.8.55-1.11a2.46 2.46 0 0 1 2-.98c.42 0 .77.06 1.08.2.3.14.57.34.8.6v-3.56h1.17V282h-1.08l-.05-.72c-.22.28-.5.49-.82.63-.31.14-.68.22-1.1.22a2.39 2.39 0 0 1-2-1 3.57 3.57 0 0 1-.55-1.11c-.13-.43-.2-.89-.2-1.38v-.13Zm1.17.13c0 .34.04.65.11.95.07.3.18.57.33.8.15.23.34.4.58.54a1.96 1.96 0 0 0 1.38.13c.16-.05.3-.11.43-.2a1.79 1.79 0 0 0 .62-.71v-3.19c-.15-.28-.36-.5-.62-.69a1.63 1.63 0 0 0-.96-.27c-.33 0-.62.07-.85.2a1.7 1.7 0 0 0-.58.56c-.15.23-.26.5-.33.8-.07.3-.1.61-.1.95v.13Zm11.37 3.36c-.05-.09-.08-.2-.11-.33a4.55 4.55 0 0 1-.06-.42 3.11 3.11 0 0 1-1.44.8 2.92 2.92 0 0 1-1.63-.09 1.97 1.97 0 0 1-1.22-1.07 1.98 1.98 0 0 1-.17-.8 1.97 1.97 0 0 1 .86-1.7c.28-.18.61-.32 1-.41.39-.1.82-.14 1.3-.14h1.28v-.54c0-.21-.04-.4-.11-.56-.08-.17-.19-.3-.33-.42a1.44 1.44 0 0 0-.51-.27 2.2 2.2 0 0 0-.68-.1c-.23 0-.44.03-.62.09s-.34.14-.47.23c-.12.1-.22.22-.3.35a.88.88 0 0 0-.1.42h-1.18c0-.25.07-.5.2-.74.12-.24.3-.46.53-.65.24-.2.53-.35.86-.47a3.88 3.88 0 0 1 2.23-.03c.34.1.63.24.87.43.24.2.44.43.58.72.14.29.2.62.2 1v3.2a4.57 4.57 0 0 0 .25 1.4v.1h-1.23Zm-2.08-.9a2.25 2.25 0 0 0 1.61-.65c.12-.13.21-.26.28-.4v-1.38h-1.1c-.68 0-1.21.1-1.6.3-.37.2-.56.52-.56.96a1.05 1.05 0 0 0 .77 1.09c.17.06.38.09.6.09Zm8.16-7.63v1.66h2.61v.91h-2.62v3.73c0 .27.04.49.1.66.08.18.17.31.29.42.11.1.25.17.4.22.16.04.32.06.5.06a4.12 4.12 0 0 0 .78-.08l.37-.06.28-.06.16.83c-.1.06-.21.11-.35.16a4.73 4.73 0 0 1-2.39.08 1.82 1.82 0 0 1-1.15-1.14c-.11-.3-.16-.67-.16-1.09v-3.73h-1.8v-.9h1.8v-1.67h1.17Zm9.54 8.53c-.05-.09-.09-.2-.12-.33a4.23 4.23 0 0 1-.06-.42 3.05 3.05 0 0 1-2.07.88c-.37 0-.7-.06-1-.16a1.98 1.98 0 0 1-1.23-1.07 1.98 1.98 0 0 1-.15-.8c0-.38.07-.71.22-1 .15-.28.37-.51.64-.7.28-.19.6-.33 1-.42.38-.1.82-.14 1.3-.14h1.28v-.54c0-.21-.04-.4-.12-.56-.07-.17-.18-.3-.32-.42a1.43 1.43 0 0 0-.52-.27 2.2 2.2 0 0 0-.67-.1c-.23 0-.44.03-.63.09-.18.06-.34.14-.46.23-.13.1-.23.22-.3.35a.88.88 0 0 0-.1.42h-1.18c0-.25.07-.5.19-.74.13-.24.3-.46.54-.65.23-.2.52-.35.85-.47a3.88 3.88 0 0 1 2.23-.03c.34.1.63.24.87.43.25.2.44.43.58.72.14.29.21.62.21 1v3.2a4.56 4.56 0 0 0 .24 1.4v.1h-1.22Zm-2.08-.9a2.24 2.24 0 0 0 1.6-.65c.13-.13.22-.26.28-.4v-1.38h-1.09c-.68 0-1.22.1-1.6.3-.38.2-.57.52-.57.96 0 .17.03.33.09.47a1.05 1.05 0 0 0 .69.62c.17.06.37.09.6.09Zm10.5-2.66h-4.85v-.97h4.86v.97Zm5.71 3.69c-.48 0-.92-.09-1.33-.25a3.03 3.03 0 0 1-1.7-1.75 3.6 3.6 0 0 1-.25-1.32v-.27c0-.55.09-1.05.27-1.49a3.14 3.14 0 0 1 1.7-1.8 3.02 3.02 0 0 1 2.45.02c.38.16.69.4.93.7.25.3.43.66.55 1.07.12.41.18.86.18 1.33v.53h-4.9a2.4 2.4 0 0 0 .62 1.6 2.11 2.11 0 0 0 1.54.67 2.4 2.4 0 0 0 1.94-.93l.71.56a2.75 2.75 0 0 1-1.02.92 3.58 3.58 0 0 1-1.69.4Zm-.15-6.16a1.72 1.72 0 0 0-1.24.51c-.17.17-.32.37-.44.62-.11.24-.2.52-.24.84h3.7v-.1a2.57 2.57 0 0 0-.14-.67 1.85 1.85 0 0 0-.32-.6 1.64 1.64 0 0 0-1.32-.6Zm5.98-.84.08 1.02c.25-.36.56-.63.92-.83.37-.2.77-.31 1.22-.31.36 0 .69.05.98.15.3.1.55.26.75.47.21.22.37.5.48.83.11.33.17.72.17 1.18V282h-1.17v-4.33c0-.31-.04-.57-.1-.78a1.17 1.17 0 0 0-.8-.8c-.19-.06-.4-.09-.66-.09-.4 0-.74.1-1.04.3-.3.2-.53.45-.71.77V282h-1.18v-6.87h1.06Zm9.44 5.18.11.43.12-.43 1.92-5.18h1.2l-2.8 6.87h-.9l-2.82-6.87h1.2l1.97 5.18Zm10.78-3.26h-5.67v-1.02h5.67v1.02Zm0 2.63h-5.67v-1.01h5.67v1.01Zm4.25-6.74-.13 2.35h-.83v-3.04h.96v.7Zm2.26 0-.13 2.35h-.82l.01-2.25v-.79h.95v.7Zm8.01 7.24a.83.83 0 0 0-.08-.38.83.83 0 0 0-.28-.3c-.13-.1-.3-.19-.52-.26a5.16 5.16 0 0 0-.8-.22c-.4-.08-.76-.17-1.09-.29-.32-.11-.6-.25-.83-.4-.23-.17-.4-.35-.53-.56-.13-.22-.2-.47-.2-.75s.07-.54.2-.78c.14-.25.32-.46.56-.64.23-.19.52-.33.84-.44.33-.1.7-.16 1.09-.16.42 0 .8.06 1.14.17.34.11.63.26.86.46a2.03 2.03 0 0 1 .74 1.52h-1.17c0-.15-.04-.3-.11-.43a1.22 1.22 0 0 0-.32-.38c-.14-.11-.3-.2-.5-.27a2.38 2.38 0 0 0-1.3-.02 1.5 1.5 0 0 0-.47.22c-.13.1-.22.2-.28.33a.83.83 0 0 0-.02.74c.05.1.13.2.26.29.13.08.3.16.5.23l.8.2c.42.08.8.18 1.14.3.33.12.61.26.84.42.23.16.4.35.52.57.12.21.18.46.18.75 0 .3-.07.58-.2.83a1.9 1.9 0 0 1-.58.64c-.24.18-.54.31-.88.41a4.11 4.11 0 0 1-2.37-.04 3.1 3.1 0 0 1-.92-.5c-.25-.2-.45-.44-.58-.71-.13-.27-.2-.55-.2-.84h1.18a1.23 1.23 0 0 0 .6 1c.17.1.36.18.56.22.2.04.4.06.6.06.5 0 .9-.09 1.18-.27.29-.18.44-.42.44-.72Zm7.76 1.82c-.05-.09-.09-.2-.12-.33a4.55 4.55 0 0 1-.06-.42 3.05 3.05 0 0 1-2.07.88c-.36 0-.7-.06-1-.16a1.98 1.98 0 0 1-1.22-1.07 1.98 1.98 0 0 1-.16-.8c0-.38.07-.71.22-1 .15-.28.37-.51.64-.7.28-.19.6-.33 1-.42.38-.1.82-.14 1.3-.14h1.28v-.54c0-.21-.04-.4-.12-.56-.07-.17-.18-.3-.32-.42a1.43 1.43 0 0 0-.52-.27 2.2 2.2 0 0 0-.67-.1c-.23 0-.44.03-.63.09-.18.06-.33.14-.46.23-.13.1-.23.22-.3.35a.88.88 0 0 0-.1.42h-1.18c0-.25.07-.5.19-.74.13-.24.3-.46.54-.65.24-.2.52-.35.86-.47a3.88 3.88 0 0 1 2.23-.03c.33.1.62.24.86.43.25.2.44.43.58.72.14.29.21.62.21 1v3.2a4.56 4.56 0 0 0 .24 1.4v.1h-1.22Zm-2.08-.9a2.24 2.24 0 0 0 1.6-.65c.13-.13.22-.26.29-.4v-1.38h-1.1c-.68 0-1.21.1-1.6.3-.38.2-.57.52-.57.96 0 .17.03.33.09.47a1.05 1.05 0 0 0 .69.62c.17.06.37.09.6.09Zm6.43-5.97.08 1.02c.25-.36.55-.63.92-.83.36-.2.77-.31 1.22-.31.36 0 .68.05.97.15.3.1.55.26.76.47.2.22.37.5.48.83.11.33.17.72.17 1.18V282h-1.18v-4.33c0-.31-.03-.57-.1-.78a1.16 1.16 0 0 0-.8-.8c-.18-.06-.4-.09-.65-.09-.4 0-.74.1-1.04.3-.3.2-.54.45-.72.77V282h-1.17v-6.87h1.06Zm6.53 3.38c0-.51.06-.98.19-1.41.13-.43.31-.8.55-1.11a2.46 2.46 0 0 1 2-.98c.42 0 .77.06 1.08.2.3.14.57.34.8.6v-3.56h1.17V282h-1.08l-.05-.72c-.23.28-.5.49-.82.63-.31.14-.68.22-1.1.22a2.39 2.39 0 0 1-2-1 3.57 3.57 0 0 1-.55-1.11c-.13-.43-.2-.89-.2-1.38v-.13Zm1.17.13c0 .34.04.65.1.95.08.3.2.57.34.8.15.23.34.4.58.54a1.96 1.96 0 0 0 1.38.13c.15-.05.3-.11.43-.2a1.76 1.76 0 0 0 .62-.71v-3.19c-.16-.28-.36-.5-.62-.69a1.63 1.63 0 0 0-.96-.27c-.33 0-.62.07-.85.2a1.7 1.7 0 0 0-.58.56c-.15.23-.26.5-.33.8-.07.3-.1.61-.1.95v.13Zm12.68 0c0 .5-.06.95-.18 1.38-.12.42-.3.8-.52 1.1a2.45 2.45 0 0 1-2 1c-.45 0-.83-.07-1.16-.23-.32-.15-.6-.38-.82-.67l-.06.78h-1.08v-9.75h1.18v3.62c.22-.28.5-.5.81-.64a2.6 2.6 0 0 1 1.11-.23 2.42 2.42 0 0 1 2.02.98c.23.32.4.69.52 1.12.12.43.18.9.18 1.4v.14Zm-1.18-.13c0-.34-.03-.65-.1-.95a2.4 2.4 0 0 0-.31-.8 1.6 1.6 0 0 0-.56-.56c-.24-.13-.52-.2-.86-.2a1.8 1.8 0 0 0-1.02.3 2.12 2.12 0 0 0-.62.76v3a1.96 1.96 0 0 0 .63.76 1.67 1.67 0 0 0 1.02.31c.32 0 .6-.06.83-.2.23-.13.42-.31.56-.54.15-.23.26-.5.32-.8.08-.3.11-.61.11-.95v-.13Zm2.83 0c0-.5.08-.96.22-1.38.14-.43.35-.8.62-1.12a3.01 3.01 0 0 1 2.29-1 3.02 3.02 0 0 1 2.28 1c.27.32.48.69.62 1.12.15.42.22.88.22 1.37v.14c0 .5-.07.96-.22 1.38-.14.42-.35.8-.62 1.1-.26.32-.59.56-.97.74-.4.18-.82.27-1.3.27-.5 0-.93-.1-1.32-.27a2.87 2.87 0 0 1-.98-.74 3.35 3.35 0 0 1-.62-1.1 4.26 4.26 0 0 1-.22-1.38v-.14Zm1.18.13c0 .34.04.66.12.97.08.3.2.58.36.8a1.75 1.75 0 0 0 1.47.76 1.7 1.7 0 0 0 1.46-.75c.16-.23.28-.5.37-.8.07-.32.12-.64.12-.98v-.14c0-.33-.05-.65-.13-.96-.08-.3-.2-.58-.37-.8a1.78 1.78 0 0 0-.6-.56c-.25-.14-.53-.21-.86-.21-.33 0-.6.07-.85.2-.24.14-.44.33-.6.56-.17.23-.3.5-.37.81-.08.3-.12.63-.12.96v.14Zm9.8-.96 1.83-2.55h1.38l-2.56 3.4 2.63 3.47h-1.36l-1.9-2.62-1.9 2.62h-1.36l2.62-3.47-2.56-3.4h1.36l1.82 2.55Zm7.07-4.74-.13 2.35h-.83v-3.04h.96v.7Zm2.27 0-.14 2.35h-.82l.01-2.25v-.79h.95v.7Zm3.46 3.29v-1.21l5.6 2.4v.92l-5.6 2.41v-1.22l4.1-1.55.39-.1-.38-.13-4.1-1.52Zm-154.7 21.56-.34.1.34.12 3.88 1.5v1.25l-5.38-2.41v-.93l5.38-2.4v1.25l-3.88 1.52Zm7.88 5h-1.05l3.86-10.03h1.04l-3.85 10.03Zm10.82-2.61a.83.83 0 0 0-.08-.38.83.83 0 0 0-.28-.3c-.13-.1-.3-.19-.52-.26a5.12 5.12 0 0 0-.8-.22c-.4-.08-.76-.17-1.08-.29a3.7 3.7 0 0 1-.83-.4c-.23-.17-.41-.35-.54-.56a1.61 1.61 0 0 1 0-1.53c.14-.25.32-.46.56-.64.24-.19.52-.33.84-.44.33-.1.7-.16 1.09-.16.42 0 .8.06 1.14.17.34.11.63.26.87.46a2.03 2.03 0 0 1 .74 1.52h-1.18c0-.15-.03-.3-.11-.43a1.24 1.24 0 0 0-.32-.38c-.13-.11-.3-.2-.5-.27a2.4 2.4 0 0 0-1.3-.02c-.19.06-.34.13-.47.22-.12.1-.22.2-.28.33a.84.84 0 0 0-.02.74c.05.1.14.2.26.29.13.08.3.16.5.23l.8.2c.43.08.8.18 1.14.3.33.12.62.26.84.42.23.16.4.35.52.57a1.68 1.68 0 0 1-.03 1.58 1.9 1.9 0 0 1-.56.64c-.25.18-.54.31-.89.41a4.12 4.12 0 0 1-2.36-.04c-.37-.12-.68-.29-.93-.5-.25-.2-.44-.44-.58-.71-.13-.27-.2-.55-.2-.84h1.18c.02.24.08.44.2.6.1.17.25.3.41.4.17.1.35.18.56.22.2.04.4.06.6.06.5 0 .89-.09 1.18-.27.28-.18.43-.42.43-.72Zm6.17 1a1.89 1.89 0 0 0 1.16-.39c.16-.12.28-.26.37-.42.1-.17.15-.34.16-.54h1.1c0 .31-.08.6-.23.88a2.5 2.5 0 0 1-.62.73 3 3 0 0 1-1.94.69 2.9 2.9 0 0 1-2.93-2.12c-.12-.42-.19-.85-.19-1.31v-.27c0-.45.07-.88.2-1.3.13-.41.32-.78.58-1.09.26-.32.59-.57.98-.76.39-.18.84-.27 1.36-.27a3.05 3.05 0 0 1 2 .72 2.33 2.33 0 0 1 .8 1.76h-1.11a1.56 1.56 0 0 0-1.02-1.4c-.2-.08-.43-.12-.67-.12-.36 0-.67.07-.92.22-.24.15-.44.34-.6.57-.15.24-.26.5-.32.79-.07.3-.1.59-.1.88v.27c0 .3.03.6.1.9.06.29.17.55.32.79.15.23.35.42.6.57.25.14.55.22.92.22Zm9.38-6.18a4.52 4.52 0 0 1 1.21.17l-.16 1.15a5.63 5.63 0 0 0-1.3-.15c-.54 0-.99.13-1.33.38-.34.25-.59.6-.75 1.05v4.4h-1.18v-6.87h1.12l.05 1.1c.28-.38.62-.68 1-.9.4-.21.85-.32 1.34-.32Zm3.5.13h3.5v5.85h2.25V302h-5.75v-1.02h2.33v-4.83h-2.33v-1.02Zm2.18-1.8c0-.2.06-.36.17-.49.12-.13.3-.2.53-.2.24 0 .41.06.53.2.12.13.18.3.18.49s-.06.35-.18.48c-.12.12-.3.19-.53.19-.23 0-.41-.07-.53-.2a.68.68 0 0 1-.17-.47Zm11.24 5.31c0 .5-.06.95-.18 1.38-.12.42-.3.8-.52 1.1a2.44 2.44 0 0 1-2 1c-.42 0-.8-.06-1.11-.2a2.32 2.32 0 0 1-.82-.58v3.3h-1.18v-9.5h1.08l.05.74c.23-.28.5-.5.83-.65.32-.15.7-.23 1.13-.23a2.42 2.42 0 0 1 2.02.98c.23.32.4.69.52 1.12.12.43.18.9.18 1.4v.14Zm-1.18-.13c0-.34-.04-.65-.11-.95-.08-.3-.19-.57-.35-.8a1.69 1.69 0 0 0-.58-.56c-.24-.13-.52-.2-.85-.2-.38 0-.7.09-.95.27-.26.17-.46.4-.61.67v3.3c.15.28.35.5.6.68.26.16.58.25.97.25.33 0 .61-.07.85-.2.23-.14.43-.33.58-.56.15-.24.26-.5.34-.8.07-.31.11-.63.11-.97v-.13Zm5.97-5.04v1.66h2.61v.91h-2.61v3.73c0 .27.03.49.1.66.07.18.16.31.28.42.12.1.25.17.4.22.16.04.33.06.5.06a4.13 4.13 0 0 0 .79-.08l.36-.06.28-.06.16.83c-.1.06-.21.11-.35.16a4.76 4.76 0 0 1-2.39.08 1.82 1.82 0 0 1-1.15-1.14c-.1-.3-.16-.67-.16-1.09v-3.73h-1.8v-.9h1.8v-1.67h1.18Zm5.05 2.76v-1.21l5.6 2.4v.92l-5.6 2.41v-1.22l4.1-1.55.39-.1-.38-.13-4.1-1.52Z" fill="#FBFCFE"/><defs><filter id="a" x="0" y="0" width="605" height="444" filterUnits="userSpaceOnUse" color-interpolation-filters="sRGB"><feFlood flood-opacity="0" result="BackgroundImageFix"/><feColorMatrix in="SourceAlpha" values="0 0 0 0 0 0 0 0 0 0 0 0 0 0 0 0 0 0 127 0" result="hardAlpha"/><feOffset dx="25" dy="25"/><feGaussianBlur stdDeviation="40"/><feColorMatrix values="0 0 0 0 0.212302 0 0 0 0 0.32521 0 0 0 0 0.419299 0 0 0 0.300727 0"/><feBlend in2="BackgroundImageFix" result="effect1_dropShadow_0_5118"/><feBlend in="SourceGraphic" in2="effect1_dropShadow_0_5118" result="shape"/></filter></defs></svg>