<svg width="722" height="660" fill="none" xmlns="http://www.w3.org/2000/svg"><g filter="url(#a)"><path fill-rule="evenodd" clip-rule="evenodd" d="M391.78 55.57H583c18.34 0 33.2 14.23 33.2 31.8v435.26c0 17.57-14.86 31.8-33.2 31.8H391.78c-18.34 0-33.21-14.23-33.21-31.8V87.38c0-17.57 14.87-31.8 33.2-31.8Z" fill="#213648"/></g><path opacity=".6" fill-rule="evenodd" clip-rule="evenodd" d="M583.75 55H390.92c-9 .55-17.3 4.66-24.9 12.32 4.88-4.26 13.6-9.98 25.13-9.98h192.37c11.53 0 20.25 5.72 25.14 9.98-7.6-7.66-15.9-11.77-24.91-12.32Z" fill="url(#b)" fill-opacity=".65"/><path opacity=".75" fill-rule="evenodd" clip-rule="evenodd" d="M611 517.67V89.98c0-11.47-4.22-15.72-6.73-18.44-2.52-2.72-2.63-4.11.99-2.06 3.61 2.06 10.84 8.05 10.84 20.5v427.7c0 12.44-7.23 18.43-10.84 20.49-3.62 2.06-3.51.67-1-2.06 2.52-2.72 6.74-6.96 6.74-18.44Z" fill="url(#c)"/><path opacity=".75" fill-rule="evenodd" clip-rule="evenodd" d="M363.67 517.67V89.98c0-11.47 4.22-15.72 6.73-18.44 2.52-2.72 2.63-4.11-.99-2.06-3.61 2.06-10.84 8.05-10.84 20.5v427.7c0 12.44 7.23 18.43 10.84 20.49 3.62 2.06 3.51.67 1-2.06-2.52-2.72-6.74-6.96-6.74-18.44Z" fill="url(#d)"/><path fill-rule="evenodd" clip-rule="evenodd" d="M356 158.56c0-1.1.9-2 2-2h.96a2 2 0 0 1 2 2v60.35a2 2 0 0 1-2 2H358a2 2 0 0 1-2-2v-60.35ZM613.53 211.04c0-1.1.9-2 2-2h.97a2 2 0 0 1 2 2V254a2 2 0 0 1-2 2h-.97a2 2 0 0 1-2-2v-42.95Z" fill="#2E423C"/><path fill-rule="evenodd" clip-rule="evenodd" d="M464.68 67.44h-74.41c-11.1 0-19.2 7.57-19.2 17.45v422.39c0 12.88 12.5 24.29 26.64 24.29h179.34c13.61 0 26.64-11.5 26.64-24.3V86.04c0-11.84-8.8-18.52-19.2-18.59H508.9c-.28.05-5.47 2.19-7.67 7.57-2.2 5.38-6.6 9.67-11.44 9.67h-5.62c-2.3 0-8.35-2.23-11.41-9.67-3.06-7.44-7.8-7.52-8.08-7.57Z" fill="#36536B"/><mask id="e" style="mask-type:alpha" maskUnits="userSpaceOnUse" x="371" y="67" width="233" height="465"><path fill-rule="evenodd" clip-rule="evenodd" d="M464.68 67.44h-74.41c-11.1 0-19.2 7.57-19.2 17.45v422.39c0 12.88 12.5 24.29 26.64 24.29h179.34c13.61 0 26.64-11.5 26.64-24.3V86.04c0-11.84-8.8-18.52-19.2-18.59H508.9c-.28.05-5.47 2.19-7.67 7.57-2.2 5.38-6.6 9.67-11.44 9.67h-5.62c-2.3 0-8.35-2.23-11.41-9.67-3.06-7.44-7.8-7.52-8.08-7.57Z" fill="#fff"/></mask><g filter="url(#f)"><rect x="399" y="197" width="176" height="191" rx="5" fill="#FBFCFE"/></g><path d="M432.6 315v-9.4h3.18c.67 0 1.27.11 1.79.34.52.22.94.56 1.24 1 .3.44.45.99.45 1.63 0 .63-.14 1.16-.42 1.6-.28.44-.67.78-1.17 1a4.1 4.1 0 0 1-1.73.35h-2.1V315h-1.24Zm1.23-4.5h2.08c.65 0 1.17-.17 1.57-.53.4-.36.61-.85.61-1.47s-.2-1.1-.62-1.42a2.56 2.56 0 0 0-1.62-.48h-2.02v3.9Zm8.43 4.63c-.43 0-.82-.08-1.15-.23-.33-.15-.6-.38-.79-.67a1.91 1.91 0 0 1-.28-1.05c0-.75.26-1.3.78-1.66a4.64 4.64 0 0 1 2.5-.59l1.2-.03v-.53c0-.41-.12-.74-.36-.97-.25-.25-.63-.37-1.15-.37-.39 0-.73.1-1.02.28-.3.17-.48.46-.57.87h-1.06c.03-.44.15-.8.37-1.1.22-.31.53-.54.92-.7.4-.15.87-.23 1.42-.23.58 0 1.07.08 1.45.25.4.16.68.4.87.72.2.32.3.72.3 1.19V315h-1.03l-.09-1.26c-.26.52-.59.89-1 1.1-.39.19-.83.29-1.31.29Zm.36-.87c.23 0 .45-.04.67-.12.23-.08.44-.2.62-.33.19-.14.33-.3.44-.47.12-.18.17-.36.18-.55v-1.15l-1 .02c-.51 0-.94.06-1.29.15-.34.1-.6.25-.77.45-.17.2-.26.47-.26.8 0 .38.13.68.4.89.26.2.6.31 1.01.31Zm5.47 2.88c-.4 0-.67-.02-.82-.08l-.22-.08v-.78h.69c.25.02.45 0 .62-.04.16-.05.3-.1.4-.18.1-.07.17-.15.22-.25l.14-.25.23-.64-2.62-6.56h1.21l1.99 5.19 1.96-5.2h1.18l-2.83 7.24c-.18.42-.37.75-.59 1-.21.23-.45.4-.71.5-.26.09-.55.13-.85.13Zm6.17-2.14v-6.72h1.15v.97c.19-.3.44-.55.77-.77.32-.22.75-.33 1.27-.33a2.38 2.38 0 0 1 1.44.5c.21.16.38.36.5.6a2.38 2.38 0 0 1 2.05-1.1c.23 0 .47.04.73.1.25.08.49.2.7.39.23.17.4.42.54.74s.21.73.21 1.23V315h-1.2v-4.28c0-.4-.07-.72-.2-.94-.13-.22-.3-.38-.52-.47-.2-.1-.43-.14-.67-.14-.2 0-.42.04-.66.12a1.2 1.2 0 0 0-.84 1.21v4.5h-1.2v-4.63c0-.26-.07-.48-.21-.66a1.31 1.31 0 0 0-.53-.4c-.2-.1-.42-.14-.63-.14-.22 0-.46.04-.69.14-.23.09-.42.23-.58.43-.16.2-.24.45-.24.77V315h-1.2Zm12-3.08c0 .42.07.8.2 1.16.15.34.37.61.65.81.3.2.65.31 1.09.31.43 0 .8-.1 1.1-.3.31-.2.51-.49.6-.86h1.14c-.08.45-.27.83-.55 1.15-.28.3-.62.55-1.02.7-.4.16-.81.24-1.25.24-.63 0-1.18-.14-1.65-.41a2.85 2.85 0 0 1-1.12-1.18 3.9 3.9 0 0 1-.4-1.84c0-.7.12-1.32.36-1.85.24-.54.6-.95 1.05-1.25.47-.3 1.02-.45 1.67-.45.63 0 1.17.14 1.6.4.45.28.78.67 1 1.16.23.5.35 1.09.35 1.77v.44h-4.82Zm0-.81h3.66c0-.39-.06-.74-.2-1.04a1.59 1.59 0 0 0-.6-.74c-.26-.18-.6-.27-1-.27a1.72 1.72 0 0 0-1.66 1.08c-.13.31-.2.63-.2.97Zm6.37 3.89v-6.72h1.16v.97a2.11 2.11 0 0 1 1.15-.92c.28-.1.6-.15.96-.15.42 0 .81.09 1.17.25.36.17.64.44.86.8.21.35.32.81.32 1.38V315h-1.2v-4.28c0-.52-.14-.9-.42-1.16a1.5 1.5 0 0 0-1.06-.38c-.3 0-.6.05-.86.14-.26.1-.47.25-.64.45-.16.2-.25.44-.25.74V315h-1.2Zm10.5-5.84h-1.52v4.18c0 .23.03.41.07.52.06.11.14.18.26.21s.28.05.5.05h.73v.8a4.8 4.8 0 0 1-1 .11 2.5 2.5 0 0 1-1.08-.19 1.08 1.08 0 0 1-.54-.55c-.1-.25-.15-.56-.15-.92v-4.21h-1.09v-.88h1.13l.29-1.96h.88v1.95h1.52v.89Zm7.03 5.97c-.62 0-1.16-.13-1.63-.4a2.7 2.7 0 0 1-1.08-1.17 4.23 4.23 0 0 1-.38-1.9c0-.7.12-1.31.36-1.84s.58-.94 1.04-1.23c.47-.3 1.03-.44 1.69-.44.62 0 1.15.14 1.61.4.46.28.81.67 1.07 1.2.25.52.37 1.16.37 1.92 0 .68-.11 1.28-.35 1.8-.23.52-.57.93-1.03 1.22-.45.3-1 .44-1.67.44Zm0-.95c.4 0 .74-.1 1.02-.3.27-.2.49-.5.63-.88s.21-.84.21-1.36c0-.48-.06-.91-.19-1.3-.12-.38-.32-.69-.6-.91a1.63 1.63 0 0 0-1.07-.34c-.41 0-.75.1-1.04.3-.28.2-.5.5-.64.88a3.9 3.9 0 0 0-.21 1.37c0 .47.06.9.2 1.29.12.38.32.69.6.91.28.23.64.34 1.09.34Zm8.07-5.9v.88h-1.63V315h-1.21v-5.84h-1.42v-.88h1.42v-1.04c0-.53.13-.94.4-1.22.28-.28.69-.42 1.23-.42h1.27v.85h-1c-.28 0-.46.08-.56.22-.1.15-.15.37-.15.67v.94h1.65Zm7.88 6.85a5 5 0 0 1-2.74-.68 2.7 2.7 0 0 1-1.21-2.1l1.97-.04c.1.43.33.76.67.99.35.22.78.33 1.3.33.32 0 .6-.05.83-.15.24-.1.43-.24.57-.42.14-.18.2-.38.2-.6 0-.35-.1-.6-.32-.77a2.61 2.61 0 0 0-1.02-.42l-1.54-.33a3.33 3.33 0 0 1-1.73-.85c-.42-.43-.64-1-.65-1.73 0-.59.15-1.1.47-1.52.33-.44.77-.77 1.32-1a4.82 4.82 0 0 1 3.72.03c.52.25.92.59 1.2 1.02.28.42.41.9.4 1.4l-1.91.04c-.06-.41-.2-.74-.42-.98-.22-.24-.58-.36-1.08-.36-.26 0-.49.03-.7.09-.2.05-.37.13-.52.24-.15.1-.26.22-.34.35a.98.98 0 0 0-.1.47c0 .28.08.5.26.65.2.16.54.3 1.05.44l1.52.37c.85.2 1.46.55 1.84 1.04.38.5.57 1.1.57 1.8 0 .55-.15 1.02-.44 1.42-.3.4-.72.72-1.26.94-.54.22-1.18.33-1.91.33Zm-.81-10.88h1.64v1.7h-1.64v-1.7Zm-.04 10.3h1.64v1.7h-1.63v-1.7Zm9.03.6a4 4 0 0 1-1.64-.34 3.2 3.2 0 0 1-1.24-.95 2.6 2.6 0 0 1-.54-1.45h1.8c.08.37.26.66.53.9.26.22.6.33 1 .33.46 0 .85-.1 1.2-.32.33-.2.59-.55.76-1.01.17-.46.23-1.07.18-1.82a1.9 1.9 0 0 1-.5.6c-.22.17-.47.3-.75.4a3.86 3.86 0 0 1-2.65-.22 2.84 2.84 0 0 1-1.16-1.03 2.95 2.95 0 0 1-.42-1.58c0-.62.15-1.17.44-1.65.3-.48.71-.86 1.24-1.13a4 4 0 0 1 1.86-.4c.8 0 1.48.18 2.06.56.58.38 1.02.92 1.33 1.61.31.7.47 1.52.47 2.46 0 1.12-.16 2.05-.48 2.8-.32.75-.77 1.3-1.37 1.68-.6.37-1.3.55-2.12.55Zm.17-5.03a1.92 1.92 0 0 0 1.38-.63.85.85 0 0 0 .24-.57c0-.42-.06-.78-.2-1.08-.13-.3-.33-.53-.57-.7a1.5 1.5 0 0 0-.85-.23c-.3 0-.57.07-.8.2-.24.14-.42.34-.56.59-.13.25-.2.54-.2.87 0 .5.14.87.43 1.14.29.27.66.4 1.13.4Zm5 4.88v-1.42a2.67 2.67 0 0 1 .98-2.14c.29-.26.61-.49.96-.69l1.05-.55c.35-.17.67-.34.96-.52.3-.18.53-.37.71-.59.18-.21.27-.47.27-.77 0-.37-.13-.68-.4-.92a1.53 1.53 0 0 0-1.07-.36c-.47 0-.87.14-1.2.41-.33.28-.54.69-.62 1.24h-1.8c0-.6.14-1.14.4-1.63.28-.49.69-.87 1.23-1.16a4.34 4.34 0 0 1 2.04-.43c.7 0 1.3.12 1.81.36.52.24.91.57 1.19 1 .27.42.41.91.41 1.48a2.66 2.66 0 0 1-.95 2.1c-.28.24-.6.46-.94.64-.34.18-.68.35-1.02.5-.34.16-.65.32-.94.49-.29.16-.52.34-.69.54-.17.2-.26.45-.26.74v.08h4.79v1.6h-6.9Zm11.62-9.53c1.12 0 2 .42 2.65 1.25.64.84.97 2.04.97 3.6s-.32 2.75-.96 3.58a3.16 3.16 0 0 1-2.66 1.24 3.19 3.19 0 0 1-2.67-1.24c-.63-.83-.95-2.02-.95-3.57 0-1.04.14-1.93.44-2.65s.71-1.27 1.25-1.64a3.3 3.3 0 0 1 1.93-.57Zm0 8.12c.56 0 .97-.25 1.23-.75s.4-1.34.4-2.51a6.1 6.1 0 0 0-.4-2.58 1.3 1.3 0 0 0-1.23-.78c-.56 0-.97.26-1.24.78-.27.53-.4 1.38-.4 2.58 0 1.17.13 2 .4 2.5.26.5.68.76 1.24.76Zm8.88-7.99h1.86v5.73h1.45v1.59h-1.45V315H540l.01-2.08h-4.33v-1.56l4.29-5.76Zm-2.53 5.73H540v-3.45l-2.57 3.45Zm-98.12 14.95V333h-1.17v-6.72h1.17Zm.02-2.67v1.25h-1.23v-1.25h1.23Zm4.38 9.52c-.47 0-.9-.07-1.31-.21-.4-.15-.73-.38-1-.69-.26-.3-.43-.7-.5-1.19h1.1c.06.27.17.49.32.67.16.17.36.3.6.4.24.08.5.12.78.12.45 0 .81-.08 1.1-.25a.85.85 0 0 0 .4-.78.8.8 0 0 0-.21-.6 1.3 1.3 0 0 0-.67-.32l-1.4-.35a3.08 3.08 0 0 1-1.3-.6 1.45 1.45 0 0 1-.48-1.17c0-.4.09-.74.28-1.04.19-.3.47-.54.86-.71.38-.17.85-.26 1.42-.26.73 0 1.31.16 1.76.5.45.32.69.8.7 1.43h-1.06a1.1 1.1 0 0 0-.43-.76c-.25-.2-.57-.29-.98-.29-.43 0-.78.09-1.05.26s-.4.44-.4.8c0 .23.1.42.28.56.2.14.48.25.85.34l1.34.34c.31.08.57.19.77.32.2.14.36.29.48.45a1.83 1.83 0 0 1 .33 1.03c0 .42-.1.77-.3 1.07-.21.3-.5.53-.9.69-.37.16-.84.24-1.38.24Zm9.52-6.98c.48 0 .91.1 1.3.28.39.18.7.44.94.78.25.34.4.74.46 1.2h-1.06a1.5 1.5 0 0 0-.83-1.11c-.23-.12-.5-.18-.8-.18-.58 0-1.05.2-1.4.62-.37.42-.55 1.05-.55 1.91 0 .78.17 1.4.5 1.87.33.46.82.7 1.47.7.3 0 .57-.07.8-.18a1.56 1.56 0 0 0 .82-1.11h1.04a2.4 2.4 0 0 1-1.4 1.93 3 3 0 0 1-1.29.27 3.2 3.2 0 0 1-1.6-.4 2.74 2.74 0 0 1-1.1-1.17 4.12 4.12 0 0 1-.4-1.9c0-.7.13-1.31.37-1.83.24-.53.59-.94 1.05-1.24.46-.3 1.02-.44 1.68-.44Zm6.9 6.98c-.62 0-1.16-.13-1.62-.4a2.71 2.71 0 0 1-1.08-1.17 4.24 4.24 0 0 1-.38-1.9c0-.7.11-1.31.35-1.84s.59-.94 1.05-1.23c.46-.3 1.02-.44 1.68-.44.62 0 1.16.14 1.61.4.46.28.82.67 1.07 1.2.25.52.38 1.16.38 1.92 0 .68-.12 1.28-.35 1.8-.23.52-.58.93-1.03 1.22-.45.3-1.01.44-1.68.44Zm0-.95c.4 0 .75-.1 1.02-.3.28-.2.49-.5.63-.88.15-.38.22-.84.22-1.36 0-.48-.06-.91-.2-1.3a1.9 1.9 0 0 0-.6-.91 1.63 1.63 0 0 0-1.07-.34c-.4 0-.75.1-1.03.3-.28.2-.5.5-.65.88a3.9 3.9 0 0 0-.2 1.37c0 .47.06.9.19 1.29.13.38.33.69.6.91.28.23.65.34 1.1.34Zm4.53.82v-6.72h1.16v.97c.18-.3.44-.55.76-.77.33-.22.75-.33 1.27-.33a2.38 2.38 0 0 1 1.44.5c.22.16.38.36.5.6a2.38 2.38 0 0 1 2.05-1.1c.23 0 .48.04.73.1.26.08.5.2.71.39.22.17.4.42.54.74s.2.73.2 1.23V333h-1.2v-4.28c0-.4-.07-.72-.2-.94-.13-.22-.3-.38-.51-.47-.2-.1-.43-.14-.67-.14-.2 0-.43.04-.66.12a1.2 1.2 0 0 0-.84 1.21v4.5h-1.2v-4.63c0-.26-.07-.48-.22-.66a1.3 1.3 0 0 0-.52-.4c-.21-.1-.42-.14-.63-.14-.23 0-.46.04-.7.14-.22.09-.42.23-.58.43-.15.2-.23.45-.23.77V333h-1.2Zm11.15 2.1v-8.82h1.2v1.17l.3-.44a2.5 2.5 0 0 1 1.1-.74c.23-.08.51-.12.82-.12.53 0 1 .12 1.41.37.42.24.74.62.97 1.12.23.5.34 1.14.34 1.9 0 .78-.11 1.43-.34 1.96a2.6 2.6 0 0 1-.96 1.21 2.7 2.7 0 0 1-1.52.42 2.28 2.28 0 0 1-1.4-.45 2.58 2.58 0 0 1-.71-.9v3.31h-1.21Zm3.1-2.9c.55 0 1-.22 1.35-.64.35-.42.53-1.08.53-1.97a3.1 3.1 0 0 0-.48-1.83 1.61 1.61 0 0 0-1.4-.68c-.63 0-1.1.24-1.42.7a3.1 3.1 0 0 0-.49 1.8c0 .49.08.93.22 1.32.14.4.35.7.64.94.28.24.63.35 1.04.35Zm6.21.88a2.2 2.2 0 0 1-.88-.14c-.22-.1-.4-.24-.51-.4-.12-.18-.2-.37-.24-.59a3.91 3.91 0 0 1-.06-.68v-7.93h1.18v7.81c0 .34.07.6.2.76.13.17.32.27.56.28l.36.01v.78a2.22 2.22 0 0 1-.6.1Zm2.82-3.16c0 .42.07.8.21 1.16.14.34.36.61.65.81.28.2.65.31 1.08.31.43 0 .8-.1 1.1-.3.32-.2.52-.49.6-.86h1.14a2.3 2.3 0 0 1-.55 1.15c-.28.3-.62.55-1.02.7-.4.16-.81.24-1.24.24-.63 0-1.19-.14-1.66-.41a2.84 2.84 0 0 1-1.12-1.18 3.9 3.9 0 0 1-.4-1.84c0-.7.12-1.32.36-1.85.24-.54.6-.95 1.06-1.25.46-.3 1.02-.45 1.67-.45.63 0 1.16.14 1.6.4.44.28.77.67 1 1.16.22.5.34 1.09.34 1.77v.44h-4.82Zm.01-.81h3.65c0-.39-.06-.74-.2-1.04a1.6 1.6 0 0 0-.59-.74c-.26-.18-.6-.27-1-.27a1.73 1.73 0 0 0-1.67 1.08c-.13.31-.2.63-.19.97Zm9.56-1.95H496v4.18c0 .23.02.41.07.52.05.11.13.18.25.21s.29.05.5.05h.73v.8a4.78 4.78 0 0 1-1 .11c-.46 0-.82-.06-1.07-.19a1.08 1.08 0 0 1-.55-.55c-.1-.25-.14-.56-.14-.92v-4.21h-1.1v-.88h1.13l.3-1.96h.88v1.95h1.5v.89Zm2.3 2.76c0 .42.08.8.21 1.16.15.34.36.61.65.81.29.2.65.31 1.08.31.43 0 .8-.1 1.1-.3.32-.2.52-.49.6-.86h1.14c-.08.45-.26.83-.54 1.15-.28.3-.62.55-1.02.7-.4.16-.82.24-1.25.24-.63 0-1.18-.14-1.66-.41a2.85 2.85 0 0 1-1.12-1.18 3.9 3.9 0 0 1-.4-1.84c0-.7.12-1.32.36-1.85.25-.54.6-.95 1.06-1.25.46-.3 1.02-.45 1.67-.45.63 0 1.17.14 1.6.4.44.28.77.67 1 1.16.23.5.34 1.09.34 1.77v.44h-4.81Zm.01-.81h3.66c0-.39-.07-.74-.2-1.04a1.59 1.59 0 0 0-.6-.74c-.26-.18-.6-.27-1-.27a1.72 1.72 0 0 0-1.66 1.08c-.14.31-.2.63-.2.97Zm8.79 4.02c-.87 0-1.56-.3-2.07-.9-.52-.6-.77-1.47-.77-2.62 0-.7.1-1.3.3-1.82.21-.52.52-.93.93-1.21.4-.29.91-.43 1.52-.43a2.7 2.7 0 0 1 1.5.43 2.24 2.24 0 0 1 .7.77v-4h1.21V333h-.92l-.13-1.38a2.13 2.13 0 0 1-.61.95c-.17.17-.4.3-.67.4-.27.1-.6.16-1 .16Zm.21-.92c.68 0 1.17-.2 1.46-.62.3-.42.44-1.1.44-2.03 0-.53-.07-.98-.2-1.34a1.62 1.62 0 0 0-.6-.84c-.27-.2-.63-.3-1.07-.3-.56 0-1 .2-1.35.6-.35.4-.52 1.02-.52 1.88 0 .84.15 1.49.46 1.95.32.47.78.7 1.38.7Zm9.75.92c-.43 0-.82-.08-1.15-.23-.33-.15-.6-.38-.79-.67a1.91 1.91 0 0 1-.28-1.05c0-.75.26-1.3.78-1.66a4.64 4.64 0 0 1 2.5-.59l1.2-.03v-.53c0-.41-.12-.74-.36-.97-.25-.25-.63-.37-1.15-.37-.39 0-.73.1-1.02.28-.3.17-.48.46-.57.87h-1.06c.03-.44.15-.8.37-1.1.22-.31.53-.54.93-.7.4-.15.87-.23 1.4-.23.6 0 1.08.08 1.46.25.4.16.68.4.87.72.2.32.3.72.3 1.19V333h-1.03l-.09-1.26c-.26.52-.59.89-.99 1.1-.4.19-.84.29-1.32.29Zm.36-.87c.23 0 .45-.04.67-.12.23-.08.43-.2.62-.33.19-.14.33-.3.44-.47.12-.18.17-.36.18-.55v-1.15l-1 .02c-.51 0-.94.06-1.29.15-.34.1-.6.25-.77.45-.17.2-.26.47-.26.8 0 .38.13.68.4.89.26.2.6.31 1.01.31Zm5.02.74v-6.72h1.16v.97a2.1 2.1 0 0 1 1.15-.92c.28-.1.6-.15.96-.15.42 0 .81.09 1.17.25.36.17.64.44.86.8.21.35.32.81.32 1.38V333h-1.2v-4.28c0-.52-.14-.9-.42-1.16a1.5 1.5 0 0 0-1.06-.38c-.3 0-.59.05-.85.14-.27.1-.48.25-.65.45-.16.2-.25.44-.25.74V333h-1.2Zm9.83.13c-.87 0-1.57-.3-2.08-.9-.5-.6-.76-1.47-.76-2.62 0-.7.1-1.3.3-1.82.21-.52.52-.93.92-1.21.41-.29.92-.43 1.53-.43a2.7 2.7 0 0 1 1.5.43 2.24 2.24 0 0 1 .7.77v-4h1.2V333h-.9l-.14-1.38a2.19 2.19 0 0 1-.61.95c-.17.17-.4.3-.67.4-.27.1-.6.16-1 .16Zm.21-.92c.68 0 1.17-.2 1.46-.62.3-.42.44-1.1.44-2.03 0-.53-.07-.98-.2-1.34a1.63 1.63 0 0 0-.6-.84c-.27-.2-.63-.3-1.07-.3-.56 0-1 .2-1.36.6-.34.4-.51 1.02-.51 1.88 0 .84.15 1.49.46 1.95.32.47.78.7 1.38.7Zm-114.97 20.88v-8.81h1.2l.01 1.17a2.54 2.54 0 0 1 1.38-1.18c.25-.08.52-.12.83-.12.54 0 1.01.12 1.42.37.41.24.73.62.96 1.12.23.5.35 1.14.35 1.9 0 .78-.12 1.43-.34 1.96a2.6 2.6 0 0 1-.96 1.21 2.7 2.7 0 0 1-1.53.42 2.29 2.29 0 0 1-1.4-.45 2.58 2.58 0 0 1-.7-.9v3.31h-1.22Zm3.1-2.9c.55 0 1-.2 1.36-.63.35-.42.52-1.08.52-1.97a3.1 3.1 0 0 0-.48-1.83 1.61 1.61 0 0 0-1.4-.68c-.63 0-1.1.24-1.42.7a3.1 3.1 0 0 0-.48 1.8c0 .49.07.93.21 1.32.15.4.36.7.64.94s.63.35 1.05.35Zm4.52.81v-6.72h1.15v1.3a1.98 1.98 0 0 1 1.17-1.27 2.22 2.22 0 0 1 1.1-.14c.1.01.18.03.23.06v1.17a2 2 0 0 0-.5-.08c-.28-.02-.53 0-.76.05-.24.05-.44.13-.62.25a1.3 1.3 0 0 0-.42.49c-.1.19-.15.43-.15.71V351h-1.2Zm7.46.13c-.62 0-1.16-.13-1.63-.4a2.7 2.7 0 0 1-1.07-1.17 4.23 4.23 0 0 1-.39-1.9c0-.7.12-1.31.36-1.84s.59-.94 1.05-1.23c.46-.3 1.02-.44 1.68-.44.62 0 1.16.14 1.61.4.46.28.82.67 1.07 1.2.25.52.38 1.16.38 1.92 0 .68-.12 1.28-.36 1.8-.23.52-.57.93-1.02 1.22-.45.3-1.01.44-1.68.44Zm0-.95c.4 0 .74-.1 1.02-.3.28-.2.49-.5.63-.88s.21-.84.21-1.36c0-.48-.06-.91-.18-1.3-.13-.38-.33-.69-.6-.91a1.63 1.63 0 0 0-1.08-.34c-.4 0-.75.1-1.03.3-.28.2-.5.5-.65.88a3.9 3.9 0 0 0-.21 1.37c0 .47.06.9.2 1.29.12.38.33.69.6.91.28.23.64.34 1.09.34Zm7.2-6.03c.49 0 .92.1 1.3.28.4.18.7.44.95.78s.4.74.46 1.2h-1.07a1.49 1.49 0 0 0-.27-.65 1.5 1.5 0 0 0-.55-.47c-.23-.11-.5-.17-.8-.17-.58 0-1.05.2-1.41.62-.36.42-.54 1.05-.54 1.91 0 .78.16 1.4.5 1.87.33.46.82.7 1.46.7.31 0 .58-.07.8-.18a1.55 1.55 0 0 0 .82-1.11H444a2.4 2.4 0 0 1-1.4 1.93 3 3 0 0 1-1.3.27 3.2 3.2 0 0 1-1.6-.4 2.74 2.74 0 0 1-1.1-1.17 4.12 4.12 0 0 1-.39-1.9c0-.7.12-1.31.36-1.83.24-.53.6-.94 1.05-1.24.47-.3 1.03-.44 1.69-.44Zm5.1 3.77c0 .42.06.8.2 1.16.14.34.36.61.65.81.29.2.65.31 1.08.31.43 0 .8-.1 1.1-.3.32-.2.52-.49.6-.86h1.14a2.3 2.3 0 0 1-.54 1.15c-.29.3-.63.55-1.02.7-.4.16-.82.24-1.25.24-.63 0-1.18-.14-1.66-.41a2.84 2.84 0 0 1-1.12-1.18 3.9 3.9 0 0 1-.4-1.84c0-.7.12-1.32.36-1.85.25-.54.6-.95 1.06-1.25.46-.3 1.02-.45 1.67-.45.63 0 1.16.14 1.6.4.44.28.77.67 1 1.16.23.5.34 1.09.34 1.77v.44h-4.82Zm0-.81h3.65c0-.39-.06-.74-.2-1.04a1.6 1.6 0 0 0-.59-.74c-.26-.18-.6-.27-1-.27a1.72 1.72 0 0 0-1.66 1.08c-.14.31-.2.63-.2.97Zm8.7 4.02c-.47 0-.9-.07-1.31-.21-.4-.15-.73-.38-1-.69a2.3 2.3 0 0 1-.5-1.19h1.1c.06.27.17.49.32.67.16.17.36.3.6.4.24.08.5.12.78.12.45 0 .81-.08 1.1-.25a.85.85 0 0 0 .4-.78.8.8 0 0 0-.21-.6 1.3 1.3 0 0 0-.67-.32l-1.4-.35a3.08 3.08 0 0 1-1.3-.6 1.45 1.45 0 0 1-.48-1.17c0-.4.09-.74.28-1.04.19-.3.48-.54.86-.71.38-.17.85-.26 1.42-.26.73 0 1.31.16 1.76.5.45.32.69.8.7 1.43h-1.06a1.1 1.1 0 0 0-.43-.76c-.25-.2-.57-.29-.98-.29-.43 0-.78.09-1.05.26s-.4.44-.4.8c0 .23.1.42.28.56.2.14.47.25.85.34l1.34.34c.32.08.57.19.77.32.2.14.37.29.48.45a1.83 1.83 0 0 1 .33 1.03c0 .42-.1.77-.3 1.07-.21.3-.5.53-.9.69-.37.16-.84.24-1.38.24Zm6.43 0c-.46 0-.9-.07-1.3-.21-.4-.15-.73-.38-1-.69a2.3 2.3 0 0 1-.5-1.19h1.1c.06.27.16.49.32.67.16.17.36.3.6.4.24.08.5.12.78.12.45 0 .81-.08 1.09-.25a.85.85 0 0 0 .42-.78.8.8 0 0 0-.23-.6 1.3 1.3 0 0 0-.67-.32l-1.39-.35a3.08 3.08 0 0 1-1.3-.6 1.45 1.45 0 0 1-.48-1.17c0-.4.08-.74.28-1.04.19-.3.47-.54.85-.71.38-.17.86-.26 1.43-.26.73 0 1.31.16 1.76.5.45.32.68.8.7 1.43h-1.06a1.1 1.1 0 0 0-.43-.76c-.25-.2-.57-.29-.99-.29-.42 0-.77.09-1.04.26s-.4.44-.4.8c0 .23.09.42.28.56.2.14.47.25.85.34l1.34.34c.31.08.57.19.77.32.2.14.36.29.48.45a1.83 1.83 0 0 1 .33 1.03c0 .42-.1.77-.31 1.07-.2.3-.5.53-.88.69-.39.16-.85.24-1.4.24Zm5.03-3.21c0 .42.07.8.2 1.16.15.34.36.61.65.81.3.2.65.31 1.09.31.43 0 .8-.1 1.1-.3.31-.2.51-.49.6-.86h1.14c-.09.45-.27.83-.55 1.15-.28.3-.62.55-1.02.7-.4.16-.81.24-1.25.24-.63 0-1.18-.14-1.66-.41a2.85 2.85 0 0 1-1.11-1.18 3.92 3.92 0 0 1-.4-1.84c0-.7.11-1.32.36-1.85.24-.54.6-.95 1.05-1.25.46-.3 1.02-.45 1.67-.45.63 0 1.17.14 1.6.4.44.28.78.67 1 1.16.23.5.35 1.09.35 1.77v.44h-4.82Zm0-.81h3.66c0-.39-.07-.74-.2-1.04a1.59 1.59 0 0 0-.6-.74c-.26-.18-.6-.27-1-.27a1.72 1.72 0 0 0-1.66 1.08c-.13.31-.2.63-.2.97Zm8.8 4.02c-.88 0-1.57-.3-2.08-.9-.51-.6-.77-1.47-.77-2.62 0-.7.1-1.3.3-1.82.21-.52.52-.93.93-1.21.4-.29.91-.43 1.52-.43a2.7 2.7 0 0 1 1.5.43 2.24 2.24 0 0 1 .7.77v-4h1.21V351h-.91l-.13-1.38a2.19 2.19 0 0 1-.61.95c-.18.17-.4.3-.68.4-.26.1-.6.16-.99.16Zm.2-.92c.69 0 1.17-.2 1.46-.62.3-.42.44-1.1.44-2.03 0-.53-.07-.98-.2-1.34a1.63 1.63 0 0 0-.6-.84c-.27-.2-.62-.3-1.07-.3-.55 0-1 .2-1.35.6-.35.4-.52 1.02-.52 1.88 0 .84.15 1.49.47 1.95.31.47.77.7 1.38.7Zm10.28.92c-.47 0-.9-.07-1.3-.21-.4-.15-.74-.38-1-.69a2.3 2.3 0 0 1-.5-1.19h1.09c.06.27.17.49.32.67.17.17.36.3.6.4.24.08.5.12.78.12.45 0 .82-.08 1.1-.25a.85.85 0 0 0 .41-.78.8.8 0 0 0-.22-.6 1.3 1.3 0 0 0-.67-.32l-1.4-.35a3.09 3.09 0 0 1-1.3-.6 1.45 1.45 0 0 1-.48-1.17c0-.4.1-.74.28-1.04.2-.3.48-.54.86-.71.38-.17.85-.26 1.42-.26.73 0 1.32.16 1.76.5.46.32.69.8.7 1.43h-1.05a1.1 1.1 0 0 0-.44-.76c-.24-.2-.57-.29-.98-.29-.43 0-.78.09-1.05.26-.26.17-.4.44-.4.8 0 .23.1.42.29.56.19.14.47.25.84.34l1.35.34c.3.08.56.19.76.32.2.14.37.29.49.45a1.83 1.83 0 0 1 .33 1.03 1.82 1.82 0 0 1-1.2 1.76c-.38.16-.85.24-1.4.24Zm6.64 0a3.5 3.5 0 0 1-1-.15c-.3-.1-.58-.24-.82-.44a2.06 2.06 0 0 1-.76-1.7v-4.56h1.2v4.44c0 .44.13.8.4 1.06.27.28.68.41 1.23.41.5 0 .89-.12 1.19-.38.3-.26.45-.64.45-1.16v-4.37h1.2V351h-.95l-.13-1.29a1.76 1.76 0 0 1-1.13 1.28c-.27.1-.57.14-.88.14Zm7.54-6.98c.48 0 .92.1 1.3.28.39.18.7.44.95.78.24.34.4.74.46 1.2h-1.07a1.49 1.49 0 0 0-.27-.65c-.14-.2-.32-.35-.55-.47-.23-.11-.5-.17-.81-.17-.58 0-1.04.2-1.4.62-.36.42-.54 1.05-.54 1.91 0 .78.16 1.4.49 1.87.33.46.82.7 1.47.7.3 0 .57-.07.8-.18a1.54 1.54 0 0 0 .82-1.11h1.04a2.4 2.4 0 0 1-1.4 1.93 3 3 0 0 1-1.29.27 3.2 3.2 0 0 1-1.6-.4 2.74 2.74 0 0 1-1.1-1.17 4.13 4.13 0 0 1-.4-1.9c0-.7.13-1.31.37-1.83.24-.53.6-.94 1.05-1.24.46-.3 1.03-.44 1.68-.44Zm6.91 0c.48 0 .92.1 1.3.28.39.18.7.44.94.78.25.34.4.74.46 1.2h-1.06a1.49 1.49 0 0 0-.27-.65 1.5 1.5 0 0 0-.56-.47c-.23-.11-.5-.17-.8-.17-.58 0-1.05.2-1.4.62-.37.42-.55 1.05-.55 1.91 0 .78.17 1.4.5 1.87.33.46.82.7 1.47.7.3 0 .57-.07.8-.18a1.55 1.55 0 0 0 .82-1.11h1.04a2.4 2.4 0 0 1-1.4 1.93 3 3 0 0 1-1.29.27 3.2 3.2 0 0 1-1.6-.4 2.74 2.74 0 0 1-1.1-1.17 4.12 4.12 0 0 1-.4-1.9c0-.7.13-1.31.37-1.83.24-.53.59-.94 1.05-1.24.46-.3 1.02-.44 1.68-.44Zm5.09 3.77c0 .42.07.8.2 1.16.15.34.37.61.65.81.3.2.65.31 1.09.31.42 0 .8-.1 1.1-.3.31-.2.51-.49.6-.86h1.14a2.3 2.3 0 0 1-.55 1.15c-.28.3-.62.55-1.02.7-.4.16-.82.24-1.25.24-.63 0-1.18-.14-1.65-.41a2.84 2.84 0 0 1-1.12-1.18 3.9 3.9 0 0 1-.4-1.84c0-.7.12-1.32.36-1.85.24-.54.6-.95 1.05-1.25.46-.3 1.02-.45 1.67-.45.63 0 1.17.14 1.6.4.44.28.78.67 1 1.16.23.5.35 1.09.35 1.77v.44h-4.82Zm0-.81h3.66c0-.39-.07-.74-.2-1.04a1.6 1.6 0 0 0-.6-.74c-.26-.18-.6-.27-1-.27a1.72 1.72 0 0 0-1.66 1.08c-.13.31-.2.63-.2.97Zm8.7 4.02c-.47 0-.9-.07-1.3-.21-.4-.15-.74-.38-1-.69a2.3 2.3 0 0 1-.5-1.19h1.1c.05.27.16.49.32.67.16.17.36.3.6.4.23.08.5.12.77.12.45 0 .82-.08 1.1-.25a.85.85 0 0 0 .41-.78.8.8 0 0 0-.22-.6 1.3 1.3 0 0 0-.67-.32l-1.39-.35a3.08 3.08 0 0 1-1.3-.6 1.45 1.45 0 0 1-.49-1.17c0-.4.1-.74.28-1.04.2-.3.48-.54.86-.71.38-.17.86-.26 1.43-.26.72 0 1.31.16 1.76.5.45.32.68.8.7 1.43h-1.06a1.1 1.1 0 0 0-.44-.76c-.24-.2-.57-.29-.98-.29-.43 0-.78.09-1.05.26-.26.17-.4.44-.4.8 0 .23.1.42.29.56.19.14.47.25.84.34l1.35.34c.31.08.57.19.77.32.2.14.36.29.48.45a1.83 1.83 0 0 1 .33 1.03c0 .42-.1.77-.31 1.07-.2.3-.5.53-.89.69-.38.16-.84.24-1.39.24Zm6.44 0c-.47 0-.9-.07-1.3-.21-.4-.15-.74-.38-1-.69a2.3 2.3 0 0 1-.5-1.19h1.09c.06.27.17.49.32.67.16.17.36.3.6.4.24.08.5.12.78.12.45 0 .82-.08 1.1-.25a.85.85 0 0 0 .41-.78.8.8 0 0 0-.22-.6 1.3 1.3 0 0 0-.67-.32l-1.4-.35a3.08 3.08 0 0 1-1.3-.6 1.45 1.45 0 0 1-.48-1.17c0-.4.09-.74.28-1.04.2-.3.48-.54.86-.71.38-.17.86-.26 1.42-.26.73 0 1.32.16 1.76.5.46.32.69.8.7 1.43h-1.05a1.1 1.1 0 0 0-.44-.76c-.24-.2-.57-.29-.98-.29-.43 0-.78.09-1.05.26s-.4.44-.4.8c0 .23.1.42.29.56.19.14.47.25.84.34l1.35.34c.3.08.56.19.76.32.2.14.37.29.49.45a1.83 1.83 0 0 1 .33 1.03c0 .42-.1.77-.32 1.07-.2.3-.5.53-.88.69-.38.16-.84.24-1.4.24Zm7.96-6.85v.88h-1.63V351h-1.2v-5.84h-1.43v-.88h1.42v-1.04c0-.53.14-.94.41-1.22.27-.28.68-.42 1.22-.42h1.27v.85h-1c-.27 0-.46.08-.56.22-.1.15-.15.37-.15.67v.94h1.65Zm3.86 6.85a3.5 3.5 0 0 1-1-.15c-.3-.1-.58-.24-.82-.44a2.06 2.06 0 0 1-.76-1.7v-4.56h1.2v4.44c0 .44.13.8.4 1.06.27.28.68.41 1.23.41.5 0 .9-.12 1.19-.38.3-.26.46-.64.46-1.16v-4.37h1.2V351h-.96l-.13-1.29a1.76 1.76 0 0 1-1.13 1.28c-.27.1-.57.14-.88.14Zm6.65-.05a2.2 2.2 0 0 1-.88-.14c-.22-.1-.4-.24-.51-.4-.12-.18-.2-.37-.25-.59a3.91 3.91 0 0 1-.05-.68v-7.93h1.18v7.81c0 .34.06.6.2.76.13.17.31.27.55.28l.37.01v.78a2.22 2.22 0 0 1-.6.1Zm3.58 0a2.2 2.2 0 0 1-.88-.14 1.25 1.25 0 0 1-.75-.99 3.91 3.91 0 0 1-.06-.68v-7.93h1.18v7.81c0 .34.06.6.2.76.13.17.32.27.55.28l.37.01v.78a2.22 2.22 0 0 1-.6.1Zm2.49 2.06c-.4 0-.67-.02-.81-.08l-.23-.08v-.78h.69c.25.02.46 0 .62-.04.17-.05.3-.1.4-.18.1-.07.17-.15.23-.25.05-.09.1-.17.13-.25l.24-.64-2.63-6.56h1.21l1.99 5.19 1.97-5.2h1.17l-2.83 7.24a3.4 3.4 0 0 1-.59 1c-.2.23-.45.4-.71.5-.26.09-.54.13-.85.13Z" fill="#36536B"/><circle opacity=".25" cx="486" cy="261" r="28" fill="#BA4270"/><path d="m477 262.7 4.58 4.57L494.85 254" stroke="#BA4270" stroke-width="3"/><rect x="422" y="373" width="131" height="30" rx="15" fill="#BA4270"/><path d="M468.57 384.05h.99a62.45 62.45 0 0 1 1.39 0c.96.03 1.75.2 2.36.52a3 3 0 0 1 1.34 1.36c.28.58.43 1.26.43 2.06 0 .82-.16 1.53-.46 2.13-.3.6-.76 1.06-1.38 1.39-.61.33-1.4.49-2.35.49h-2.32v-7.95Zm1.62 1.3v5.35h.74c.45 0 .87-.09 1.24-.26a2 2 0 0 0 .9-.87c.22-.4.33-.93.33-1.6 0-.62-.1-1.12-.3-1.5-.2-.4-.48-.68-.85-.86-.36-.18-.8-.26-1.3-.26h-.76Zm7.63.96V392h-1.53v-5.69h1.53Zm.02-2.26v1.45h-1.57v-1.45h1.57Zm3.6 8.06c-.4 0-.78-.06-1.14-.2a2.08 2.08 0 0 1-1.41-1.71h1.38c.05.2.14.37.26.49.13.11.28.2.44.25.16.05.31.07.46.07.3 0 .55-.05.74-.14.2-.1.29-.25.29-.45a.45.45 0 0 0-.17-.37c-.11-.1-.3-.16-.55-.21l-1-.21c-.5-.1-.91-.29-1.21-.54-.3-.26-.46-.62-.47-1.09 0-.34.09-.65.27-.92.18-.27.45-.48.8-.64.36-.16.8-.24 1.31-.24.7 0 1.26.16 1.68.47.42.3.64.74.65 1.3h-1.35a.74.74 0 0 0-.33-.5c-.17-.13-.4-.19-.66-.19-.28 0-.5.05-.69.15a.48.48 0 0 0-.27.45c0 .15.07.27.22.36.15.08.38.16.68.22l.93.2c.32.08.57.19.77.33.2.13.36.27.47.43a1.61 1.61 0 0 1-.01 1.88c-.2.26-.48.46-.84.6-.36.14-.78.21-1.25.21Zm3.43-.11v-5.69h1.58v.8a2.08 2.08 0 0 1 2.96-.5c.18.14.32.3.43.5.18-.25.42-.47.72-.64.3-.18.63-.27 1-.27.21 0 .43.04.65.1a1.66 1.66 0 0 1 1.04.97c.11.27.17.6.17.98V392h-1.6v-3.55c0-.23-.05-.41-.14-.55a.74.74 0 0 0-.34-.3 1.15 1.15 0 0 0-.87 0 .88.88 0 0 0-.38.27.74.74 0 0 0-.15.49V392h-1.6v-3.7a.7.7 0 0 0-.14-.43.86.86 0 0 0-.34-.26 1 1 0 0 0-.42-.1c-.15 0-.3.03-.44.1a.87.87 0 0 0-.37.28.74.74 0 0 0-.15.47V392h-1.6Zm11.39-5.69V392h-1.54v-5.69h1.54Zm.01-2.26v1.45h-1.56v-1.45h1.56Zm3.6 8.06c-.39 0-.77-.06-1.14-.2a2.07 2.07 0 0 1-1.41-1.71h1.4c.04.2.13.37.25.49.13.11.27.2.43.25.17.05.32.07.47.07.3 0 .55-.05.74-.14.19-.1.28-.25.28-.45a.45.45 0 0 0-.17-.37c-.1-.1-.29-.16-.55-.21l-1-.21c-.5-.1-.9-.29-1.2-.54-.31-.26-.47-.62-.47-1.09 0-.34.08-.65.26-.92.19-.27.46-.48.81-.64.36-.16.8-.24 1.31-.24.7 0 1.26.16 1.68.47.42.3.64.74.64 1.3h-1.34a.74.74 0 0 0-.33-.5c-.17-.13-.4-.19-.66-.19-.28 0-.51.05-.7.15a.48.48 0 0 0-.26.45c0 .15.07.27.22.36.15.08.37.16.68.22l.93.2c.31.08.57.19.77.33a1.48 1.48 0 0 1 .7.91 1.61 1.61 0 0 1-.24 1.4c-.2.26-.49.46-.84.6-.36.14-.78.21-1.25.21Zm5.62 0c-.4 0-.78-.06-1.15-.2a2.08 2.08 0 0 1-1.41-1.71h1.39c.05.2.13.37.26.49.13.11.27.2.43.25.16.05.32.07.47.07.3 0 .55-.05.74-.14.19-.1.28-.25.28-.45a.45.45 0 0 0-.17-.37c-.1-.1-.29-.16-.55-.21l-1-.21c-.5-.1-.9-.29-1.2-.54-.31-.26-.47-.62-.48-1.09 0-.34.1-.65.27-.92.19-.27.46-.48.81-.64.36-.16.8-.24 1.31-.24.7 0 1.26.16 1.68.47.42.3.63.74.64 1.3h-1.34a.74.74 0 0 0-.33-.5c-.18-.13-.4-.19-.66-.19-.28 0-.51.05-.7.15a.48.48 0 0 0-.26.45c0 .15.07.27.22.36.14.08.37.16.68.22l.92.2c.32.08.58.19.78.33.2.13.36.27.47.43.1.16.18.32.22.48a1.61 1.61 0 0 1-.23 1.4c-.2.26-.49.46-.85.6-.36.14-.77.21-1.24.21Z" fill="#FBFCFE"/><g filter="url(#g)"><path fill-rule="evenodd" clip-rule="evenodd" d="M88.78 55.57H280c18.34 0 33.2 14.23 33.2 31.8v435.26c0 17.57-14.86 31.8-33.2 31.8H88.78c-18.34 0-33.21-14.23-33.21-31.8V87.38c0-17.57 14.87-31.8 33.2-31.8Z" fill="#213648"/></g><path opacity=".6" fill-rule="evenodd" clip-rule="evenodd" d="M280.75 55H87.92c-9 .55-17.3 4.66-24.9 12.32 4.88-4.26 13.6-9.98 25.13-9.98h192.37c11.53 0 20.25 5.72 25.14 9.98-7.6-7.66-15.9-11.77-24.91-12.32Z" fill="url(#h)" fill-opacity=".65"/><path opacity=".75" fill-rule="evenodd" clip-rule="evenodd" d="M308 517.67V89.98c0-11.47-4.22-15.72-6.73-18.44-2.52-2.72-2.63-4.11.99-2.06 3.61 2.06 10.84 8.05 10.84 20.5v427.7c0 12.44-7.23 18.43-10.84 20.49-3.62 2.06-3.51.67-1-2.06 2.52-2.72 6.74-6.96 6.74-18.44Z" fill="url(#i)"/><path opacity=".75" fill-rule="evenodd" clip-rule="evenodd" d="M60.67 517.67V89.98c0-11.47 4.22-15.72 6.74-18.44 2.51-2.72 2.62-4.11-1-2.06-3.61 2.06-10.84 8.05-10.84 20.5v427.7c0 12.44 7.23 18.43 10.84 20.49 3.62 2.06 3.51.67 1-2.06-2.52-2.72-6.74-6.96-6.74-18.44Z" fill="url(#j)"/><path fill-rule="evenodd" clip-rule="evenodd" d="M53 158.56c0-1.1.9-2 2-2h.96a2 2 0 0 1 2 2v60.35a2 2 0 0 1-2 2H55a2 2 0 0 1-2-2v-60.35ZM310.54 211.04c0-1.1.9-2 2-2h.96a2 2 0 0 1 2 2V254a2 2 0 0 1-2 2h-.96a2 2 0 0 1-2-2v-42.95Z" fill="#2E423C"/><path fill-rule="evenodd" clip-rule="evenodd" d="M161.68 67.44H87.27c-11.1 0-19.2 7.57-19.2 17.45v422.39c0 12.88 12.5 24.29 26.64 24.29h179.34c13.61 0 26.64-11.5 26.64-24.3V86.04c0-11.84-8.8-18.52-19.2-18.59H205.9c-.28.05-5.47 2.19-7.67 7.57-2.2 5.38-6.6 9.67-11.44 9.67h-5.62c-2.3 0-8.35-2.23-11.41-9.67-3.06-7.44-7.8-7.52-8.08-7.57Z" fill="#EDF3F8"/><mask id="k" style="mask-type:alpha" maskUnits="userSpaceOnUse" x="68" y="67" width="233" height="465"><path fill-rule="evenodd" clip-rule="evenodd" d="M161.68 67.44H87.27c-11.1 0-19.2 7.57-19.2 17.45v422.39c0 12.88 12.5 24.29 26.64 24.29h179.34c13.61 0 26.64-11.5 26.64-24.3V86.04c0-11.84-8.8-18.52-19.2-18.59H205.9c-.28.05-5.47 2.19-7.67 7.57-2.2 5.38-6.6 9.67-11.44 9.67h-5.62c-2.3 0-8.35-2.23-11.41-9.67-3.06-7.44-7.8-7.52-8.08-7.57Z" fill="#fff"/></mask><g mask="url(#k)"><g filter="url(#l)"><rect x="83" y="228" width="204" height="40" rx="5" fill="#FBFCFE"/></g><path opacity=".7" d="M99.95 244.77h.93V252h-.92v-7.23Zm5.22 2.73H104v3.22c0 .18.02.32.06.4.04.09.1.14.2.16.08.03.21.04.37.04h.57v.62l-.3.06c-.12.02-.28.03-.47.03-.36 0-.63-.05-.83-.15a.83.83 0 0 1-.41-.43 1.89 1.89 0 0 1-.12-.7v-3.25h-.84v-.67h.87l.22-1.5h.68v1.5h1.17v.67Zm1.77 2.13c0 .33.05.62.16.89.11.26.28.47.5.63.22.16.5.23.83.23.33 0 .61-.07.85-.22.24-.16.4-.38.46-.67h.88c-.07.35-.2.64-.42.88a2.1 2.1 0 0 1-.79.55c-.3.12-.63.18-.96.18-.48 0-.9-.1-1.27-.31a2.2 2.2 0 0 1-.86-.91 3 3 0 0 1-.31-1.41c0-.55.09-1.03.28-1.44.18-.4.45-.72.8-.96.36-.22.8-.34 1.3-.34.48 0 .89.1 1.23.31.33.22.59.51.76.9.18.38.27.83.27 1.35v.34h-3.7Zm0-.63h2.82c0-.3-.05-.56-.15-.8-.1-.23-.26-.42-.46-.56-.2-.14-.46-.21-.77-.21a1.32 1.32 0 0 0-1.28.83c-.1.24-.16.49-.15.75Zm4.9 3v-5.17h.89v.75c.14-.23.34-.43.59-.6.25-.16.57-.25.97-.25a1.83 1.83 0 0 1 1.11.38c.17.13.3.28.38.46.16-.25.38-.45.65-.6.28-.16.59-.24.93-.24.18 0 .37.03.56.09.2.05.38.15.55.28.17.14.3.33.41.58.11.24.16.56.16.94V252h-.93v-3.29c0-.31-.05-.56-.15-.72a.84.84 0 0 0-.4-.37c-.15-.07-.32-.1-.5-.1-.17 0-.34.03-.52.09s-.33.17-.46.32a.92.92 0 0 0-.19.61V252h-.92v-3.56c0-.2-.05-.37-.16-.51-.1-.14-.24-.24-.4-.31-.17-.07-.33-.1-.49-.1-.17 0-.35.03-.53.1-.18.07-.33.18-.45.34a.92.92 0 0 0-.18.58V252h-.92Zm12.88-7.18-1.09 7.2-.57-.09 1.1-7.18.56.07Zm2.05 0-1.09 7.2-.57-.09 1.1-7.18.56.07Zm.42 4.27v.56h-4.95v-.56h4.95Zm.32-2.05v.56h-4.95v-.56h4.95Zm3.38-2.37c.78 0 1.4.32 1.87.95.47.62.7 1.55.7 2.78 0 1.22-.23 2.15-.7 2.78-.46.62-1.09.93-1.88.93-.79 0-1.42-.31-1.88-.93a4.6 4.6 0 0 1-.7-2.77c0-.82.11-1.5.33-2.06.2-.56.5-.98.9-1.26.38-.28.84-.42 1.36-.42Zm0 6.64c.52 0 .9-.23 1.17-.68.27-.46.4-1.2.4-2.22 0-1.05-.13-1.8-.4-2.26-.27-.47-.66-.7-1.17-.7-.51 0-.9.23-1.18.7a4.64 4.64 0 0 0-.41 2.25c0 1.03.13 1.77.4 2.22.28.46.67.69 1.2.69Zm5.98-6.64c.78 0 1.4.32 1.87.95.47.62.7 1.55.7 2.78 0 1.22-.23 2.15-.7 2.78-.46.62-1.09.93-1.88.93-.8 0-1.42-.31-1.88-.93a4.6 4.6 0 0 1-.7-2.77c0-.82.11-1.5.32-2.06.22-.56.52-.98.9-1.26.39-.28.84-.42 1.37-.42Zm0 6.64c.51 0 .9-.23 1.17-.68.27-.46.4-1.2.4-2.22 0-1.05-.14-1.8-.4-2.26-.27-.47-.66-.7-1.18-.7-.5 0-.9.23-1.18.7a4.65 4.65 0 0 0-.4 2.25c0 1.03.13 1.77.4 2.22.28.46.67.69 1.19.69Zm4.84.69v-5.75h-1.4v-.61c.44 0 .77-.03 1.01-.1a.91.91 0 0 0 .51-.28c.1-.13.16-.3.17-.49h.66V252h-.95Z" fill="#36536B"/><path d="M250.13 252.13a5 5 0 0 1-2.75-.68 2.7 2.7 0 0 1-1.2-2.1l1.97-.03c.1.42.33.75.67.98.35.22.78.33 1.3.33.31 0 .59-.05.82-.15.25-.1.44-.24.58-.42.13-.18.2-.38.2-.6 0-.35-.1-.6-.33-.78a2.61 2.61 0 0 0-1.02-.41l-1.54-.33a3.33 3.33 0 0 1-1.72-.85c-.43-.43-.65-1-.66-1.73 0-.59.16-1.1.48-1.52.32-.44.76-.77 1.32-1a4.82 4.82 0 0 1 3.72.03c.52.25.91.59 1.2 1.02.27.42.4.9.4 1.4l-1.92.04c-.06-.42-.2-.74-.41-.98-.22-.24-.58-.36-1.08-.36-.26 0-.5.03-.7.09-.2.05-.38.13-.52.24-.15.1-.26.22-.34.35a.98.98 0 0 0-.11.47c0 .28.09.5.27.65.19.16.54.3 1.05.44l1.51.37c.86.2 1.47.55 1.85 1.05.38.49.57 1.09.57 1.8 0 .54-.15 1-.45 1.41-.3.4-.71.72-1.25.94-.54.22-1.18.33-1.91.33Zm-.82-10.88h1.65v1.7h-1.65v-1.7Zm-.03 10.3h1.64v1.7h-1.64v-1.7Zm5.73.45v-1.42a2.67 2.67 0 0 1 .97-2.14c.3-.26.62-.49.96-.69l1.06-.55c.35-.17.67-.34.96-.52.3-.18.53-.37.7-.59.19-.22.27-.47.27-.77 0-.37-.13-.68-.4-.92a1.53 1.53 0 0 0-1.06-.36c-.48 0-.88.14-1.2.41-.34.28-.54.69-.62 1.24h-1.81c0-.6.15-1.14.41-1.63.28-.49.68-.87 1.23-1.16a4.34 4.34 0 0 1 2.04-.43c.7 0 1.3.12 1.81.36s.9.57 1.18 1c.28.42.42.91.42 1.48a2.66 2.66 0 0 1-.95 2.1c-.29.24-.6.46-.94.64-.35.18-.69.35-1.03.5-.34.16-.65.32-.94.49-.28.16-.51.34-.68.54-.18.2-.26.45-.26.74v.08h4.79v1.6h-6.9Zm11.44.14a4 4 0 0 1-1.63-.33 3.2 3.2 0 0 1-1.25-.95c-.32-.42-.5-.9-.53-1.45h1.8c.08.37.25.66.52.9.27.22.6.33 1.02.33a1.9 1.9 0 0 0 1.95-1.33c.17-.47.23-1.07.18-1.82a1.9 1.9 0 0 1-.5.6c-.22.17-.47.3-.76.4a3.86 3.86 0 0 1-2.65-.22 2.83 2.83 0 0 1-1.16-1.03 2.94 2.94 0 0 1-.41-1.58 3.05 3.05 0 0 1 1.68-2.78 4 4 0 0 1 1.85-.4c.8 0 1.49.18 2.06.56.59.38 1.03.92 1.34 1.62.31.69.47 1.5.47 2.44 0 1.13-.17 2.06-.49 2.81-.31.75-.77 1.3-1.36 1.68-.6.37-1.3.55-2.13.55Zm.17-5.02a1.93 1.93 0 0 0 1.38-.63.85.85 0 0 0 .25-.57c0-.42-.06-.78-.2-1.08-.14-.3-.33-.53-.57-.7a1.51 1.51 0 0 0-.86-.23c-.3 0-.56.07-.8.2-.23.14-.42.34-.55.59-.13.25-.2.54-.2.87 0 .5.14.87.43 1.15.29.26.66.4 1.12.4Z" fill="#36536B"/><g filter="url(#m)"><rect x="83" y="276" width="204" height="40" rx="5" fill="#FBFCFE"/></g><path opacity=".7" d="M99.95 292.77h.93V300h-.92v-7.23Zm5.22 2.74H104v3.21c0 .18.02.32.06.4.04.09.1.14.2.17.08.02.21.03.37.03h.57v.62l-.3.06c-.12.02-.28.02-.47.02-.36 0-.63-.04-.83-.14a.83.83 0 0 1-.41-.43 1.89 1.89 0 0 1-.12-.7v-3.25h-.84v-.67h.87l.22-1.5h.68v1.5h1.17v.68Zm1.77 2.12c0 .33.05.62.16.89.11.26.28.47.5.63.22.16.5.24.83.24.33 0 .61-.08.85-.24.24-.15.4-.37.46-.66h.88c-.07.35-.2.64-.42.88a2.1 2.1 0 0 1-.79.55c-.3.12-.63.18-.96.18-.48 0-.9-.1-1.27-.31a2.2 2.2 0 0 1-.86-.91 3 3 0 0 1-.31-1.42c0-.54.09-1.01.28-1.42.18-.42.45-.74.8-.97.36-.22.8-.34 1.3-.34.48 0 .89.1 1.23.31.33.21.59.51.76.9.18.38.27.83.27 1.35v.34h-3.7Zm0-.63h2.82c0-.3-.05-.56-.15-.8-.1-.24-.26-.42-.46-.56-.2-.14-.46-.21-.77-.21a1.32 1.32 0 0 0-1.28.83c-.1.24-.16.49-.15.75Zm4.9 3v-5.17h.89v.75c.14-.23.34-.43.59-.6.25-.17.57-.25.97-.25a1.83 1.83 0 0 1 1.11.38c.17.13.3.28.38.46.16-.25.38-.45.65-.6.28-.16.59-.24.93-.24.18 0 .37.03.56.08.2.06.38.15.55.3.17.13.3.32.41.57.11.24.16.56.16.94V300h-.93v-3.29c0-.31-.05-.56-.15-.72a.84.84 0 0 0-.4-.37c-.15-.07-.32-.1-.5-.1-.17 0-.34.03-.52.09s-.33.17-.46.32a.92.92 0 0 0-.19.62V300h-.92v-3.56c0-.2-.05-.37-.16-.51-.1-.14-.24-.24-.4-.31-.17-.07-.33-.1-.49-.1-.17 0-.35.03-.53.1-.18.07-.33.18-.45.33a.92.92 0 0 0-.18.6V300h-.92Zm12.88-7.18-1.09 7.2-.57-.08 1.1-7.19.56.07Zm2.05 0-1.09 7.2-.57-.08 1.1-7.19.56.07Zm.42 4.27v.56h-4.95v-.56h4.95Zm.32-2.05v.56h-4.95v-.56h4.95Zm3.38-2.37c.78 0 1.4.31 1.87.94.47.63.7 1.56.7 2.79 0 1.22-.23 2.15-.7 2.78-.46.62-1.09.93-1.88.93-.79 0-1.42-.31-1.88-.93a4.6 4.6 0 0 1-.7-2.76c0-.83.11-1.52.33-2.07.2-.56.5-.98.9-1.26.38-.28.84-.42 1.36-.42Zm0 6.64c.52 0 .9-.23 1.17-.68.27-.46.4-1.2.4-2.23 0-1.04-.13-1.8-.4-2.25-.27-.47-.66-.7-1.17-.7-.51 0-.9.23-1.18.7a4.64 4.64 0 0 0-.41 2.25c0 1.03.13 1.77.4 2.23.28.45.67.68 1.2.68Zm5.98-6.64c.78 0 1.4.31 1.87.94.47.63.7 1.56.7 2.79 0 1.22-.23 2.15-.7 2.78-.46.62-1.09.93-1.88.93-.8 0-1.42-.31-1.88-.93a4.6 4.6 0 0 1-.7-2.76c0-.83.11-1.52.32-2.07.22-.56.52-.98.9-1.26.39-.28.84-.42 1.37-.42Zm0 6.64c.51 0 .9-.23 1.17-.68.27-.46.4-1.2.4-2.23 0-1.04-.14-1.8-.4-2.25-.27-.47-.66-.7-1.18-.7-.5 0-.9.23-1.18.7a4.65 4.65 0 0 0-.4 2.25c0 1.03.13 1.77.4 2.23.28.45.67.68 1.19.68Zm3.6.69V299.14a2.11 2.11 0 0 1 .75-1.66c.23-.2.48-.39.75-.55l.82-.46c.27-.15.52-.3.75-.47.23-.16.4-.34.54-.55.14-.2.21-.44.21-.72 0-.37-.13-.67-.39-.9a1.5 1.5 0 0 0-1.04-.34c-.47 0-.85.13-1.14.4-.29.26-.45.62-.49 1.06h-.92c.01-.42.12-.8.31-1.14.2-.35.49-.62.87-.83.38-.2.85-.31 1.4-.31.49 0 .9.09 1.26.26a1.91 1.91 0 0 1 1.12 1.8 2.08 2.08 0 0 1-.75 1.65c-.22.2-.46.37-.73.52l-.8.45a6.5 6.5 0 0 0-.75.44c-.22.15-.4.33-.54.53-.13.2-.2.44-.2.72v.14h3.81v.82h-4.84Z" fill="#36536B"/><path d="M244.34 300.13a5 5 0 0 1-2.75-.68 2.7 2.7 0 0 1-1.2-2.1l1.97-.04c.1.43.33.76.67.99.34.22.78.33 1.3.33.31 0 .59-.05.82-.15.25-.1.44-.24.58-.42.14-.18.2-.38.2-.6 0-.35-.1-.6-.33-.77a2.61 2.61 0 0 0-1.02-.42l-1.54-.33a3.33 3.33 0 0 1-1.72-.85c-.43-.43-.65-1-.66-1.73 0-.59.16-1.1.48-1.52.32-.44.76-.77 1.32-1a4.83 4.83 0 0 1 3.71.03c.52.25.92.59 1.2 1.02.28.42.42.9.41 1.4l-1.92.04a1.8 1.8 0 0 0-.41-.98c-.22-.24-.58-.36-1.08-.36-.26 0-.5.03-.7.09-.2.05-.38.13-.52.24-.15.1-.27.22-.34.35a1 1 0 0 0-.11.47c0 .28.09.5.27.65.19.16.53.3 1.05.44l1.51.37c.85.2 1.47.55 1.85 1.04.38.5.57 1.1.57 1.8 0 .55-.15 1.02-.45 1.42-.3.4-.71.72-1.25.94-.55.22-1.18.33-1.91.33Zm-.82-10.88h1.65v1.7h-1.65v-1.7Zm-.03 10.3h1.64v1.7h-1.64v-1.7Zm7.23.45v-7.04h-1.67v-1.07c.53 0 .97-.05 1.3-.15.33-.1.58-.25.75-.44.16-.2.26-.43.29-.7h1.26v9.4h-1.93Zm7.43-9.53c1.12 0 2 .42 2.64 1.25.65.84.97 2.04.97 3.6s-.32 2.75-.95 3.58a3.16 3.16 0 0 1-2.66 1.24 3.19 3.19 0 0 1-2.67-1.24c-.64-.83-.96-2.02-.96-3.57 0-1.04.15-1.93.44-2.65.3-.72.72-1.27 1.26-1.64a3.3 3.3 0 0 1 1.93-.57Zm0 8.12c.56 0 .97-.25 1.23-.75s.39-1.34.39-2.51a6.1 6.1 0 0 0-.4-2.58 1.3 1.3 0 0 0-1.23-.78c-.55 0-.97.26-1.24.78-.27.53-.4 1.38-.4 2.58 0 1.17.13 2 .4 2.5s.68.76 1.25.76Zm5.63-7.99h6.04l-.07 1.55h-4.47l-.18 2.27a3.95 3.95 0 0 1 2.03-.55c.63 0 1.19.12 1.68.36a2.77 2.77 0 0 1 1.62 2.7 2.94 2.94 0 0 1-1.72 2.83c-.55.25-1.2.38-1.95.38a5 5 0 0 1-1.71-.28c-.53-.2-.99-.45-1.37-.78a3.4 3.4 0 0 1-.88-1.15l1.48-.88c.17.3.36.57.57.8.22.24.46.42.74.56.28.14.6.2.98.2.56 0 1.02-.14 1.36-.44.34-.3.51-.7.51-1.17 0-.3-.08-.58-.23-.82a1.59 1.59 0 0 0-.63-.57c-.27-.14-.59-.2-.94-.2-.2 0-.38.01-.55.05-.17.03-.34.09-.52.18s-.37.21-.58.38a.4.4 0 0 1-.13.03.41.41 0 0 1-.13-.04l-1.38-.64.43-4.77Z" fill="#36536B"/><g filter="url(#n)"><rect x="83" y="324" width="204" height="40" rx="5" fill="#FBFCFE"/></g><path opacity=".7" d="M99.95 340.77h.93V348h-.92v-7.23Zm5.22 2.74H104v3.21c0 .18.02.32.06.4.04.09.1.14.2.17.08.02.21.03.37.03h.57v.62l-.3.06c-.12.02-.28.02-.47.02-.36 0-.63-.04-.83-.14a.83.83 0 0 1-.41-.43 1.89 1.89 0 0 1-.12-.7v-3.25h-.84v-.67h.87l.22-1.5h.68v1.5h1.17v.68Zm1.77 2.12c0 .33.05.62.16.89.11.26.28.47.5.63.22.16.5.24.83.24.33 0 .61-.08.85-.24.24-.15.4-.37.46-.66h.88c-.07.35-.2.64-.42.88a2.1 2.1 0 0 1-.79.55c-.3.12-.63.18-.96.18-.48 0-.9-.1-1.27-.31a2.2 2.2 0 0 1-.86-.91 3 3 0 0 1-.31-1.42c0-.54.09-1.01.28-1.42.18-.42.45-.74.8-.97.36-.22.8-.34 1.3-.34.48 0 .89.1 1.23.31.33.21.59.51.76.9.18.38.27.83.27 1.35v.34h-3.7Zm0-.63h2.82c0-.3-.05-.56-.15-.8-.1-.24-.26-.42-.46-.56-.2-.14-.46-.21-.77-.21a1.32 1.32 0 0 0-1.28.83c-.1.24-.16.49-.15.75Zm4.9 3v-5.17h.89v.75c.14-.23.34-.43.59-.6.25-.17.57-.25.97-.25a1.83 1.83 0 0 1 1.11.38c.17.13.3.28.38.46.16-.25.38-.45.65-.6.28-.16.59-.24.93-.24.18 0 .37.03.56.08.2.06.38.15.55.3.17.13.3.32.41.57.11.24.16.56.16.94V348h-.93v-3.29c0-.31-.05-.56-.15-.72a.84.84 0 0 0-.4-.37c-.15-.07-.32-.1-.5-.1-.17 0-.34.03-.52.09s-.33.17-.46.32a.92.92 0 0 0-.19.62V348h-.92v-3.56c0-.2-.05-.37-.16-.51-.1-.14-.24-.24-.4-.31-.17-.07-.33-.1-.49-.1-.17 0-.35.03-.53.1-.18.07-.33.18-.45.33a.92.92 0 0 0-.18.6V348h-.92Zm12.88-7.18-1.09 7.2-.57-.08 1.1-7.19.56.07Zm2.05 0-1.09 7.2-.57-.08 1.1-7.19.56.07Zm.42 4.27v.56h-4.95v-.56h4.95Zm.32-2.05v.56h-4.95v-.56h4.95Zm3.38-2.37c.78 0 1.4.31 1.87.94.47.63.7 1.56.7 2.79 0 1.22-.23 2.15-.7 2.78-.46.62-1.09.93-1.88.93-.79 0-1.42-.31-1.88-.93a4.6 4.6 0 0 1-.7-2.76c0-.83.11-1.52.33-2.07.2-.56.5-.98.9-1.26.38-.28.84-.42 1.36-.42Zm0 6.64c.52 0 .9-.23 1.17-.68.27-.46.4-1.2.4-2.23 0-1.04-.13-1.8-.4-2.25-.27-.47-.66-.7-1.17-.7-.51 0-.9.23-1.18.7a4.64 4.64 0 0 0-.41 2.25c0 1.03.13 1.77.4 2.23.28.45.67.68 1.2.68Zm5.98-6.64c.78 0 1.4.31 1.87.94.47.63.7 1.56.7 2.79 0 1.22-.23 2.15-.7 2.78-.46.62-1.09.93-1.88.93-.8 0-1.42-.31-1.88-.93a4.6 4.6 0 0 1-.7-2.76c0-.83.11-1.52.32-2.07.22-.56.52-.98.9-1.26.39-.28.84-.42 1.37-.42Zm0 6.64c.51 0 .9-.23 1.17-.68.27-.46.4-1.2.4-2.23 0-1.04-.14-1.8-.4-2.25-.27-.47-.66-.7-1.18-.7-.5 0-.9.23-1.18.7a4.65 4.65 0 0 0-.4 2.25c0 1.03.13 1.77.4 2.23.28.45.67.68 1.19.68Zm3.49-4.44a2.03 2.03 0 0 1 1.24-1.94 3.68 3.68 0 0 1 2.58-.04 2 2 0 0 1 .9.63c.22.28.33.62.33 1.02 0 .35-.12.67-.34.96-.23.3-.58.52-1.04.68.31.09.59.21.83.38a1.72 1.72 0 0 1 .75 1.44 1.87 1.87 0 0 1-.8 1.56c-.25.18-.54.32-.88.42-.34.09-.71.13-1.11.13-.5 0-.94-.1-1.32-.28a2.18 2.18 0 0 1-.89-.75 2.2 2.2 0 0 1-.35-1.16h.93c.07.45.25.8.55 1.03.3.25.66.37 1.11.37.35 0 .66-.06.93-.17.26-.11.46-.27.6-.46.15-.2.22-.43.22-.7 0-.29-.08-.53-.24-.73-.16-.2-.38-.35-.65-.45-.28-.11-.59-.17-.93-.17l-.65-.01v-.79l.62-.01c.32-.01.6-.07.85-.19.25-.11.45-.26.6-.45a1 1 0 0 0 .21-.63c0-.2-.06-.38-.18-.55-.13-.17-.3-.31-.54-.41a2.05 2.05 0 0 0-1.58 0c-.24.1-.44.25-.59.46-.15.21-.23.48-.24.81h-.92Z" fill="#36536B"/><path d="M244.39 348.13a5 5 0 0 1-2.75-.68 2.7 2.7 0 0 1-1.2-2.1l1.97-.04c.1.43.33.76.67.99.35.22.78.33 1.3.33.31 0 .59-.05.83-.15.24-.1.43-.24.57-.42.13-.18.2-.38.2-.6 0-.35-.1-.6-.33-.77a2.61 2.61 0 0 0-1.02-.42l-1.54-.33a3.33 3.33 0 0 1-1.72-.85c-.43-.43-.65-1-.66-1.73 0-.59.16-1.1.48-1.52.32-.44.76-.77 1.32-1a4.82 4.82 0 0 1 3.72.03c.52.25.91.59 1.2 1.02.27.42.4.9.4 1.4l-1.92.04a1.8 1.8 0 0 0-.41-.98c-.22-.24-.58-.36-1.08-.36-.26 0-.5.03-.7.09-.2.05-.38.13-.52.24-.15.1-.26.22-.34.35a1 1 0 0 0-.11.47c0 .28.09.5.27.65.19.16.54.3 1.05.44l1.51.37c.85.2 1.47.55 1.85 1.04.38.5.57 1.1.57 1.8 0 .55-.15 1.02-.45 1.42-.3.4-.71.72-1.25.94-.55.22-1.18.33-1.91.33Zm-.82-10.88h1.65v1.7h-1.65v-1.7Zm-.03 10.3h1.64v1.7h-1.64v-1.7Zm9.35-9.08c.65 0 1.23.1 1.73.3.51.21.92.5 1.21.9.3.4.44.87.44 1.45 0 .48-.13.89-.4 1.23-.26.33-.58.6-.97.77.29.07.57.2.84.43.28.22.5.5.68.82a2.32 2.32 0 0 1-.2 2.48c-.32.41-.76.73-1.33.96-.57.22-1.23.33-2 .33-.75 0-1.41-.11-1.98-.33-.57-.23-1-.55-1.32-.96a2.32 2.32 0 0 1-.21-2.48c.18-.32.4-.6.67-.82.28-.22.56-.36.85-.43a2.73 2.73 0 0 1-.98-.77c-.27-.34-.4-.75-.4-1.23 0-.58.14-1.06.44-1.45.3-.4.7-.69 1.21-.9.51-.2 1.09-.3 1.72-.3Zm0 3.92c.44 0 .8-.11 1.07-.34.28-.24.42-.56.42-.97 0-.41-.14-.73-.42-.97a1.6 1.6 0 0 0-1.07-.36c-.42 0-.77.12-1.06.36a1.2 1.2 0 0 0-.42.97c0 .4.14.73.42.97.29.23.64.34 1.06.34Zm0 4.32c.56 0 1-.13 1.3-.37.32-.25.48-.59.48-1 0-.28-.07-.52-.22-.73a1.44 1.44 0 0 0-.6-.5 2.27 2.27 0 0 0-.96-.18c-.36 0-.67.06-.93.18-.27.12-.47.3-.61.5-.15.21-.22.45-.22.73 0 .41.16.75.48 1 .31.24.74.37 1.28.37Zm6.5 1.29v-7.04h-1.67v-1.07c.54 0 .97-.05 1.3-.15.33-.1.58-.25.75-.44.16-.2.26-.43.29-.7h1.26v9.4h-1.92Zm7.43-9.53c1.12 0 2 .42 2.65 1.25.64.84.96 2.04.96 3.6s-.31 2.75-.95 3.58a3.17 3.17 0 0 1-2.66 1.24 3.19 3.19 0 0 1-2.67-1.24c-.64-.83-.96-2.02-.96-3.57 0-1.04.15-1.93.44-2.65.3-.72.72-1.27 1.26-1.64a3.3 3.3 0 0 1 1.93-.57Zm0 8.12c.56 0 .97-.25 1.23-.75s.39-1.34.39-2.51a6.1 6.1 0 0 0-.4-2.58 1.3 1.3 0 0 0-1.23-.78c-.55 0-.96.26-1.24.78-.27.53-.4 1.38-.4 2.58 0 1.17.13 2 .4 2.5s.69.76 1.25.76Z" fill="#36536B"/><g filter="url(#o)"><rect x="83" y="372" width="204" height="40" rx="5" fill="#FBFCFE"/></g><path opacity=".7" d="M99.95 388.77h.93V396h-.92v-7.23Zm5.22 2.74H104v3.21c0 .18.02.32.06.4.04.09.1.14.2.17.08.02.21.03.37.03h.57v.62l-.3.06c-.12.02-.28.02-.47.02-.36 0-.63-.04-.83-.14a.83.83 0 0 1-.41-.43 1.89 1.89 0 0 1-.12-.7v-3.25h-.84v-.67h.87l.22-1.5h.68v1.5h1.17v.68Zm1.77 2.12c0 .33.05.62.16.89.11.26.28.47.5.63.22.16.5.24.83.24.33 0 .61-.08.85-.24.24-.15.4-.37.46-.66h.88c-.07.35-.2.64-.42.88a2.1 2.1 0 0 1-.79.55c-.3.12-.63.18-.96.18-.48 0-.9-.1-1.27-.31a2.2 2.2 0 0 1-.86-.91 3 3 0 0 1-.31-1.42c0-.54.09-1.01.28-1.42.18-.42.45-.74.8-.97.36-.22.8-.34 1.3-.34.48 0 .89.1 1.23.31.33.21.59.51.76.9.18.38.27.83.27 1.35v.34h-3.7Zm0-.63h2.82c0-.3-.05-.56-.15-.8-.1-.24-.26-.42-.46-.56-.2-.14-.46-.21-.77-.21a1.32 1.32 0 0 0-1.28.83c-.1.24-.16.49-.15.75Zm4.9 3v-5.17h.89v.75c.14-.23.34-.43.59-.6.25-.17.57-.25.97-.25a1.83 1.83 0 0 1 1.11.38c.17.13.3.28.38.46.16-.25.38-.45.65-.6.28-.16.59-.24.93-.24.18 0 .37.03.56.08.2.06.38.15.55.3.17.13.3.32.41.57.11.24.16.56.16.94V396h-.93v-3.29c0-.31-.05-.56-.15-.72a.84.84 0 0 0-.4-.37c-.15-.07-.32-.1-.5-.1-.17 0-.34.03-.52.09s-.33.17-.46.32a.92.92 0 0 0-.19.62V396h-.92v-3.56c0-.2-.05-.37-.16-.51-.1-.14-.24-.24-.4-.31-.17-.07-.33-.1-.49-.1-.17 0-.35.03-.53.1-.18.07-.33.18-.45.33a.92.92 0 0 0-.18.6V396h-.92Zm12.88-7.18-1.09 7.2-.57-.08 1.1-7.19.56.07Zm2.05 0-1.09 7.2-.57-.08 1.1-7.19.56.07Zm.42 4.27v.56h-4.95v-.56h4.95Zm.32-2.05v.56h-4.95v-.56h4.95Zm3.38-2.37c.78 0 1.4.31 1.87.94.47.63.7 1.56.7 2.79 0 1.22-.23 2.15-.7 2.78-.46.62-1.09.93-1.88.93-.79 0-1.42-.31-1.88-.93a4.6 4.6 0 0 1-.7-2.76c0-.83.11-1.52.33-2.07.2-.56.5-.98.9-1.26.38-.28.84-.42 1.36-.42Zm0 6.64c.52 0 .9-.23 1.17-.68.27-.46.4-1.2.4-2.23 0-1.04-.13-1.8-.4-2.25-.27-.47-.66-.7-1.17-.7-.51 0-.9.23-1.18.7a4.64 4.64 0 0 0-.41 2.25c0 1.03.13 1.77.4 2.23.28.45.67.68 1.2.68Zm5.98-6.64c.78 0 1.4.31 1.87.94.47.63.7 1.56.7 2.79 0 1.22-.23 2.15-.7 2.78-.46.62-1.09.93-1.88.93-.8 0-1.42-.31-1.88-.93a4.6 4.6 0 0 1-.7-2.76c0-.83.11-1.52.32-2.07.22-.56.52-.98.9-1.26.39-.28.84-.42 1.37-.42Zm0 6.64c.51 0 .9-.23 1.17-.68.27-.46.4-1.2.4-2.23 0-1.04-.14-1.8-.4-2.25-.27-.47-.66-.7-1.18-.7-.5 0-.9.23-1.18.7a4.65 4.65 0 0 0-.4 2.25c0 1.03.13 1.77.4 2.23.28.45.67.68 1.19.68Zm6.8-6.54h.94v4.57h1.2v.81h-1.2V396h-.91v-1.85h-3.4v-.84l3.36-4.54Zm-2.49 4.57h2.5v-3.35l-2.5 3.35Z" fill="#36536B"/><path d="M236.2 396.13a5 5 0 0 1-2.75-.68 2.7 2.7 0 0 1-1.2-2.1l1.97-.04c.1.43.33.76.67.99.35.22.78.33 1.3.33.31 0 .59-.05.82-.15.25-.1.44-.24.58-.42.13-.18.2-.38.2-.6 0-.35-.1-.6-.33-.77a2.61 2.61 0 0 0-1.02-.42l-1.54-.33a3.33 3.33 0 0 1-1.72-.85c-.43-.43-.65-1-.66-1.73 0-.59.16-1.1.48-1.52.32-.44.76-.77 1.32-1a4.82 4.82 0 0 1 3.72.03c.52.25.91.59 1.2 1.02.27.42.4.9.4 1.4l-1.92.04a1.8 1.8 0 0 0-.41-.98c-.22-.24-.58-.36-1.08-.36-.26 0-.5.03-.7.09-.2.05-.38.13-.52.24-.15.1-.26.22-.34.35a1 1 0 0 0-.11.47c0 .28.09.5.27.65.19.16.54.3 1.05.44l1.51.37c.86.2 1.47.55 1.85 1.04.38.5.57 1.1.57 1.8 0 .55-.15 1.02-.45 1.42-.3.4-.71.72-1.25.94-.55.22-1.18.33-1.91.33Zm-.82-10.88h1.65v1.7h-1.65v-1.7Zm-.03 10.3H237v1.7h-1.64v-1.7Zm7.24.45v-7.04h-1.68v-1.07c.53 0 .97-.05 1.3-.15.33-.1.58-.25.75-.44.16-.2.26-.43.29-.7h1.26v9.4h-1.92Zm7.42-9.53c1.12 0 2 .42 2.64 1.25.65.84.97 2.04.97 3.6s-.32 2.75-.95 3.58a3.16 3.16 0 0 1-2.66 1.24 3.19 3.19 0 0 1-2.67-1.24c-.64-.83-.96-2.02-.96-3.57 0-1.04.15-1.93.44-2.65.3-.72.72-1.27 1.26-1.64a3.3 3.3 0 0 1 1.93-.57Zm0 8.12c.56 0 .97-.25 1.23-.75s.39-1.34.39-2.51c0-1.2-.13-2.06-.4-2.58a1.3 1.3 0 0 0-1.23-.78c-.55 0-.97.26-1.24.78-.27.53-.4 1.38-.4 2.58 0 1.17.13 2 .4 2.5s.69.76 1.25.76Zm8.87-7.99h1.87v5.73h1.44v1.59h-1.44V396h-1.83v-2.08h-4.32v-1.56l4.28-5.76Zm-2.53 5.73h2.58v-3.45l-2.58 3.45Zm10.96-5.73h1.87v5.73h1.45v1.59h-1.45V396h-1.83v-2.08h-4.32v-1.56l4.28-5.76Zm-2.53 5.73h2.58v-3.45l-2.58 3.45Z" fill="#36536B"/><g filter="url(#p)"><rect x="83" y="420" width="204" height="40" rx="5" fill="#FBFCFE"/></g><path opacity=".7" d="M99.95 436.77h.93V444h-.92v-7.23Zm5.22 2.74H104v3.21c0 .18.02.32.06.4.04.09.1.14.2.17.08.02.21.03.37.03h.57v.62l-.3.06c-.12.02-.28.02-.47.02-.36 0-.63-.04-.83-.14a.83.83 0 0 1-.41-.43 1.89 1.89 0 0 1-.12-.7v-3.25h-.84v-.67h.87l.22-1.5h.68v1.5h1.17v.68Zm1.77 2.12c0 .33.05.62.16.89.11.26.28.47.5.63.22.16.5.24.83.24.33 0 .61-.08.85-.24.24-.15.4-.37.46-.66h.88c-.07.35-.2.64-.42.88a2.1 2.1 0 0 1-.79.55c-.3.12-.63.18-.96.18-.48 0-.9-.1-1.27-.31a2.2 2.2 0 0 1-.86-.91 3 3 0 0 1-.31-1.42c0-.54.09-1.01.28-1.42.18-.42.45-.74.8-.97.36-.22.8-.34 1.3-.34.48 0 .89.1 1.23.31.33.21.59.51.76.9.18.38.27.83.27 1.35v.34h-3.7Zm0-.63h2.82c0-.3-.05-.56-.15-.8-.1-.24-.26-.42-.46-.56-.2-.14-.46-.21-.77-.21a1.32 1.32 0 0 0-1.28.83c-.1.24-.16.49-.15.75Zm4.9 3v-5.17h.89v.75c.14-.23.34-.43.59-.6.25-.17.57-.25.97-.25a1.83 1.83 0 0 1 1.11.38c.17.13.3.28.38.46.16-.25.38-.45.65-.6.28-.16.59-.24.93-.24.18 0 .37.03.56.08.2.06.38.15.55.3.17.13.3.32.41.57.11.24.16.56.16.94V444h-.93v-3.29c0-.31-.05-.56-.15-.72a.84.84 0 0 0-.4-.37c-.15-.07-.32-.1-.5-.1-.17 0-.34.03-.52.09s-.33.17-.46.32a.92.92 0 0 0-.19.62V444h-.92v-3.56c0-.2-.05-.37-.16-.51-.1-.14-.24-.24-.4-.31-.17-.07-.33-.1-.49-.1-.17 0-.35.03-.53.1-.18.07-.33.18-.45.33a.92.92 0 0 0-.18.6V444h-.92Zm12.88-7.18-1.09 7.2-.57-.08 1.1-7.19.56.07Zm2.05 0-1.09 7.2-.57-.08 1.1-7.19.56.07Zm.42 4.27v.56h-4.95v-.56h4.95Zm.32-2.05v.56h-4.95v-.56h4.95Zm3.38-2.37c.78 0 1.4.31 1.87.94.47.63.7 1.56.7 2.79 0 1.22-.23 2.15-.7 2.78-.46.62-1.09.93-1.88.93-.79 0-1.42-.31-1.88-.93a4.6 4.6 0 0 1-.7-2.76c0-.83.11-1.52.33-2.07.2-.56.5-.98.9-1.26.38-.28.84-.42 1.36-.42Zm0 6.64c.52 0 .9-.23 1.17-.68.27-.46.4-1.2.4-2.23 0-1.04-.13-1.8-.4-2.25-.27-.47-.66-.7-1.17-.7-.51 0-.9.23-1.18.7a4.64 4.64 0 0 0-.41 2.25c0 1.03.13 1.77.4 2.23.28.45.67.68 1.2.68Zm5.98-6.64c.78 0 1.4.31 1.87.94.47.63.7 1.56.7 2.79 0 1.22-.23 2.15-.7 2.78-.46.62-1.09.93-1.88.93-.8 0-1.42-.31-1.88-.93a4.6 4.6 0 0 1-.7-2.76c0-.83.11-1.52.32-2.07.22-.56.52-.98.9-1.26.39-.28.84-.42 1.37-.42Zm0 6.64c.51 0 .9-.23 1.17-.68.27-.46.4-1.2.4-2.23 0-1.04-.14-1.8-.4-2.25-.27-.47-.66-.7-1.18-.7-.5 0-.9.23-1.18.7a4.65 4.65 0 0 0-.4 2.25c0 1.03.13 1.77.4 2.23.28.45.67.68 1.19.68Zm4.15-6.54h4.31l-.02.8h-3.5l-.19 2.33c.24-.22.5-.38.79-.47a2.89 2.89 0 0 1 2.13.13c.37.17.67.44.9.79.22.34.33.77.33 1.28 0 .5-.1.94-.33 1.31-.21.37-.52.66-.91.87-.4.2-.86.3-1.39.3-.44 0-.86-.08-1.24-.24a2.9 2.9 0 0 1-.98-.65c-.27-.28-.46-.6-.6-.97l.8-.33c.13.27.28.52.46.73a1.94 1.94 0 0 0 1.5.68c.51 0 .92-.15 1.23-.44.32-.3.47-.71.47-1.22a1.55 1.55 0 0 0-.81-1.4 1.7 1.7 0 0 0-.82-.2c-.2 0-.38.02-.55.06-.17.03-.34.1-.5.2-.17.1-.35.25-.53.45a.12.12 0 0 1-.05.02l-.05-.03-.78-.24.33-3.76Z" fill="#36536B"/><path d="M250.04 444.13a5 5 0 0 1-2.75-.68 2.7 2.7 0 0 1-1.2-2.1l1.97-.04c.1.43.33.76.67.99.35.22.78.33 1.3.33.31 0 .59-.05.83-.15.24-.1.43-.24.57-.42.14-.18.2-.38.2-.6 0-.35-.1-.6-.33-.77a2.61 2.61 0 0 0-1.02-.42l-1.54-.33a3.33 3.33 0 0 1-1.72-.85c-.43-.43-.65-1-.66-1.73 0-.59.16-1.1.48-1.52.32-.44.76-.77 1.32-1a4.82 4.82 0 0 1 3.72.03c.52.25.91.59 1.2 1.02.27.42.41.9.4 1.4l-1.92.04a1.8 1.8 0 0 0-.41-.98c-.22-.24-.58-.36-1.08-.36-.26 0-.5.03-.7.09-.2.05-.38.13-.52.24-.15.1-.26.22-.34.35a1 1 0 0 0-.11.47c0 .28.09.5.27.65.19.16.54.3 1.05.44l1.51.37c.86.2 1.47.55 1.85 1.04.38.5.57 1.1.57 1.8 0 .55-.15 1.02-.45 1.42-.3.4-.71.72-1.25.94-.54.22-1.18.33-1.91.33Zm-.82-10.88h1.65v1.7h-1.65v-1.7Zm-.03 10.3h1.64v1.7h-1.64v-1.7Zm9.84-8.95h1.87v5.73h1.45v1.59h-1.45V444h-1.83v-2.08h-4.32v-1.56l4.28-5.76Zm-2.53 5.73h2.58v-3.45l-2.58 3.45Zm10.32-5.86c1.12 0 2 .42 2.65 1.25.64.84.96 2.04.96 3.6s-.31 2.75-.95 3.58a3.17 3.17 0 0 1-2.66 1.24 3.19 3.19 0 0 1-2.67-1.24c-.64-.83-.96-2.02-.96-3.57 0-1.04.15-1.93.44-2.65.3-.72.72-1.27 1.26-1.64a3.3 3.3 0 0 1 1.93-.57Zm0 8.12c.56 0 .97-.25 1.23-.75s.39-1.34.39-2.51a6.1 6.1 0 0 0-.4-2.58 1.3 1.3 0 0 0-1.23-.78c-.55 0-.96.26-1.24.78-.27.53-.4 1.38-.4 2.58 0 1.17.13 2 .4 2.5s.69.76 1.25.76Z" fill="#36536B"/><g filter="url(#q)"><rect x="83" y="468" width="204" height="40" rx="5" fill="#FBFCFE"/></g><path opacity=".7" d="M99.95 484.77h.93V492h-.92v-7.23Zm5.22 2.74H104v3.21c0 .18.02.32.06.4.04.09.1.14.2.17.08.02.21.03.37.03h.57v.62l-.3.06c-.12.02-.28.02-.47.02-.36 0-.63-.04-.83-.14a.83.83 0 0 1-.41-.43 1.89 1.89 0 0 1-.12-.7v-3.25h-.84v-.67h.87l.22-1.5h.68v1.5h1.17v.68Zm1.77 2.12c0 .33.05.62.16.89.11.26.28.47.5.63.22.16.5.24.83.24.33 0 .61-.08.85-.24.24-.15.4-.37.46-.66h.88c-.07.35-.2.64-.42.88a2.1 2.1 0 0 1-.79.55c-.3.12-.63.18-.96.18-.48 0-.9-.1-1.27-.31a2.2 2.2 0 0 1-.86-.91 3 3 0 0 1-.31-1.42c0-.54.09-1.01.28-1.42.18-.42.45-.74.8-.97.36-.22.8-.34 1.3-.34.48 0 .89.1 1.23.31.33.21.59.51.76.9.18.38.27.83.27 1.35v.34h-3.7Zm0-.63h2.82c0-.3-.05-.56-.15-.8-.1-.24-.26-.42-.46-.56-.2-.14-.46-.21-.77-.21a1.32 1.32 0 0 0-1.28.83c-.1.24-.16.49-.15.75Zm4.9 3v-5.17h.89v.75c.14-.23.34-.43.59-.6.25-.17.57-.25.97-.25a1.83 1.83 0 0 1 1.11.38c.17.13.3.28.38.46.16-.25.38-.45.65-.6.28-.16.59-.24.93-.24.18 0 .37.03.56.08.2.06.38.15.55.3.17.13.3.32.41.57.11.24.16.56.16.94V492h-.93v-3.29c0-.31-.05-.56-.15-.72a.84.84 0 0 0-.4-.37c-.15-.07-.32-.1-.5-.1-.17 0-.34.03-.52.09s-.33.17-.46.32a.92.92 0 0 0-.19.62V492h-.92v-3.56c0-.2-.05-.37-.16-.51-.1-.14-.24-.24-.4-.31-.17-.07-.33-.1-.49-.1-.17 0-.35.03-.53.1-.18.07-.33.18-.45.33a.92.92 0 0 0-.18.6V492h-.92Zm12.88-7.18-1.09 7.2-.57-.08 1.1-7.19.56.07Zm2.05 0-1.09 7.2-.57-.08 1.1-7.19.56.07Zm.42 4.27v.56h-4.95v-.56h4.95Zm.32-2.05v.56h-4.95v-.56h4.95Zm3.38-2.37c.78 0 1.4.31 1.87.94.47.63.7 1.56.7 2.79 0 1.22-.23 2.15-.7 2.78-.46.62-1.09.93-1.88.93-.79 0-1.42-.31-1.88-.93a4.6 4.6 0 0 1-.7-2.76c0-.83.11-1.52.33-2.07.2-.56.5-.98.9-1.26.38-.28.84-.42 1.36-.42Zm0 6.64c.52 0 .9-.23 1.17-.68.27-.46.4-1.2.4-2.23 0-1.04-.13-1.8-.4-2.25-.27-.47-.66-.7-1.17-.7-.51 0-.9.23-1.18.7a4.64 4.64 0 0 0-.41 2.25c0 1.03.13 1.77.4 2.23.28.45.67.68 1.2.68Zm5.98-6.64c.78 0 1.4.31 1.87.94.47.63.7 1.56.7 2.79 0 1.22-.23 2.15-.7 2.78-.46.62-1.09.93-1.88.93-.8 0-1.42-.31-1.88-.93a4.6 4.6 0 0 1-.7-2.76c0-.83.11-1.52.32-2.07.22-.56.52-.98.9-1.26.39-.28.84-.42 1.37-.42Zm0 6.64c.51 0 .9-.23 1.17-.68.27-.46.4-1.2.4-2.23 0-1.04-.14-1.8-.4-2.25-.27-.47-.66-.7-1.18-.7-.5 0-.9.23-1.18.7a4.65 4.65 0 0 0-.4 2.25c0 1.03.13 1.77.4 2.23.28.45.67.68 1.19.68Zm6.22-6.64c.4 0 .77.07 1.1.22.35.16.63.37.85.65.22.28.36.62.42 1.01h-.87c-.1-.34-.28-.61-.53-.81a1.5 1.5 0 0 0-.95-.3c-.43 0-.79.12-1.07.37-.29.24-.5.59-.62 1.06a5.26 5.26 0 0 0-.14 1.7 1.94 1.94 0 0 1 1.06-1.07 2.65 2.65 0 0 1 2.05.13 2 2 0 0 1 .84.79c.2.34.3.75.3 1.22 0 .48-.1.91-.31 1.29-.2.37-.5.65-.87.87a2.7 2.7 0 0 1-1.34.31c-.56 0-1.05-.15-1.46-.44-.4-.29-.73-.7-.95-1.24a5.07 5.07 0 0 1-.34-1.94c0-.77.1-1.44.33-2.01a2.9 2.9 0 0 1 .96-1.34c.42-.31.93-.47 1.54-.47Zm-.1 3.43c-.26 0-.52.06-.76.19a1.7 1.7 0 0 0-.59.49c-.15.2-.22.43-.22.68 0 .36.06.69.19.98a1.47 1.47 0 0 0 1.4.91 1.45 1.45 0 0 0 1.33-.8c.12-.25.2-.54.2-.87 0-.32-.07-.6-.19-.85a1.23 1.23 0 0 0-.52-.54 1.72 1.72 0 0 0-.84-.19Z" fill="#36536B"/><path d="M233 492.13a5 5 0 0 1-2.75-.68 2.7 2.7 0 0 1-1.2-2.1l1.97-.04c.1.43.33.76.67.99.35.22.78.33 1.3.33.31 0 .59-.05.82-.15.25-.1.44-.24.58-.42.14-.18.2-.38.2-.6 0-.35-.1-.6-.33-.77a2.61 2.61 0 0 0-1.02-.42l-1.54-.33a3.33 3.33 0 0 1-1.72-.85c-.43-.43-.65-1-.66-1.73 0-.59.16-1.1.48-1.52.32-.44.76-.77 1.32-1a4.82 4.82 0 0 1 3.72.03c.52.25.91.59 1.2 1.02.27.42.41.9.4 1.4l-1.92.04c-.06-.41-.2-.74-.41-.98-.22-.24-.58-.36-1.08-.36-.26 0-.5.03-.7.09-.2.05-.38.13-.52.24-.15.1-.26.22-.34.35a.98.98 0 0 0-.11.47c0 .28.09.5.27.65.19.16.54.3 1.05.44l1.51.37c.86.2 1.47.55 1.85 1.04.38.5.57 1.1.57 1.8 0 .55-.15 1.02-.45 1.42-.3.4-.71.72-1.25.94-.54.22-1.18.33-1.91.33Zm-.82-10.88h1.65v1.7h-1.65v-1.7Zm-.03 10.3h1.64v1.7h-1.64v-1.7Zm5.73.45v-1.42a2.67 2.67 0 0 1 .97-2.14c.3-.26.62-.49.97-.69l1.05-.55c.35-.17.67-.34.96-.52.3-.18.53-.37.7-.59.19-.21.28-.47.28-.77 0-.37-.14-.68-.4-.92a1.53 1.53 0 0 0-1.07-.36c-.48 0-.88.14-1.2.41-.34.28-.54.69-.62 1.24h-1.81c0-.6.15-1.14.41-1.63.28-.49.69-.87 1.23-1.16a4.34 4.34 0 0 1 2.04-.43c.7 0 1.3.12 1.81.36s.9.57 1.18 1c.28.42.42.91.42 1.48a2.68 2.68 0 0 1-.95 2.1c-.28.24-.6.46-.94.64-.34.18-.69.35-1.03.5-.34.16-.65.32-.93.49-.29.16-.52.34-.7.54-.17.2-.25.45-.25.74v.08h4.79v1.6h-6.9Zm8.97-9.4h6.04l-.07 1.55h-4.46l-.19 2.27a3.95 3.95 0 0 1 2.03-.55c.63 0 1.2.12 1.69.36a2.77 2.77 0 0 1 1.62 2.7 2.94 2.94 0 0 1-1.72 2.83c-.55.25-1.2.38-1.95.38a5 5 0 0 1-1.72-.28c-.53-.2-.98-.45-1.37-.78a3.4 3.4 0 0 1-.88-1.15l1.49-.88c.16.3.35.57.57.8.21.24.45.42.73.56.28.14.61.2.98.2.57 0 1.02-.14 1.36-.44.34-.3.52-.7.52-1.17a1.59 1.59 0 0 0-.86-1.38c-.28-.15-.6-.22-.95-.22-.2 0-.37.02-.55.06-.17.03-.34.09-.52.18-.17.09-.36.21-.58.38a.4.4 0 0 1-.13.03.41.41 0 0 1-.13-.04l-1.37-.64.42-4.77Zm11.64-.13c.6 0 1.13.1 1.63.33.5.2.9.52 1.22.93.31.4.49.88.52 1.45h-1.74c-.11-.4-.3-.7-.57-.9-.27-.2-.6-.3-1.02-.3-.45 0-.82.12-1.12.38-.3.25-.52.6-.65 1.07-.13.46-.16 1-.1 1.6.14-.2.32-.38.54-.52a3.08 3.08 0 0 1 1.6-.45c.63 0 1.2.11 1.67.35a2.67 2.67 0 0 1 1.52 2.52 3.05 3.05 0 0 1-1.71 2.8c-.54.27-1.16.41-1.87.41-.8 0-1.48-.19-2.06-.58a3.7 3.7 0 0 1-1.34-1.62c-.31-.7-.46-1.52-.46-2.46 0-1.03.15-1.92.46-2.67.32-.75.77-1.32 1.36-1.73.6-.4 1.3-.6 2.12-.6Zm-.13 5c-.27 0-.53.06-.79.18-.24.12-.45.27-.6.46a.86.86 0 0 0-.24.56c0 .42.06.78.2 1.08.13.3.32.53.57.7.24.16.53.24.85.24a1.6 1.6 0 0 0 1.41-.8c.15-.25.22-.54.22-.87 0-.34-.07-.63-.21-.86-.15-.23-.34-.4-.59-.52a1.88 1.88 0 0 0-.82-.17Zm8.57-5c.6 0 1.14.1 1.64.33.5.2.9.52 1.21.93.32.4.5.88.52 1.45h-1.73c-.12-.4-.3-.7-.57-.9-.27-.2-.61-.3-1.03-.3-.45 0-.82.12-1.12.38-.3.25-.51.6-.64 1.07-.13.46-.17 1-.1 1.6.13-.2.32-.38.54-.52.22-.15.47-.26.74-.34a3.7 3.7 0 0 1 2.52.24 2.66 2.66 0 0 1 1.52 2.52 3.04 3.04 0 0 1-1.7 2.8c-.54.27-1.17.41-1.87.41-.8 0-1.49-.19-2.07-.58a3.72 3.72 0 0 1-1.34-1.62c-.3-.7-.46-1.52-.46-2.46 0-1.03.16-1.92.47-2.67.31-.75.77-1.32 1.36-1.73.59-.4 1.3-.6 2.12-.6Zm-.13 5c-.27 0-.53.06-.78.18s-.45.27-.61.46a.86.86 0 0 0-.24.56c0 .42.06.78.2 1.08.14.3.33.53.57.7.25.16.53.24.85.24a1.61 1.61 0 0 0 1.41-.8c.15-.25.22-.54.22-.87 0-.34-.07-.63-.21-.86-.14-.23-.34-.4-.59-.52a1.87 1.87 0 0 0-.82-.17Z" fill="#36536B"/><g filter="url(#r)"><rect x="83" y="516" width="204" height="40" rx="5" fill="#FBFCFE"/></g><path d="M235.95 540.13a5 5 0 0 1-2.74-.68 2.7 2.7 0 0 1-1.2-2.1l1.97-.03c.1.42.33.75.67.98.34.22.78.33 1.3.33.31 0 .59-.05.82-.15.25-.1.44-.24.57-.42.14-.17.21-.38.21-.6 0-.35-.1-.6-.33-.78a2.61 2.61 0 0 0-1.02-.41l-1.54-.33a3.33 3.33 0 0 1-1.72-.85c-.43-.43-.65-1-.66-1.73 0-.59.16-1.1.48-1.52.32-.44.76-.77 1.32-1a4.82 4.82 0 0 1 3.71.03c.52.25.92.59 1.2 1.02.28.42.42.9.4 1.4l-1.9.04c-.07-.42-.2-.74-.42-.98-.22-.24-.58-.36-1.08-.36-.26 0-.5.03-.7.09-.2.05-.38.13-.53.24-.14.1-.25.22-.33.35a.98.98 0 0 0-.11.47c0 .27.09.5.27.65.19.16.53.3 1.05.44l1.51.37c.85.2 1.47.55 1.85 1.04.38.5.57 1.1.57 1.8 0 .55-.15 1.02-.45 1.42-.3.4-.71.72-1.25.94-.55.22-1.18.33-1.92.33Zm-.8-10.88h1.64v1.7h-1.65v-1.7Zm-.04 10.3h1.64v1.7h-1.64v-1.7Zm9.84-8.95h1.87v5.73h1.44v1.59h-1.44V540h-1.83v-2.08h-4.32v-1.56l4.28-5.76Zm-2.53 5.73H245v-3.45l-2.58 3.45Zm8.36 3.67v-7.04h-1.68v-1.07c.53 0 .97-.05 1.3-.15.33-.1.58-.25.75-.44.16-.2.26-.43.29-.7h1.26v9.4h-1.92Zm7.24.14a4 4 0 0 1-1.63-.34 3.2 3.2 0 0 1-1.25-.94 2.6 2.6 0 0 1-.54-1.45h1.81c.08.37.25.66.52.9.27.22.6.33 1.01.33.46 0 .85-.1 1.19-.32.34-.2.6-.55.76-1.01.18-.46.24-1.07.19-1.82a1.9 1.9 0 0 1-.51.6c-.21.17-.46.3-.75.4a3.86 3.86 0 0 1-2.65-.22 2.84 2.84 0 0 1-1.16-1.03 2.95 2.95 0 0 1-.41-1.58c0-.62.15-1.17.44-1.65.3-.48.7-.86 1.23-1.13a4 4 0 0 1 1.86-.4c.8 0 1.49.18 2.06.56.58.38 1.03.92 1.34 1.62.3.69.46 1.5.46 2.45 0 1.12-.16 2.05-.48 2.8-.31.75-.77 1.3-1.36 1.68-.6.37-1.3.55-2.13.55Zm.17-5.02a1.92 1.92 0 0 0 1.38-.63.85.85 0 0 0 .25-.57c0-.42-.07-.78-.2-1.08a1.5 1.5 0 0 0-1.42-.94c-.3 0-.57.08-.8.22-.24.13-.43.33-.56.58-.13.25-.2.54-.2.87 0 .5.14.87.43 1.14.28.27.66.4 1.12.4Zm8.26 5.02a4 4 0 0 1-1.63-.34 3.2 3.2 0 0 1-1.25-.94c-.32-.42-.5-.9-.53-1.45h1.8c.08.37.25.66.52.9.27.22.6.33 1.02.33a1.9 1.9 0 0 0 1.95-1.33c.17-.47.23-1.07.18-1.82a1.9 1.9 0 0 1-.5.6c-.22.17-.47.3-.76.4a3.86 3.86 0 0 1-2.65-.22 2.83 2.83 0 0 1-1.16-1.03 2.94 2.94 0 0 1-.41-1.58 3.05 3.05 0 0 1 1.68-2.78 4 4 0 0 1 1.85-.4c.8 0 1.49.18 2.06.56.59.38 1.03.92 1.34 1.62.31.69.47 1.5.47 2.45 0 1.12-.17 2.05-.49 2.8-.31.75-.77 1.3-1.36 1.68-.6.37-1.3.55-2.13.55Zm.17-5.02a1.93 1.93 0 0 0 1.38-.63.85.85 0 0 0 .25-.57c0-.42-.06-.78-.2-1.08-.14-.3-.33-.53-.57-.7a1.51 1.51 0 0 0-.86-.23c-.3 0-.56.07-.8.2-.23.14-.42.34-.55.59-.13.25-.2.54-.2.87 0 .5.14.87.43 1.14.29.27.66.4 1.12.4ZM68.07 67.44h233v114h-233z" fill="#36536B"/></g><g clip-path="url(#s)"><g filter="url(#t)"><rect x="83" y="148" width="204" height="56" rx="5" fill="#FBFCFE"/></g><path opacity=".7" d="M99.7 173.62v-.85h5.47v.85h-2.2V180h-.94v-6.38H99.7Zm7.76 6.48c-.48 0-.9-.1-1.25-.3-.36-.21-.64-.51-.83-.91-.2-.4-.3-.88-.3-1.45 0-.54.1-1.02.28-1.43.18-.4.45-.72.8-.94.36-.23.79-.34 1.3-.34.47 0 .89.1 1.24.31s.62.52.82.92c.19.4.29.9.29 1.47 0 .53-.1 1-.27 1.4-.18.4-.44.7-.8.93-.34.23-.77.34-1.28.34Zm0-.73c.3 0 .57-.08.78-.24.21-.15.38-.38.49-.67.1-.3.16-.64.16-1.05 0-.37-.05-.7-.14-.99-.1-.3-.26-.53-.47-.7a1.26 1.26 0 0 0-.82-.26c-.32 0-.58.07-.8.23-.22.15-.38.38-.5.67a3 3 0 0 0-.16 1.05c0 .37.05.7.15 1 .1.3.26.53.47.7.21.17.5.26.84.26Zm5.94-3.87h-1.17v3.22c0 .18.02.32.06.4.04.09.1.14.2.16.09.03.22.04.38.04h.56v.62l-.29.06c-.13.02-.28.03-.47.03-.36 0-.64-.05-.84-.15a.83.83 0 0 1-.41-.43 1.87 1.87 0 0 1-.11-.7v-3.25h-.84v-.67h.86l.23-1.5h.67v1.5h1.17v.67Zm2.64 4.6c-.33 0-.63-.06-.88-.17-.26-.13-.46-.3-.6-.52-.15-.22-.22-.5-.22-.81 0-.57.2-1 .6-1.28.4-.28 1.04-.43 1.92-.45l.93-.03v-.4a1 1 0 0 0-.29-.75c-.19-.19-.48-.28-.88-.28-.3 0-.56.07-.79.21a.98.98 0 0 0-.43.67h-.82c.02-.34.12-.62.29-.85.17-.23.4-.41.7-.53.31-.12.68-.18 1.1-.18.44 0 .81.06 1.11.19.3.13.53.31.67.56.15.25.23.55.23.91V180h-.8l-.06-.97c-.2.4-.45.68-.76.84-.31.15-.65.23-1.02.23Zm.28-.66a1.84 1.84 0 0 0 .99-.35c.14-.12.26-.24.34-.37a.8.8 0 0 0 .14-.42v-.89l-.77.02c-.4 0-.73.05-1 .12-.26.07-.45.19-.59.34a.93.93 0 0 0-.2.62c0 .29.1.52.3.68.21.16.47.25.8.25Zm5.17.63c-.28 0-.51-.04-.68-.12a.96.96 0 0 1-.59-.75 3.02 3.02 0 0 1-.04-.53v-6.1h.91v6.01c0 .26.05.45.15.58.1.13.25.2.43.22h.28v.6a1.82 1.82 0 0 1-.47.09Zm3.82 1.54v-6.78h.92v.9l.24-.33a1.92 1.92 0 0 1 .83-.58c.2-.06.4-.09.64-.09.41 0 .78.1 1.09.28.32.2.56.48.74.87.18.38.26.87.26 1.47 0 .59-.08 1.09-.26 1.5a2 2 0 0 1-.74.93c-.32.21-.7.32-1.17.32a1.76 1.76 0 0 1-1.08-.35 1.99 1.99 0 0 1-.54-.69v2.55h-.93Zm2.38-2.23c.43 0 .77-.16 1.04-.48.27-.33.4-.84.4-1.53 0-.59-.11-1.05-.36-1.4-.25-.35-.6-.52-1.08-.52-.48 0-.84.18-1.1.54-.24.35-.36.81-.36 1.38 0 .38.05.71.16 1.01.11.3.28.55.5.73.21.18.48.27.8.27Zm4.84.72c-.33 0-.63-.06-.88-.17-.26-.13-.46-.3-.6-.52-.15-.22-.22-.5-.22-.81 0-.57.2-1 .6-1.28.4-.28 1.04-.43 1.92-.45l.93-.03v-.4a1 1 0 0 0-.29-.75c-.19-.19-.48-.28-.88-.28-.3 0-.56.07-.79.21a.98.98 0 0 0-.43.67h-.82c.02-.34.12-.62.29-.85.17-.23.4-.41.7-.53.31-.12.67-.18 1.1-.18.44 0 .81.06 1.11.19.3.13.52.31.67.56.15.25.23.55.23.91V180h-.8l-.06-.97c-.2.4-.45.68-.76.84-.31.15-.65.23-1.02.23Zm.28-.66a1.84 1.84 0 0 0 .99-.35c.14-.12.26-.24.34-.37a.8.8 0 0 0 .14-.42v-.89l-.77.02c-.4 0-.73.05-1 .12-.26.07-.46.19-.59.34a.93.93 0 0 0-.2.62c0 .29.1.52.3.68.2.16.47.25.8.25Zm4.2 2.21c-.3 0-.5-.02-.62-.06l-.17-.07v-.6l.52.01c.2 0 .36 0 .48-.04a.89.89 0 0 0 .3-.13.64.64 0 0 0 .18-.2c.05-.06.08-.13.1-.2l.19-.49-2.02-5.04h.93l1.53 3.99 1.51-3.99h.9l-2.17 5.56a2.6 2.6 0 0 1-.45.77c-.17.18-.35.3-.55.38-.2.07-.42.11-.66.11Zm4.75-1.65v-5.17h.89v.75c.14-.23.34-.43.59-.6.25-.16.57-.25.97-.25a1.83 1.83 0 0 1 1.11.38c.17.13.3.28.38.46.16-.25.38-.45.65-.6.28-.16.59-.24.93-.24.18 0 .37.03.56.09.2.05.38.15.55.28.17.14.3.33.41.58.11.24.16.56.16.94V180h-.93v-3.29c0-.31-.05-.56-.15-.72a.84.84 0 0 0-.4-.37c-.15-.07-.32-.1-.5-.1-.17 0-.34.03-.52.09s-.33.17-.46.32a.92.92 0 0 0-.19.61V180h-.92v-3.56c0-.2-.05-.37-.16-.51-.1-.14-.24-.24-.4-.31-.17-.07-.33-.1-.49-.1-.17 0-.35.03-.53.1-.18.07-.33.18-.45.34a.92.92 0 0 0-.18.58V180h-.92Zm9.23-2.37c0 .33.06.62.16.89.11.26.28.47.5.63.22.16.5.23.83.23.33 0 .62-.07.85-.22.24-.16.4-.38.46-.67h.88c-.06.35-.2.64-.42.88-.22.25-.48.43-.79.55-.3.12-.62.18-.96.18-.48 0-.9-.1-1.27-.31a2.2 2.2 0 0 1-.86-.91c-.2-.4-.31-.87-.31-1.41 0-.55.1-1.03.28-1.44.19-.4.45-.72.8-.96.37-.22.8-.34 1.3-.34.48 0 .9.1 1.23.31.34.22.59.51.76.9.18.38.27.83.27 1.35v.34H151Zm0-.63h2.82c0-.3-.05-.56-.15-.8-.1-.23-.25-.42-.46-.56-.2-.14-.46-.21-.77-.21a1.32 1.32 0 0 0-1.28.83c-.1.24-.16.49-.15.75Zm4.9 3v-5.17h.9v.75a1.6 1.6 0 0 1 .88-.71c.21-.08.46-.12.74-.12.32 0 .62.07.9.2.27.13.5.33.66.61a2 2 0 0 1 .25 1.06V180h-.93v-3.29c0-.4-.1-.7-.32-.9-.2-.2-.48-.29-.82-.29-.23 0-.45.04-.65.11-.2.08-.37.2-.5.34a.85.85 0 0 0-.19.57V180h-.92Zm8.08-4.5h-1.17v3.22c0 .18.02.32.06.4.04.09.1.14.2.16.09.03.21.04.37.04h.57v.62l-.3.06c-.12.02-.28.03-.47.03-.35 0-.63-.05-.83-.15a.83.83 0 0 1-.41-.43 1.89 1.89 0 0 1-.12-.7v-3.25h-.84v-.67h.87l.22-1.5h.68v1.5h1.17v.67Z" fill="#36536B"/><path d="M213.26 183.2a7.7 7.7 0 0 1-4.22-1.04 4.16 4.16 0 0 1-1.86-3.23l3.04-.06c.16.66.5 1.16 1.03 1.51.53.34 1.2.51 2 .51.48 0 .9-.08 1.27-.23.37-.16.66-.37.88-.64.2-.27.32-.58.32-.93 0-.53-.17-.93-.51-1.19a4.01 4.01 0 0 0-1.57-.64l-2.37-.51a5.11 5.11 0 0 1-2.65-1.31c-.66-.66-1-1.54-1.01-2.65-.01-.9.23-1.69.73-2.35a4.8 4.8 0 0 1 2.03-1.54 7.42 7.42 0 0 1 2.89-.54c1.09 0 2.03.2 2.83.59.8.39 1.4.91 1.84 1.57.43.65.64 1.38.63 2.17l-2.95.05a2.8 2.8 0 0 0-.64-1.51c-.34-.37-.9-.55-1.66-.55a4 4 0 0 0-1.07.13c-.32.09-.59.21-.81.37-.23.15-.4.34-.52.55a1.5 1.5 0 0 0-.17.72c0 .42.14.75.42 1 .28.24.82.46 1.6.67l2.34.57c1.3.31 2.26.85 2.84 1.61.58.76.88 1.68.88 2.77 0 .83-.23 1.56-.7 2.18-.45.62-1.1 1.1-1.92 1.44-.84.34-1.82.51-2.94.51ZM212 166.47h2.53v2.6H212v-2.6Zm-.05 15.84h2.52v2.6h-2.52v-2.6Zm13.88.91c-.9 0-1.75-.17-2.53-.52a4.93 4.93 0 0 1-1.9-1.46 3.99 3.99 0 0 1-.84-2.22h2.78c.13.56.4 1.02.8 1.37.42.35.94.52 1.56.52a2.94 2.94 0 0 0 3-2.05c.27-.71.36-1.65.28-2.8-.18.35-.44.66-.78.93-.32.26-.7.46-1.15.61a5.93 5.93 0 0 1-4.08-.34 4.35 4.35 0 0 1-1.77-1.58 4.53 4.53 0 0 1-.65-2.44 4.7 4.7 0 0 1 2.58-4.27 6.15 6.15 0 0 1 2.87-.63c1.22 0 2.28.3 3.17.88.89.58 1.57 1.4 2.04 2.48.49 1.07.72 2.32.72 3.77 0 1.73-.24 3.17-.73 4.32a5.45 5.45 0 0 1-2.1 2.58c-.92.57-2 .85-3.28.85Zm.25-7.73a2.97 2.97 0 0 0 2.13-.97c.25-.28.38-.57.38-.87 0-.65-.1-1.2-.31-1.66-.21-.47-.5-.82-.88-1.07a2.32 2.32 0 0 0-1.31-.37 2.26 2.26 0 0 0-2.08 1.22c-.21.39-.31.83-.31 1.34 0 .75.22 1.34.66 1.76.44.41 1.01.62 1.72.62Zm7.72 7.51V180.82a4.12 4.12 0 0 1 1.48-3.3c.46-.4.95-.75 1.49-1.05.53-.3 1.07-.58 1.62-.85.53-.27 1.03-.53 1.47-.8.46-.27.82-.58 1.1-.91.27-.33.4-.73.4-1.18 0-.58-.2-1.05-.6-1.42-.4-.37-.96-.55-1.66-.55a2.8 2.8 0 0 0-1.85.63c-.5.42-.81 1.05-.94 1.9h-2.78c0-.92.22-1.75.64-2.5a4.49 4.49 0 0 1 1.88-1.79 6.68 6.68 0 0 1 3.13-.66 6.5 6.5 0 0 1 2.8.55c.78.37 1.39.88 1.81 1.53.43.65.64 1.42.64 2.29a4.11 4.11 0 0 1-1.45 3.23c-.45.37-.93.7-1.46.98-.52.28-1.05.54-1.57.78-.53.24-1 .49-1.45.74-.44.25-.79.53-1.05.84-.27.31-.4.69-.4 1.13v.13h7.37V183H233.8Zm17.87-14.66c1.72 0 3.07.64 4.07 1.93.99 1.28 1.49 3.12 1.49 5.53 0 2.4-.5 4.23-1.47 5.51a4.87 4.87 0 0 1-4.1 1.91 4.9 4.9 0 0 1-4.1-1.91c-.98-1.27-1.47-3.1-1.47-5.5 0-1.6.22-2.96.68-4.07a5.47 5.47 0 0 1 1.93-2.53 5.07 5.07 0 0 1 2.97-.87Zm0 12.49a2 2 0 0 0 1.89-1.15c.4-.77.6-2.06.6-3.87 0-1.85-.2-3.17-.61-3.97a2 2 0 0 0-1.9-1.2c-.85 0-1.48.4-1.9 1.21-.42.8-.62 2.13-.62 3.96 0 1.8.2 3.09.62 3.86a2.04 2.04 0 0 0 1.92 1.16Zm13.64-12.29h2.88v8.81h2.23v2.45h-2.24v3.2h-2.8v-3.2h-6.65v-2.4l6.58-8.86Zm-3.88 8.81h3.95v-5.3l-3.95 5.3Z" fill="#BA4270"/></g><path fill-rule="evenodd" clip-rule="evenodd" d="M227.05 106.42v-2.08h-.77v2.08h.77Zm-53.13 16.01v-4.95h.04c.35.51.8.9 1.35 1.16.54.27 1.14.4 1.79.4a4.26 4.26 0 0 0 3.44-1.64c.39-.5.67-1.07.86-1.72a7.93 7.93 0 0 0 0-4.15 5.19 5.19 0 0 0-.87-1.79 4.37 4.37 0 0 0-3.6-1.7 4.1 4.1 0 0 0-1.78.39c-.53.25-.98.66-1.33 1.23h-.04v-1.33h-2.73v14.1h2.87Zm2.4-5.54c-.45 0-.84-.09-1.16-.28a2.27 2.27 0 0 1-.78-.74c-.2-.3-.34-.65-.43-1.06a5.78 5.78 0 0 1 0-2.48c.07-.4.21-.76.4-1.07a2.2 2.2 0 0 1 1.95-1.05 2.17 2.17 0 0 1 1.95 1.06c.2.31.34.67.43 1.08a5.78 5.78 0 0 1 .01 2.46c-.08.4-.22.76-.41 1.06-.2.3-.45.55-.77.74-.32.19-.71.28-1.18.28Zm11.94 1.86c-.62.2-1.25.29-1.9.29-.5 0-.97-.06-1.4-.19-.43-.12-.8-.3-1.13-.56a2.64 2.64 0 0 1-.76-.97c-.18-.4-.27-.86-.27-1.4 0-.59.1-1.08.31-1.46.21-.38.48-.7.81-.92.33-.23.71-.4 1.14-.52.42-.11.85-.2 1.28-.27.43-.07.85-.12 1.27-.16.42-.04.79-.1 1.11-.18.33-.08.58-.2.77-.36.19-.15.28-.38.26-.67 0-.31-.05-.56-.15-.74-.1-.18-.23-.32-.4-.42-.17-.1-.37-.17-.59-.2a4.77 4.77 0 0 0-.72-.06c-.56 0-1 .12-1.33.37-.32.24-.51.64-.57 1.2h-2.87c.04-.67.21-1.22.51-1.67.3-.44.67-.8 1.13-1.07.46-.27.98-.46 1.55-.58a8.75 8.75 0 0 1 1.73-.17c.52 0 1.05.04 1.6.11.53.08 1.02.22 1.47.44.44.21.8.51 1.09.9.28.38.42.89.42 1.52v5.44c0 .47.03.92.08 1.35.06.44.15.76.29.97h-2.91a4 4 0 0 1-.2-1c-.46.47-1 .8-1.62.98Zm-.83-1.61c-.23 0-.45-.02-.67-.06a1.6 1.6 0 0 1-.56-.22c-.16-.1-.3-.23-.39-.41-.1-.17-.14-.4-.14-.65 0-.27.05-.49.14-.66.1-.18.22-.32.38-.44.15-.11.33-.2.54-.27a5 5 0 0 1 1.33-.26 9.27 9.27 0 0 0 1.24-.26c.18-.06.33-.14.45-.25v1.07c0 .16-.01.38-.05.65-.03.27-.12.53-.27.8-.15.26-.38.48-.69.67-.3.2-.75.29-1.31.29Zm11.12 4.75c-.55.36-1.32.54-2.3.54a12.77 12.77 0 0 1-1.76-.1v-2.36l.83.08c.28.02.56.03.85.02.37-.04.65-.2.84-.45.18-.25.27-.54.27-.85 0-.22-.04-.44-.12-.64l-3.66-9.8h3.05l2.36 7.15h.05l2.28-7.16h2.97l-4.37 11.75a3.53 3.53 0 0 1-1.29 1.82Zm9.5-2.87c.5 0 .96-.06 1.38-.19a4.18 4.18 0 0 0 1.96-1.24c.23-.28.4-.57.53-.88h.04v.55c0 .21.01.41.05.6.03.18.1.33.19.47.1.13.23.24.41.32a2.42 2.42 0 0 0 1.36.04v-.64c-.23.04-.42.06-.56.06a.64.64 0 0 1-.4-.11.6.6 0 0 1-.2-.3 1.51 1.51 0 0 1-.07-.4l-.02-.45v-6.04c0-.8-.28-1.44-.85-1.93-.58-.5-1.49-.74-2.74-.74-1.25 0-2.22.29-2.9.86-.68.58-1.05 1.43-1.1 2.58h.76c.06-.93.37-1.63.94-2.08a3.5 3.5 0 0 1 2.26-.69c.52 0 .97.05 1.33.16.37.11.66.26.89.45a1.77 1.77 0 0 1 .67 1.43c0 .37-.02.67-.06.91-.04.24-.14.44-.3.6-.17.15-.4.27-.72.36-.32.09-.75.15-1.3.2l-1.2.1a12 12 0 0 0-1.3.2c-.45.09-.87.25-1.24.47-.37.22-.67.53-.92.91-.24.38-.36.88-.36 1.49 0 1 .3 1.73.91 2.2.6.49 1.46.73 2.57.73Zm-1.97-1.23c.48.37 1.15.56 2 .56.87 0 1.57-.16 2.08-.47.51-.32.9-.69 1.17-1.1.27-.4.44-.8.52-1.19.07-.38.1-.64.1-.78v-1.94c-.18.23-.47.39-.85.47-.39.08-.81.14-1.28.18l-1.3.12c-.38.04-.75.1-1.13.17-.38.08-.72.2-1.02.38-.3.17-.55.41-.74.71-.19.3-.28.7-.28 1.19 0 .76.24 1.33.73 1.7Zm9.88 4.7v-5.88h.04c.31.85.8 1.46 1.48 1.84.68.38 1.44.57 2.3.57.8 0 1.49-.14 2.08-.4a3.94 3.94 0 0 0 1.45-1.13c.39-.48.67-1.05.86-1.7a7.95 7.95 0 0 0 0-4.27 5.13 5.13 0 0 0-.86-1.74 4.2 4.2 0 0 0-3.53-1.64 4.04 4.04 0 0 0-2.62.92 3.96 3.96 0 0 0-1.15 1.7h-.04v-2.37h-.77v14.1h.77Zm2-4.53c.49.26 1.1.39 1.82.39a3.47 3.47 0 0 0 2.96-1.41c.32-.44.56-.94.71-1.51a6.97 6.97 0 0 0 .01-3.58 4.8 4.8 0 0 0-.68-1.53 3.54 3.54 0 0 0-1.2-1.1 3.59 3.59 0 0 0-1.8-.41c-.68 0-1.27.13-1.75.4-.49.27-.88.63-1.19 1.08-.3.44-.52.95-.65 1.52a8.64 8.64 0 0 0-.02 3.58c.12.57.32 1.08.61 1.52.3.43.68.78 1.18 1.05Zm8.32-9.57h.77v10.38h-.77V108.4Z" fill="#fff"/><circle cx="154.09" cy="104.16" r="1.89" transform="rotate(45 154.09 104.16)" fill="#fff"/><circle cx="158.56" cy="108.62" r="1.89" transform="rotate(45 158.56 108.62)" fill="#fff"/><circle cx="163.02" cy="113.09" r="1.89" transform="rotate(45 163.02 113.09)" fill="#fff"/><circle cx="149.62" cy="108.62" r="1.89" transform="rotate(45 149.62 108.62)" fill="#fff"/><circle opacity=".5" cx="154.09" cy="113.09" r="1.89" transform="rotate(45 154.09 113.09)" fill="#fff"/><circle opacity=".5" cx="158.56" cy="117.56" r="1.89" transform="rotate(45 158.56 117.56)" fill="#fff"/><circle cx="145.16" cy="113.09" r="1.89" transform="rotate(45 145.16 113.09)" fill="#fff"/><circle opacity=".5" cx="149.62" cy="117.56" r="1.89" transform="rotate(45 149.62 117.56)" fill="#fff"/><circle opacity=".25" cx="154.09" cy="122.02" r="1.89" transform="rotate(45 154.09 122.02)" fill="#fff"/><defs><filter id="a" x="303.57" y=".57" width="417.65" height="658.86" filterUnits="userSpaceOnUse" color-interpolation-filters="sRGB"><feFlood flood-opacity="0" result="BackgroundImageFix"/><feColorMatrix in="SourceAlpha" values="0 0 0 0 0 0 0 0 0 0 0 0 0 0 0 0 0 0 127 0" result="hardAlpha"/><feOffset dx="25" dy="25"/><feGaussianBlur stdDeviation="40"/><feColorMatrix values="0 0 0 0 0.212302 0 0 0 0 0.32521 0 0 0 0 0.419299 0 0 0 0.300727 0"/><feBlend in2="BackgroundImageFix" result="effect1_dropShadow_2105_3"/><feBlend in="SourceGraphic" in2="effect1_dropShadow_2105_3" result="shape"/></filter><filter id="f" x="394" y="192" width="206" height="221" filterUnits="userSpaceOnUse" color-interpolation-filters="sRGB"><feFlood flood-opacity="0" result="BackgroundImageFix"/><feColorMatrix in="SourceAlpha" values="0 0 0 0 0 0 0 0 0 0 0 0 0 0 0 0 0 0 127 0" result="hardAlpha"/><feMorphology radius="10" in="SourceAlpha" result="effect1_dropShadow_2105_3"/><feOffset dx="10" dy="10"/><feGaussianBlur stdDeviation="12.5"/><feColorMatrix values="0 0 0 0 0.212302 0 0 0 0 0.32521 0 0 0 0 0.419299 0 0 0 0.25 0"/><feBlend in2="BackgroundImageFix" result="effect1_dropShadow_2105_3"/><feBlend in="SourceGraphic" in2="effect1_dropShadow_2105_3" result="shape"/></filter><filter id="g" x=".57" y=".57" width="417.65" height="658.86" filterUnits="userSpaceOnUse" color-interpolation-filters="sRGB"><feFlood flood-opacity="0" result="BackgroundImageFix"/><feColorMatrix in="SourceAlpha" values="0 0 0 0 0 0 0 0 0 0 0 0 0 0 0 0 0 0 127 0" result="hardAlpha"/><feOffset dx="25" dy="25"/><feGaussianBlur stdDeviation="40"/><feColorMatrix values="0 0 0 0 0.212302 0 0 0 0 0.32521 0 0 0 0 0.419299 0 0 0 0.300727 0"/><feBlend in2="BackgroundImageFix" result="effect1_dropShadow_2105_3"/><feBlend in="SourceGraphic" in2="effect1_dropShadow_2105_3" result="shape"/></filter><filter id="l" x="78" y="223" width="234" height="70" filterUnits="userSpaceOnUse" color-interpolation-filters="sRGB"><feFlood flood-opacity="0" result="BackgroundImageFix"/><feColorMatrix in="SourceAlpha" values="0 0 0 0 0 0 0 0 0 0 0 0 0 0 0 0 0 0 127 0" result="hardAlpha"/><feMorphology radius="10" in="SourceAlpha" result="effect1_dropShadow_2105_3"/><feOffset dx="10" dy="10"/><feGaussianBlur stdDeviation="12.5"/><feColorMatrix values="0 0 0 0 0.212302 0 0 0 0 0.32521 0 0 0 0 0.419299 0 0 0 0.25 0"/><feBlend in2="BackgroundImageFix" result="effect1_dropShadow_2105_3"/><feBlend in="SourceGraphic" in2="effect1_dropShadow_2105_3" result="shape"/></filter><filter id="m" x="78" y="271" width="234" height="70" filterUnits="userSpaceOnUse" color-interpolation-filters="sRGB"><feFlood flood-opacity="0" result="BackgroundImageFix"/><feColorMatrix in="SourceAlpha" values="0 0 0 0 0 0 0 0 0 0 0 0 0 0 0 0 0 0 127 0" result="hardAlpha"/><feMorphology radius="10" in="SourceAlpha" result="effect1_dropShadow_2105_3"/><feOffset dx="10" dy="10"/><feGaussianBlur stdDeviation="12.5"/><feColorMatrix values="0 0 0 0 0.212302 0 0 0 0 0.32521 0 0 0 0 0.419299 0 0 0 0.25 0"/><feBlend in2="BackgroundImageFix" result="effect1_dropShadow_2105_3"/><feBlend in="SourceGraphic" in2="effect1_dropShadow_2105_3" result="shape"/></filter><filter id="n" x="78" y="319" width="234" height="70" filterUnits="userSpaceOnUse" color-interpolation-filters="sRGB"><feFlood flood-opacity="0" result="BackgroundImageFix"/><feColorMatrix in="SourceAlpha" values="0 0 0 0 0 0 0 0 0 0 0 0 0 0 0 0 0 0 127 0" result="hardAlpha"/><feMorphology radius="10" in="SourceAlpha" result="effect1_dropShadow_2105_3"/><feOffset dx="10" dy="10"/><feGaussianBlur stdDeviation="12.5"/><feColorMatrix values="0 0 0 0 0.212302 0 0 0 0 0.32521 0 0 0 0 0.419299 0 0 0 0.25 0"/><feBlend in2="BackgroundImageFix" result="effect1_dropShadow_2105_3"/><feBlend in="SourceGraphic" in2="effect1_dropShadow_2105_3" result="shape"/></filter><filter id="o" x="78" y="367" width="234" height="70" filterUnits="userSpaceOnUse" color-interpolation-filters="sRGB"><feFlood flood-opacity="0" result="BackgroundImageFix"/><feColorMatrix in="SourceAlpha" values="0 0 0 0 0 0 0 0 0 0 0 0 0 0 0 0 0 0 127 0" result="hardAlpha"/><feMorphology radius="10" in="SourceAlpha" result="effect1_dropShadow_2105_3"/><feOffset dx="10" dy="10"/><feGaussianBlur stdDeviation="12.5"/><feColorMatrix values="0 0 0 0 0.212302 0 0 0 0 0.32521 0 0 0 0 0.419299 0 0 0 0.25 0"/><feBlend in2="BackgroundImageFix" result="effect1_dropShadow_2105_3"/><feBlend in="SourceGraphic" in2="effect1_dropShadow_2105_3" result="shape"/></filter><filter id="p" x="78" y="415" width="234" height="70" filterUnits="userSpaceOnUse" color-interpolation-filters="sRGB"><feFlood flood-opacity="0" result="BackgroundImageFix"/><feColorMatrix in="SourceAlpha" values="0 0 0 0 0 0 0 0 0 0 0 0 0 0 0 0 0 0 127 0" result="hardAlpha"/><feMorphology radius="10" in="SourceAlpha" result="effect1_dropShadow_2105_3"/><feOffset dx="10" dy="10"/><feGaussianBlur stdDeviation="12.5"/><feColorMatrix values="0 0 0 0 0.212302 0 0 0 0 0.32521 0 0 0 0 0.419299 0 0 0 0.25 0"/><feBlend in2="BackgroundImageFix" result="effect1_dropShadow_2105_3"/><feBlend in="SourceGraphic" in2="effect1_dropShadow_2105_3" result="shape"/></filter><filter id="q" x="78" y="463" width="234" height="70" filterUnits="userSpaceOnUse" color-interpolation-filters="sRGB"><feFlood flood-opacity="0" result="BackgroundImageFix"/><feColorMatrix in="SourceAlpha" values="0 0 0 0 0 0 0 0 0 0 0 0 0 0 0 0 0 0 127 0" result="hardAlpha"/><feMorphology radius="10" in="SourceAlpha" result="effect1_dropShadow_2105_3"/><feOffset dx="10" dy="10"/><feGaussianBlur stdDeviation="12.5"/><feColorMatrix values="0 0 0 0 0.212302 0 0 0 0 0.32521 0 0 0 0 0.419299 0 0 0 0.25 0"/><feBlend in2="BackgroundImageFix" result="effect1_dropShadow_2105_3"/><feBlend in="SourceGraphic" in2="effect1_dropShadow_2105_3" result="shape"/></filter><filter id="r" x="78" y="511" width="234" height="70" filterUnits="userSpaceOnUse" color-interpolation-filters="sRGB"><feFlood flood-opacity="0" result="BackgroundImageFix"/><feColorMatrix in="SourceAlpha" values="0 0 0 0 0 0 0 0 0 0 0 0 0 0 0 0 0 0 127 0" result="hardAlpha"/><feMorphology radius="10" in="SourceAlpha" result="effect1_dropShadow_2105_3"/><feOffset dx="10" dy="10"/><feGaussianBlur stdDeviation="12.5"/><feColorMatrix values="0 0 0 0 0.212302 0 0 0 0 0.32521 0 0 0 0 0.419299 0 0 0 0.25 0"/><feBlend in2="BackgroundImageFix" result="effect1_dropShadow_2105_3"/><feBlend in="SourceGraphic" in2="effect1_dropShadow_2105_3" result="shape"/></filter><filter id="t" x="78" y="143" width="234" height="86" filterUnits="userSpaceOnUse" color-interpolation-filters="sRGB"><feFlood flood-opacity="0" result="BackgroundImageFix"/><feColorMatrix in="SourceAlpha" values="0 0 0 0 0 0 0 0 0 0 0 0 0 0 0 0 0 0 127 0" result="hardAlpha"/><feMorphology radius="10" in="SourceAlpha" result="effect1_dropShadow_2105_3"/><feOffset dx="10" dy="10"/><feGaussianBlur stdDeviation="12.5"/><feColorMatrix values="0 0 0 0 0.212302 0 0 0 0 0.32521 0 0 0 0 0.419299 0 0 0 0.25 0"/><feBlend in2="BackgroundImageFix" result="effect1_dropShadow_2105_3"/><feBlend in="SourceGraphic" in2="effect1_dropShadow_2105_3" result="shape"/></filter><linearGradient id="b" x1="366.01" y1="55" x2="366.01" y2="67.32" gradientUnits="userSpaceOnUse"><stop stop-color="#454545"/><stop offset=".23" stop-color="#999"/><stop offset="1" stop-color="#fff"/></linearGradient><linearGradient id="c" x1="616.1" y1="140.75" x2="606.64" y2="140.75" gradientUnits="userSpaceOnUse"><stop stop-color="#fff" stop-opacity=".01"/><stop offset=".22" stop-color="#BABABA"/><stop offset=".55" stop-color="#fff" stop-opacity=".01"/><stop offset="1" stop-color="#fff" stop-opacity=".01"/></linearGradient><linearGradient id="d" x1="358.57" y1="140.49" x2="368.04" y2="140.49" gradientUnits="userSpaceOnUse"><stop stop-color="#fff" stop-opacity=".01"/><stop offset=".22" stop-color="#BABABA"/><stop offset=".55" stop-color="#fff" stop-opacity=".01"/><stop offset="1" stop-color="#fff" stop-opacity=".01"/></linearGradient><linearGradient id="h" x1="63.01" y1="55" x2="63.01" y2="67.32" gradientUnits="userSpaceOnUse"><stop stop-color="#454545"/><stop offset=".23" stop-color="#999"/><stop offset="1" stop-color="#fff"/></linearGradient><linearGradient id="i" x1="313.1" y1="140.75" x2="303.64" y2="140.75" gradientUnits="userSpaceOnUse"><stop stop-color="#fff" stop-opacity=".01"/><stop offset=".22" stop-color="#BABABA"/><stop offset=".55" stop-color="#fff" stop-opacity=".01"/><stop offset="1" stop-color="#fff" stop-opacity=".01"/></linearGradient><linearGradient id="j" x1="55.57" y1="140.49" x2="65.04" y2="140.49" gradientUnits="userSpaceOnUse"><stop stop-color="#fff" stop-opacity=".01"/><stop offset=".22" stop-color="#BABABA"/><stop offset=".55" stop-color="#fff" stop-opacity=".01"/><stop offset="1" stop-color="#fff" stop-opacity=".01"/></linearGradient><clipPath id="s"><path fill="#fff" transform="translate(83 148)" d="M0 0h204v56H0z"/></clipPath></defs></svg>