<svg width="780" height="939" fill="none" xmlns="http://www.w3.org/2000/svg"><g opacity=".15"><circle cx="390" cy="390" r="390" fill="#36536B"/><circle cx="390" cy="390" r="390" fill="#36536B"/><mask id="a" style="mask-type:alpha" maskUnits="userSpaceOnUse" x="0" y="0" width="780" height="780"><circle cx="390" cy="390" r="390" fill="#fff"/></mask></g><g filter="url(#b)"><path fill-rule="evenodd" clip-rule="evenodd" d="M152.78 334.57H344c18.34 0 33.2 14.24 33.2 31.8v435.26c0 17.57-14.86 31.8-33.2 31.8H152.78c-18.34 0-33.21-14.23-33.21-31.8V366.38c0-17.56 14.87-31.8 33.2-31.8Z" fill="#213648"/></g><path opacity=".6" fill-rule="evenodd" clip-rule="evenodd" d="M344.75 334H151.92c-9 .55-17.3 4.66-24.9 12.32 4.88-4.26 13.6-9.97 25.14-9.97h192.36c11.53 0 20.25 5.7 25.14 9.97-7.6-7.66-15.9-11.77-24.91-12.32Z" fill="url(#c)" fill-opacity=".65"/><path opacity=".75" fill-rule="evenodd" clip-rule="evenodd" d="M372 796.67V368.98c0-11.47-4.22-15.72-6.73-18.44-2.52-2.72-2.63-4.11.99-2.06 3.61 2.06 10.84 8.05 10.84 20.5v427.7c0 12.44-7.23 18.43-10.84 20.49-3.62 2.06-3.51.67-1-2.06 2.52-2.72 6.74-6.96 6.74-18.44Z" fill="url(#d)"/><path opacity=".75" fill-rule="evenodd" clip-rule="evenodd" d="M124.67 796.67V368.98c0-11.47 4.22-15.72 6.73-18.44 2.52-2.72 2.63-4.11-.99-2.06-3.61 2.06-10.84 8.05-10.84 20.5v427.7c0 12.44 7.23 18.43 10.84 20.49 3.62 2.06 3.51.67 1-2.06-2.52-2.72-6.74-6.96-6.74-18.44Z" fill="url(#e)"/><path fill-rule="evenodd" clip-rule="evenodd" d="M117 437.56c0-1.1.9-2 2-2h.97a2 2 0 0 1 2 2v60.35a2 2 0 0 1-2 2H119a2 2 0 0 1-2-2v-60.35ZM374.54 490.04c0-1.1.9-2 2-2h.96a2 2 0 0 1 2 2V533a2 2 0 0 1-2 2h-.96a2 2 0 0 1-2-2v-42.95Z" fill="#2E423C"/><g clip-path="url(#f)"><path fill-rule="evenodd" clip-rule="evenodd" d="M225.68 346.44h-74.41c-11.1 0-19.2 7.57-19.2 17.45v422.39c0 12.88 12.5 24.29 26.64 24.29h179.34c13.61 0 26.64-11.5 26.64-24.3V365.04c0-11.84-8.8-18.51-19.2-18.59H269.9c-.28.05-5.47 2.19-7.67 7.57-2.2 5.38-6.6 9.67-11.44 9.67h-5.62c-2.3 0-8.35-2.23-11.41-9.67-3.06-7.44-7.8-7.52-8.08-7.57Z" fill="#fff"/><mask id="g" style="mask-type:alpha" maskUnits="userSpaceOnUse" x="132" y="346" width="233" height="465"><path fill-rule="evenodd" clip-rule="evenodd" d="M225.68 346.44h-74.41c-11.1 0-19.2 7.57-19.2 17.45v422.39c0 12.88 12.5 24.29 26.64 24.29h179.34c13.61 0 26.64-11.5 26.64-24.3V365.04c0-11.84-8.8-18.51-19.2-18.59H269.9c-.28.05-5.47 2.19-7.67 7.57-2.2 5.38-6.6 9.67-11.44 9.67h-5.62c-2.3 0-8.35-2.23-11.41-9.67-3.06-7.44-7.8-7.52-8.08-7.57Z" fill="#fff"/></mask><g mask="url(#g)"><path fill="url(#h)" d="M132 346.44h233v465H132z"/><path d="M211.5 475v-17.33h-4.12v-2.64c1.32 0 2.38-.12 3.2-.37a3.9 3.9 0 0 0 1.84-1.08c.4-.48.64-1.06.72-1.72h3.1V475h-4.74Zm10 0V471.51c0-1.17.21-2.19.65-3.04a7.4 7.4 0 0 1 1.73-2.24c.72-.64 1.51-1.2 2.37-1.68.86-.48 1.73-.93 2.59-1.36.86-.43 1.65-.85 2.37-1.28a6.7 6.7 0 0 0 1.74-1.45c.44-.54.66-1.17.66-1.9 0-.92-.33-1.68-.98-2.26a3.76 3.76 0 0 0-2.64-.88c-1.16 0-2.15.33-2.96 1a4.6 4.6 0 0 0-1.5 3.04h-4.47c.03-1.47.37-2.8 1.03-4a7.17 7.17 0 0 1 3-2.86c1.34-.7 3.01-1.06 5.03-1.06 1.73 0 3.22.3 4.46.88a6.82 6.82 0 0 1 2.92 2.45 6.55 6.55 0 0 1 1.02 3.67 6.6 6.6 0 0 1-.64 3c-.43.85-1 1.57-1.7 2.16-.7.6-1.47 1.12-2.32 1.57-.84.45-1.68.87-2.52 1.25-.84.38-1.6.78-2.3 1.18-.71.4-1.28.85-1.7 1.35a2.7 2.7 0 0 0-.64 1.8v.21h11.79V475h-17Zm25.2-16.14v5h-5.12v-5h5.12Zm0 11.05v5h-5.12v-5h5.12Zm13.75-18.05h4.6v14.1h3.56v3.92h-3.57V475h-4.5l.02-5.12h-10.65v-3.84l10.54-14.18Zm-6.22 14.1h6.33v-8.48l-6.33 8.48Zm25.2 9.4a9.8 9.8 0 0 1-4.03-.84 7.9 7.9 0 0 1-3.05-2.34 6.38 6.38 0 0 1-1.33-3.55h4.45c.19.9.62 1.63 1.28 2.2.66.55 1.5.83 2.5.83a4.7 4.7 0 0 0 4.8-3.28c.42-1.14.57-2.64.44-4.48-.3.56-.71 1.06-1.25 1.48-.52.42-1.13.75-1.84.98a9.5 9.5 0 0 1-6.53-.54 6.97 6.97 0 0 1-2.84-2.53 7.25 7.25 0 0 1-1.03-3.9 7.6 7.6 0 0 1 1.1-4.05 7.54 7.54 0 0 1 3.03-2.79c1.3-.67 2.83-1 4.58-1 1.96 0 3.65.46 5.07 1.4a8.84 8.84 0 0 1 3.28 3.97 14.6 14.6 0 0 1 1.15 6.03c0 2.76-.4 5.07-1.18 6.91a8.7 8.7 0 0 1-3.36 4.13 9.72 9.72 0 0 1-5.24 1.36Zm.42-12.38a4.73 4.73 0 0 0 3.4-1.55c.4-.45.6-.91.6-1.39a6.1 6.1 0 0 0-.5-2.66 3.71 3.71 0 0 0-3.5-2.3 3.61 3.61 0 0 0-3.33 1.95c-.33.62-.5 1.34-.5 2.15 0 1.2.36 2.14 1.06 2.81.7.66 1.63 1 2.77 1Z" fill="#fff"/></g></g><g clip-path="url(#i)"><g filter="url(#j)"><rect x="139" y="501" width="218" height="87" rx="5" fill="#FBFCFE"/></g><g clip-path="url(#k)"><path d="M155.81 527v-7.23h2.66c.53 0 1 .1 1.41.27.42.19.75.45.99.8.24.36.37.79.37 1.3 0 .48-.11.89-.33 1.23-.2.34-.5.6-.9.78-.38.18-.83.27-1.35.27h-1.38V527h-1.47Zm1.45-3.71h1.36a1.2 1.2 0 0 0 1.25-1.22c0-.37-.12-.65-.37-.86a1.33 1.33 0 0 0-.9-.32h-1.34v2.4Zm6.25 3.81c-.33 0-.63-.06-.89-.19-.26-.12-.47-.3-.62-.53a1.54 1.54 0 0 1-.23-.86c0-.57.2-1 .63-1.29.42-.3 1.1-.45 2-.46l.65-.01v-.31c0-.24-.07-.42-.2-.55-.14-.13-.36-.19-.65-.18-.21 0-.41.05-.6.14a.78.78 0 0 0-.4.51H162a1.54 1.54 0 0 1 1.12-1.46c.34-.12.73-.18 1.16-.18.53 0 .95.07 1.27.2.32.13.55.32.7.57.14.24.21.53.21.87V527h-1.22l-.12-.89c-.18.37-.4.63-.66.77-.27.15-.58.22-.94.22Zm.5-.96c.13 0 .25-.02.38-.07.12-.05.24-.12.33-.2.1-.08.18-.17.24-.27s.1-.22.1-.33v-.76l-.53.01c-.25 0-.47.03-.68.09-.21.05-.38.14-.51.26a.66.66 0 0 0-.2.5c0 .25.09.43.26.57.16.13.36.2.6.2Zm4.35 2.51c-.35 0-.6-.03-.75-.09l-.21-.08v-.94l.5.03c.23 0 .41 0 .55-.04a.79.79 0 0 0 .3-.13.52.52 0 0 0 .16-.18l.07-.15.1-.29-2.02-4.95h1.45l1.24 3.37 1.25-3.37h1.43l-2.1 5.2c-.18.44-.37.78-.57 1.01-.2.23-.41.4-.65.48a2.1 2.1 0 0 1-.75.13Zm3.87-1.65 2.59-7.23h1.54l2.58 7.23h-1.45l-.6-1.67h-2.6l-.6 1.67h-1.46Zm2.4-2.95h1.92l-.96-2.87-.97 2.87Zm5.4 2.95v-7.23h2.66c.53 0 1 .1 1.41.27.42.19.75.45.99.8.24.36.36.79.36 1.3a2.07 2.07 0 0 1-1.22 2.01c-.38.18-.83.27-1.35.27h-1.38V527h-1.47Zm1.45-3.71h1.36a1.2 1.2 0 0 0 1.25-1.22c0-.37-.13-.65-.37-.86a1.33 1.33 0 0 0-.9-.32h-1.34v2.4Zm5.07-3.52h1.46V527h-1.46v-7.23Z" fill="#BA4270"/><path opacity=".5" d="M302.6 525.3c0 .38-.03.7-.12.98a1.1 1.1 0 0 1-.47.61c-.22.14-.53.21-.94.21-.25 0-.5-.03-.72-.09l-.45-.13.07-.89.35.14c.14.05.3.08.5.08.34 0 .56-.09.68-.27.12-.18.18-.48.18-.91v-5.26h.93v5.52Zm3.44 1.8c-.27 0-.52-.04-.76-.12a1.96 1.96 0 0 1-.63-.33 1.57 1.57 0 0 1-.6-1.31v-3.51h.93v3.41c0 .34.1.62.31.83.21.2.53.31.95.31.38 0 .68-.1.91-.3.23-.2.35-.5.35-.88v-3.37h.92V527h-.73l-.1-.99c-.06.26-.17.47-.32.63-.15.16-.34.28-.55.36-.2.07-.44.1-.68.1Zm5.66 0c-.36 0-.7-.06-1-.17-.31-.1-.57-.28-.77-.52-.2-.24-.33-.54-.39-.91h.84c.05.2.13.37.25.5.13.14.28.24.46.31.19.07.39.1.6.1.35 0 .63-.06.84-.2a.65.65 0 0 0 .32-.6.61.61 0 0 0-.17-.45.99.99 0 0 0-.51-.25l-1.07-.27c-.42-.1-.75-.26-1-.47a1.11 1.11 0 0 1-.38-.9c0-.3.07-.56.22-.8.14-.23.37-.4.66-.54.3-.13.66-.2 1.1-.2.55 0 1 .13 1.35.38.34.25.52.62.54 1.1h-.82a.84.84 0 0 0-.33-.58 1.19 1.19 0 0 0-.76-.22c-.33 0-.6.07-.8.2-.2.13-.31.33-.31.61 0 .18.07.33.22.43.14.1.36.2.65.26l1.03.26c.24.07.44.15.6.25a1.36 1.36 0 0 1 .56.75c.04.14.06.27.06.4 0 .31-.08.58-.24.81-.16.23-.38.4-.68.53-.3.13-.65.19-1.07.19Zm5.8-4.6h-1.17v3.22c0 .18.02.32.06.4.04.09.1.14.2.16.09.03.22.04.38.04h.56v.62l-.29.06c-.13.02-.29.02-.48.02-.35 0-.63-.04-.82-.14a.83.83 0 0 1-.42-.43 1.87 1.87 0 0 1-.12-.7v-3.25h-.83v-.67h.86l.22-1.5h.69v1.5h1.16v.67Zm8.53-2.73h.92V527h-.82l-3.88-5.7v5.7h-.93v-7.23h.89l3.82 5.62v-5.62Zm4.63 7.33c-.48 0-.9-.1-1.25-.3-.36-.21-.64-.51-.83-.91-.2-.4-.3-.88-.3-1.46 0-.53.1-1 .28-1.41.18-.41.45-.73.8-.95.36-.23.8-.34 1.3-.34.47 0 .89.1 1.24.31s.63.52.82.92c.2.4.29.9.29 1.47 0 .53-.1 1-.27 1.4-.18.4-.44.7-.8.93-.34.23-.77.34-1.28.34Zm0-.73c.3 0 .57-.08.78-.24.22-.15.38-.38.49-.67.1-.3.16-.64.16-1.05 0-.37-.04-.7-.14-.99-.1-.3-.25-.53-.47-.7a1.26 1.26 0 0 0-.82-.26c-.31 0-.58.07-.8.23-.21.15-.38.38-.5.67a3 3 0 0 0-.16 1.05c0 .37.05.7.15 1 .1.3.26.53.47.7.22.17.5.26.84.26Zm10.17-4.54-1.56 5.17h-.91l-1.18-3.82-1.12 3.82h-.9l-1.6-5.17h.85l1.19 3.97h.08l1.16-3.97h.7l1.21 3.96h.08l1.14-3.96h.86Z" fill="#36536B"/></g><path d="M155.23 536.62v-.85h5.47v.85h-2.2V543h-.94v-6.38h-2.33Zm6.47 6.38v-7.43h.9v3.02a1.7 1.7 0 0 1 .88-.7c.22-.09.46-.13.74-.13.33 0 .64.07.91.2a1.4 1.4 0 0 1 .89 1.35V543h-.92v-3.51c0-.31-.1-.55-.32-.72a1.27 1.27 0 0 0-.83-.25c-.23 0-.44.04-.65.12-.2.07-.37.18-.5.34a.87.87 0 0 0-.18.57V543h-.92Zm6.42-2.37c0 .33.06.62.16.89.11.26.28.47.5.63.22.16.5.24.83.24.33 0 .62-.08.85-.24.24-.15.4-.37.46-.66h.88c-.06.35-.2.64-.42.88-.22.25-.48.43-.79.55-.3.12-.62.18-.96.18-.48 0-.9-.1-1.27-.32a2.2 2.2 0 0 1-.86-.9c-.2-.4-.31-.87-.31-1.41 0-.55.1-1.02.28-1.44.19-.4.46-.73.8-.95.37-.24.8-.35 1.3-.35.48 0 .9.1 1.23.31.34.22.6.51.76.9.18.38.27.83.27 1.35v.34h-3.7Zm0-.63h2.82c0-.3-.05-.56-.15-.8-.1-.24-.25-.42-.46-.56-.2-.14-.46-.21-.77-.21a1.32 1.32 0 0 0-1.28.83c-.1.24-.15.49-.15.75Zm7.22 4.61v-6.78h.91l.01.9a1.96 1.96 0 0 1 .58-.66 1.89 1.89 0 0 1 1.13-.34c.4 0 .77.1 1.09.28.31.2.56.48.73.87.18.38.27.87.27 1.47 0 .59-.09 1.09-.26 1.5a2 2 0 0 1-.74.93c-.32.21-.71.32-1.17.32a1.76 1.76 0 0 1-1.08-.35 1.99 1.99 0 0 1-.55-.68v2.54h-.92Zm2.38-2.23c.42 0 .77-.16 1.04-.49.27-.32.4-.83.4-1.51 0-.6-.12-1.06-.37-1.41-.24-.35-.6-.52-1.07-.52-.48 0-.85.18-1.1.53-.24.36-.37.82-.37 1.4 0 .37.06.7.17 1 .11.3.27.55.49.73.22.18.49.27.8.27Zm4.91.72c-.33 0-.62-.06-.88-.18s-.46-.29-.6-.51c-.15-.22-.22-.5-.22-.81 0-.57.2-1 .6-1.28.4-.28 1.04-.43 1.92-.45l.93-.02v-.41a1 1 0 0 0-.29-.75c-.19-.19-.48-.28-.88-.28-.3 0-.56.07-.79.21a.98.98 0 0 0-.43.67h-.82c.02-.34.12-.62.29-.85.17-.23.4-.41.7-.53.32-.12.68-.18 1.1-.18.44 0 .82.06 1.11.19.3.13.53.31.67.56.15.25.23.55.23.91V543h-.8l-.06-.97c-.2.4-.45.68-.76.84-.3.15-.65.23-1.02.23Zm.28-.67c.18 0 .35-.03.52-.09.17-.06.33-.15.47-.25.15-.12.26-.24.34-.37a.8.8 0 0 0 .14-.42v-.88l-.77.01c-.4 0-.72.05-1 .12-.25.07-.45.19-.59.35a.93.93 0 0 0-.2.61c0 .29.1.52.3.68.21.16.47.24.8.24Zm4.28 2.22c-.3 0-.5-.02-.62-.06l-.17-.07v-.6l.52.01c.2 0 .36 0 .48-.04a.88.88 0 0 0 .3-.13.62.62 0 0 0 .18-.2c.05-.06.08-.13.1-.2l.19-.49-2.02-5.04h.93l1.53 3.99 1.51-3.99h.9l-2.17 5.56c-.13.33-.28.58-.45.76-.16.19-.35.32-.55.39-.2.07-.42.11-.66.11Zm4.82-1.65v-5.17h.9v.75c.14-.23.34-.43.59-.6.25-.16.57-.25.97-.25a1.83 1.83 0 0 1 1.11.38c.16.13.29.28.38.47a1.82 1.82 0 0 1 1.57-.85c.19 0 .37.03.57.09.2.05.38.14.55.28.16.14.3.33.41.58.1.24.16.56.16.94V543h-.93v-3.29c0-.31-.05-.56-.15-.73a.84.84 0 0 0-.4-.36c-.16-.07-.33-.1-.51-.1-.16 0-.33.03-.51.09s-.33.17-.46.32a.92.92 0 0 0-.19.62V543h-.92v-3.56c0-.2-.06-.37-.16-.51a1.19 1.19 0 0 0-.89-.41c-.18 0-.36.03-.54.1-.17.07-.32.18-.44.34a.92.92 0 0 0-.19.58V543h-.92Zm9.32-2.37c0 .33.05.62.16.89.1.26.27.47.5.63.22.16.5.24.83.24.33 0 .61-.08.85-.24.24-.15.4-.37.46-.66h.87c-.06.35-.2.64-.42.88-.21.25-.48.43-.78.55-.3.12-.63.18-.96.18-.49 0-.91-.1-1.28-.32a2.2 2.2 0 0 1-.86-.9c-.2-.4-.3-.87-.3-1.41 0-.55.09-1.02.27-1.44.19-.4.46-.73.81-.95.36-.24.79-.35 1.29-.35.48 0 .9.1 1.23.31.34.22.6.51.77.9.17.38.26.83.26 1.35v.34h-3.7Zm0-.63h2.81c0-.3-.05-.56-.15-.8-.1-.24-.25-.42-.46-.56-.2-.14-.46-.21-.77-.21a1.32 1.32 0 0 0-1.28.83c-.1.24-.15.49-.15.75Zm4.97 3v-5.17h.9v.75a1.6 1.6 0 0 1 .88-.71c.21-.08.46-.12.74-.12.32 0 .62.07.9.2.27.13.5.33.66.61a2 2 0 0 1 .25 1.06V543h-.93v-3.29c0-.4-.1-.7-.32-.9-.2-.2-.48-.29-.82-.29-.23 0-.45.04-.65.12-.2.07-.37.18-.5.34a.85.85 0 0 0-.19.56V543h-.92Zm8.16-4.5h-1.17v3.22c0 .18.02.32.06.4.04.09.1.14.2.16.08.03.21.04.37.04h.57v.62l-.3.06c-.12.02-.28.02-.47.02-.36 0-.63-.04-.83-.14a.83.83 0 0 1-.41-.43 1.87 1.87 0 0 1-.12-.7v-3.25h-.84v-.67h.87l.22-1.5h.68v1.5h1.17v.67Zm3.63 4.5v-7.43h.9v3.02a1.7 1.7 0 0 1 .88-.7c.21-.09.46-.13.73-.13.34 0 .65.07.92.2.27.12.49.3.65.52.16.24.24.5.24.82v3.7h-.93v-3.51c0-.31-.1-.55-.32-.72a1.27 1.27 0 0 0-.82-.25c-.23 0-.45.04-.65.12-.2.07-.37.18-.5.34a.88.88 0 0 0-.18.57V543h-.92Zm7.17.1c-.33 0-.63-.06-.88-.18-.26-.12-.46-.29-.6-.51-.15-.22-.22-.5-.22-.81 0-.57.2-1 .6-1.28.4-.28 1.04-.43 1.92-.45l.93-.02v-.41a1 1 0 0 0-.29-.75c-.19-.19-.48-.28-.88-.28-.3 0-.56.07-.79.21a.98.98 0 0 0-.43.67h-.82c.02-.34.12-.62.29-.85.17-.23.4-.41.7-.53.31-.12.68-.18 1.1-.18.44 0 .82.06 1.11.19.3.13.53.31.67.56.15.25.23.55.23.91V543h-.8l-.06-.97c-.2.4-.45.68-.76.84-.31.15-.65.23-1.02.23Zm.28-.67c.18 0 .35-.03.52-.09.17-.06.33-.15.47-.25.15-.12.26-.24.34-.37a.8.8 0 0 0 .14-.42v-.88l-.77.01c-.4 0-.73.05-1 .12-.26.07-.46.19-.59.35a.93.93 0 0 0-.2.61c0 .29.1.52.3.68.21.16.47.24.8.24Zm5.68.67c-.36 0-.7-.06-1-.17-.3-.1-.56-.28-.77-.52-.2-.24-.33-.54-.38-.91h.84c.05.2.13.37.25.5.12.14.28.24.46.31s.38.1.6.1c.34 0 .63-.06.84-.2a.65.65 0 0 0 .32-.6.62.62 0 0 0-.17-.45 1 1 0 0 0-.52-.25l-1.07-.27c-.41-.1-.75-.26-1-.47a1.11 1.11 0 0 1-.37-.9c0-.3.07-.56.21-.8.15-.23.37-.4.66-.54.3-.13.66-.2 1.1-.2.56 0 1.01.13 1.35.38.35.25.53.62.54 1.1h-.81a.84.84 0 0 0-.34-.58 1.19 1.19 0 0 0-.75-.22c-.33 0-.6.07-.8.2-.21.13-.32.33-.32.61 0 .18.08.33.22.43.15.1.37.2.65.26l1.04.26c.24.07.44.15.59.25a1.36 1.36 0 0 1 .56.75c.04.14.06.27.06.4 0 .31-.08.58-.24.81-.15.23-.38.4-.68.53-.29.13-.65.19-1.07.19Zm8.1 0c-.3 0-.55-.04-.76-.12a1.58 1.58 0 0 1-.98-1.04l-.1 1.06h-.7v-7.43h.92v3.08a1.87 1.87 0 0 1 1.03-.82c.2-.07.42-.1.67-.1.64 0 1.16.23 1.54.67.38.46.57 1.12.57 2 0 .54-.08 1.01-.24 1.42-.17.4-.41.72-.73.94-.33.23-.73.34-1.21.34Zm-.16-.71c.42 0 .76-.16 1.03-.49.26-.32.4-.84.4-1.55 0-.6-.13-1.07-.38-1.4-.24-.33-.6-.5-1.07-.5-.34 0-.62.07-.83.22-.2.15-.36.37-.46.65-.1.28-.15.63-.15 1.03 0 .72.11 1.25.34 1.56.22.32.6.48 1.12.48Zm4.22-1.76c0 .33.05.62.16.89.1.26.27.47.5.63.22.16.5.24.83.24.33 0 .61-.08.85-.24.24-.15.4-.37.46-.66h.87c-.06.35-.2.64-.42.88a2.1 2.1 0 0 1-.78.55c-.3.12-.63.18-.96.18-.48 0-.91-.1-1.28-.32a2.2 2.2 0 0 1-.86-.9 3 3 0 0 1-.3-1.41c0-.55.09-1.02.27-1.44.19-.4.46-.73.81-.95.36-.24.79-.35 1.29-.35.49 0 .9.1 1.23.31.34.22.6.51.77.9.18.38.26.83.26 1.35v.34h-3.7Zm0-.63h2.81c0-.3-.05-.56-.15-.8-.1-.24-.25-.42-.46-.56-.2-.14-.46-.21-.77-.21a1.32 1.32 0 0 0-1.28.83c-.1.24-.15.49-.15.75Zm5.63.63c0 .33.06.62.16.89.11.26.28.47.5.63.22.16.5.24.83.24.33 0 .62-.08.85-.24.24-.15.4-.37.46-.66h.88c-.06.35-.2.64-.42.88a2.1 2.1 0 0 1-.79.55c-.3.12-.62.18-.96.18-.48 0-.9-.1-1.27-.32a2.2 2.2 0 0 1-.86-.9 3 3 0 0 1-.31-1.41c0-.55.1-1.02.28-1.44.18-.4.45-.73.8-.95.37-.24.8-.35 1.3-.35.48 0 .9.1 1.23.31.34.22.59.51.76.9.18.38.27.83.27 1.35v.34h-3.7Zm0-.63h2.82c0-.3-.05-.56-.15-.8-.1-.24-.25-.42-.46-.56-.2-.14-.46-.21-.77-.21a1.32 1.32 0 0 0-1.28.83c-.1.24-.16.49-.15.75Zm4.98 3v-5.17h.9v.75a1.6 1.6 0 0 1 .88-.71c.21-.08.46-.12.73-.12.33 0 .63.07.9.2.28.13.5.33.66.61.17.27.25.63.25 1.06V543h-.92v-3.29c0-.4-.1-.7-.32-.9-.21-.2-.49-.29-.82-.29-.24 0-.45.04-.66.12-.2.07-.37.18-.5.34a.85.85 0 0 0-.18.56V543h-.92Zm8.07 1.61v-6.78h.92l.01.9.23-.34a1.89 1.89 0 0 1 .84-.56c.19-.07.4-.1.63-.1.42 0 .78.1 1.1.28.31.2.56.48.73.87.18.38.27.87.27 1.47 0 .59-.09 1.09-.26 1.5a2 2 0 0 1-.74.93c-.33.21-.72.32-1.17.32a1.76 1.76 0 0 1-1.08-.35 1.99 1.99 0 0 1-.55-.68v2.54h-.93Zm2.38-2.23c.43 0 .78-.16 1.05-.49.27-.32.4-.83.4-1.51 0-.6-.12-1.06-.37-1.41-.24-.35-.6-.52-1.08-.52-.48 0-.84.18-1.09.53-.24.36-.37.82-.37 1.4 0 .37.06.7.17 1 .1.3.27.55.49.73.22.18.48.27.8.27Zm3.56.62v-5.17h.88v1c.09-.25.21-.46.37-.62.15-.16.33-.28.53-.36a1.71 1.71 0 0 1 .86-.1c.07 0 .13.02.17.04v.9a1.53 1.53 0 0 0-.39-.06c-.21-.01-.4 0-.58.04-.18.04-.34.1-.48.2a1 1 0 0 0-.32.37 1.2 1.2 0 0 0-.12.54V543H268Zm5.82.1c-.48 0-.9-.1-1.25-.3-.36-.21-.64-.51-.83-.91-.2-.4-.3-.88-.3-1.46 0-.53.1-1 .28-1.41.18-.41.45-.73.8-.95.36-.23.79-.34 1.3-.34.47 0 .89.1 1.24.31s.62.52.82.92c.19.4.29.9.29 1.47 0 .53-.1 1-.27 1.4-.18.4-.44.7-.8.93-.34.23-.77.34-1.28.34Zm0-.73c.3 0 .57-.08.78-.24.21-.15.38-.38.49-.67.1-.3.16-.64.16-1.05 0-.37-.05-.7-.14-.99-.1-.3-.26-.53-.47-.7a1.26 1.26 0 0 0-.82-.26c-.32 0-.58.07-.8.23-.22.15-.38.38-.5.67a3 3 0 0 0-.16 1.05c0 .37.05.7.15 1 .1.3.26.53.47.7.21.17.5.26.84.26Zm5.62-4.64c.37 0 .7.07 1 .22.3.13.54.33.72.6.2.25.31.56.36.92h-.82c-.03-.19-.1-.35-.21-.5-.11-.15-.25-.27-.43-.36a1.35 1.35 0 0 0-.62-.13c-.44 0-.8.15-1.08.48-.28.31-.41.8-.41 1.46 0 .6.12 1.08.38 1.44.25.36.63.53 1.13.53a1.19 1.19 0 0 0 1.25-.99h.8a1.85 1.85 0 0 1-1.08 1.5c-.3.13-.63.2-1 .2-.46 0-.87-.1-1.23-.3-.35-.2-.63-.5-.84-.9-.2-.4-.3-.89-.3-1.47 0-.53.09-1 .27-1.41.19-.4.46-.72.81-.95.36-.23.79-.34 1.3-.34Zm3.99 2.9c0 .33.05.62.16.89.1.26.27.47.5.63.22.16.5.24.83.24.33 0 .61-.08.85-.24.24-.15.39-.37.46-.66h.87c-.06.35-.2.64-.42.88a2.1 2.1 0 0 1-.78.55c-.31.12-.63.18-.96.18-.49 0-.91-.1-1.28-.32a2.2 2.2 0 0 1-.86-.9 3 3 0 0 1-.3-1.41c0-.55.08-1.02.27-1.44.19-.4.46-.73.81-.95.36-.24.79-.35 1.29-.35.48 0 .9.1 1.23.31.34.22.6.51.77.9.17.38.26.83.26 1.35v.34h-3.7Zm0-.63h2.81c0-.3-.05-.56-.15-.8-.1-.24-.25-.42-.46-.56-.2-.14-.46-.21-.77-.21a1.32 1.32 0 0 0-1.28.83c-.1.24-.15.49-.15.75Zm6.77 3.1c-.36 0-.7-.06-1-.17-.31-.1-.57-.28-.77-.52-.2-.24-.33-.54-.39-.91h.84c.05.2.13.37.25.5.13.14.28.24.46.31.19.07.39.1.6.1.35 0 .63-.06.84-.2a.65.65 0 0 0 .32-.6.62.62 0 0 0-.17-.45 1 1 0 0 0-.51-.25l-1.07-.27c-.42-.1-.75-.26-1-.47a1.11 1.11 0 0 1-.38-.9c0-.3.07-.56.22-.8.14-.23.36-.4.66-.54.3-.13.66-.2 1.1-.2.55 0 1 .13 1.35.38.34.25.52.62.54 1.1h-.82a.84.84 0 0 0-.33-.58 1.19 1.19 0 0 0-.76-.22c-.33 0-.6.07-.8.2-.2.13-.31.33-.31.61 0 .18.07.33.22.43.14.1.36.2.65.26l1.03.26c.24.07.44.15.6.25.15.1.27.22.36.35a1.4 1.4 0 0 1 .25.8c0 .31-.07.59-.23.82-.16.22-.39.4-.68.52-.3.13-.65.19-1.07.19Zm5.03 0c-.36 0-.7-.06-1-.17-.31-.1-.57-.28-.77-.52-.2-.24-.33-.54-.39-.91h.84c.05.2.13.37.25.5.13.14.28.24.46.31.19.07.38.1.6.1.35 0 .63-.06.84-.2a.65.65 0 0 0 .32-.6.62.62 0 0 0-.17-.45 1 1 0 0 0-.51-.25l-1.07-.27c-.42-.1-.75-.26-1-.47a1.11 1.11 0 0 1-.38-.9c0-.3.07-.56.22-.8.14-.23.36-.4.66-.54.29-.13.66-.2 1.1-.2.55 0 1 .13 1.35.38.34.25.52.62.54 1.1h-.82a.84.84 0 0 0-.33-.58 1.19 1.19 0 0 0-.76-.22c-.33 0-.6.07-.8.2-.21.13-.31.33-.31.61 0 .18.07.33.22.43.14.1.36.2.65.26l1.03.26c.24.07.44.15.6.25a1.36 1.36 0 0 1 .56.75c.04.14.06.27.06.4 0 .31-.08.58-.24.81-.16.23-.39.4-.68.53-.3.13-.65.19-1.07.19Zm3.94-2.47c0 .33.05.62.16.89.1.26.27.47.5.63.22.16.5.24.83.24.33 0 .61-.08.85-.24.24-.15.4-.37.46-.66h.87c-.06.35-.2.64-.42.88a2.1 2.1 0 0 1-.78.55c-.3.12-.63.18-.96.18-.48 0-.9-.1-1.28-.32a2.2 2.2 0 0 1-.86-.9 3 3 0 0 1-.3-1.41c0-.55.09-1.02.27-1.44.2-.4.46-.73.81-.95.36-.24.79-.35 1.29-.35.49 0 .9.1 1.23.31.34.22.6.51.77.9.18.38.26.83.26 1.35v.34h-3.7Zm0-.63h2.81c0-.3-.05-.56-.15-.8-.1-.24-.25-.42-.46-.56-.2-.14-.46-.21-.77-.21a1.32 1.32 0 0 0-1.28.83c-.1.24-.15.49-.15.75Zm6.84 3.1c-.67 0-1.2-.23-1.6-.69-.39-.46-.59-1.13-.59-2.01 0-.54.08-1.01.24-1.41.16-.4.4-.71.7-.93.32-.22.71-.33 1.18-.33a2.08 2.08 0 0 1 1.15.34 1.73 1.73 0 0 1 .54.58v-3.08h.93V543h-.7l-.1-1.06a1.68 1.68 0 0 1-.47.73c-.13.13-.3.23-.52.31-.2.08-.46.12-.76.12Zm.16-.71c.53 0 .9-.16 1.12-.48.23-.31.34-.84.34-1.56 0-.4-.05-.75-.15-1.03-.1-.28-.25-.5-.46-.65-.2-.14-.48-.22-.83-.22-.42 0-.77.15-1.04.45-.26.3-.4.79-.4 1.45 0 .65.12 1.15.36 1.5.25.36.6.54 1.06.54Zm3.7.61v-1.18h1.1V543h-1.1Zm4.18-6.38v-.85h5.47v.85h-2.2V543h-.94v-6.38h-2.33Zm6.47 6.38v-7.43h.9v3.02a1.7 1.7 0 0 1 .88-.7c.22-.09.46-.13.74-.13.33 0 .64.07.91.2a1.4 1.4 0 0 1 .89 1.35V543h-.92v-3.51c0-.31-.11-.55-.32-.72a1.27 1.27 0 0 0-.83-.25c-.23 0-.45.04-.65.12-.2.07-.37.18-.5.34a.88.88 0 0 0-.18.57V543h-.92Zm6.42-2.37c0 .33.06.62.16.89.11.26.28.47.5.63.22.16.5.24.83.24.33 0 .62-.08.85-.24.24-.15.4-.37.46-.66h.88c-.07.35-.2.64-.42.88a2.1 2.1 0 0 1-.79.55c-.3.12-.62.18-.96.18-.48 0-.9-.1-1.27-.32a2.19 2.19 0 0 1-.86-.9 3 3 0 0 1-.31-1.41c0-.55.1-1.02.28-1.44.18-.4.45-.73.8-.95.36-.24.8-.35 1.3-.35.48 0 .9.1 1.23.31.33.22.59.51.76.9.18.38.27.83.27 1.35v.34h-3.7Zm0-.63h2.82c0-.3-.05-.56-.15-.8-.1-.24-.26-.42-.46-.56-.2-.14-.46-.21-.77-.21a1.32 1.32 0 0 0-1.28.83c-.1.24-.16.49-.15.75Zm-168.48 12.5h-1.17v3.22c0 .18.02.32.06.4.04.09.1.14.2.16.09.03.21.04.38.04h.56v.62l-.29.06c-.13.02-.28.02-.47.02-.36 0-.64-.04-.83-.14a.83.83 0 0 1-.42-.43 1.87 1.87 0 0 1-.11-.7v-3.25h-.84v-.67h.86l.23-1.5h.67v1.5h1.17v.67Zm3.25 4.6c-.48 0-.9-.1-1.25-.3-.36-.21-.64-.51-.83-.91-.2-.4-.3-.88-.3-1.46 0-.53.1-1 .28-1.41.18-.41.45-.73.8-.95.36-.23.79-.34 1.3-.34.47 0 .89.1 1.24.31s.62.52.82.92c.19.4.29.9.29 1.47 0 .53-.1 1-.27 1.4-.18.4-.44.7-.8.93-.34.23-.77.34-1.28.34Zm0-.73c.3 0 .57-.08.78-.24.22-.15.38-.38.49-.67.1-.3.16-.64.16-1.05 0-.37-.05-.7-.14-.99-.1-.3-.25-.53-.47-.7a1.26 1.26 0 0 0-.82-.26c-.32 0-.58.07-.8.23-.22.15-.38.38-.5.67a3 3 0 0 0-.16 1.05c0 .37.05.7.15 1 .1.3.26.53.47.7.22.17.5.26.84.26Zm6.02-3.87h-1.17v3.22c0 .18.02.32.06.4.04.09.1.14.2.16.09.03.21.04.37.04h.57v.62l-.3.06c-.12.02-.28.02-.47.02-.35 0-.63-.04-.83-.14a.83.83 0 0 1-.41-.43 1.87 1.87 0 0 1-.12-.7v-3.25h-.84v-.67h.87l.22-1.5h.68v1.5h1.17v.67Zm2.72 4.6c-.34 0-.63-.06-.89-.18-.25-.12-.46-.29-.6-.51-.15-.22-.22-.5-.22-.81 0-.57.2-1 .6-1.28.4-.28 1.04-.43 1.93-.45l.92-.02v-.41a1 1 0 0 0-.28-.75c-.2-.19-.49-.28-.89-.28-.3 0-.56.07-.78.21a.98.98 0 0 0-.44.67H169c.02-.34.11-.62.28-.85.17-.23.4-.41.71-.53.3-.12.67-.18 1.09-.18.45 0 .82.06 1.12.19.3.13.52.31.67.56.15.25.22.55.22.91V557h-.79l-.06-.97c-.2.4-.46.68-.77.84-.3.15-.64.23-1.01.23Zm.28-.67c.17 0 .34-.03.51-.09.17-.06.33-.15.48-.25.14-.12.25-.24.34-.37a.8.8 0 0 0 .13-.42v-.88l-.77.01c-.4 0-.72.05-.99.12-.26.07-.46.19-.6.35a.93.93 0 0 0-.19.61c0 .29.1.52.3.68.2.16.47.24.79.24Zm5.24.64c-.28 0-.51-.04-.68-.12a.96.96 0 0 1-.58-.75 3.02 3.02 0 0 1-.05-.53v-6.1h.91v6.01c0 .26.05.45.15.58.1.13.25.2.43.22h.28v.6a1.75 1.75 0 0 1-.46.09Zm5.4.03a2.1 2.1 0 0 1-.88-.18c-.26-.12-.46-.29-.6-.51-.15-.22-.22-.5-.22-.81 0-.57.2-1 .6-1.28.4-.28 1.04-.43 1.92-.45l.93-.02v-.41a1 1 0 0 0-.28-.75c-.2-.19-.49-.28-.89-.28-.3 0-.56.07-.78.21a.98.98 0 0 0-.44.67h-.81c.02-.34.11-.62.28-.85.17-.23.4-.41.71-.53.3-.12.67-.18 1.09-.18.44 0 .82.06 1.12.19.3.13.52.31.66.56.16.25.23.55.23.91V557h-.79l-.06-.97c-.2.4-.46.68-.77.84-.3.15-.64.23-1.01.23Zm.28-.67c.18 0 .35-.03.52-.09.17-.06.33-.15.48-.25.14-.12.25-.24.34-.37a.83.83 0 0 0 .13-.42v-.88l-.77.01c-.4 0-.72.05-.99.12-.26.07-.46.19-.6.35a.93.93 0 0 0-.19.61c0 .29.1.52.3.68.2.16.47.24.78.24Zm3.94.57v-5.17h.89v.75c.14-.23.34-.43.59-.6.25-.16.57-.25.97-.25a1.83 1.83 0 0 1 1.11.38c.17.13.3.28.38.47a1.83 1.83 0 0 1 1.58-.85c.18 0 .37.03.56.09.2.05.38.14.55.28.17.14.3.33.41.58.11.24.16.56.16.94V557h-.93v-3.29c0-.31-.05-.56-.15-.73a.83.83 0 0 0-.4-.36c-.15-.07-.32-.1-.5-.1-.17 0-.34.03-.52.09s-.33.17-.46.32a.93.93 0 0 0-.19.62V557h-.92v-3.56c0-.2-.05-.37-.16-.51a1 1 0 0 0-.4-.31c-.17-.07-.33-.1-.49-.1-.17 0-.35.03-.53.1a1.1 1.1 0 0 0-.45.34.92.92 0 0 0-.18.58V557h-.92Zm10.7.1c-.47 0-.89-.1-1.24-.3-.36-.21-.64-.51-.83-.91-.2-.4-.3-.88-.3-1.46 0-.53.1-1 .28-1.41.18-.41.45-.73.8-.95.36-.23.79-.34 1.3-.34.47 0 .89.1 1.24.31s.62.52.82.92c.19.4.29.9.29 1.47 0 .53-.1 1-.27 1.4-.18.4-.44.7-.8.93-.34.23-.77.34-1.28.34Zm0-.73c.32 0 .58-.08.8-.24.2-.15.37-.38.48-.67.1-.3.16-.64.16-1.05 0-.37-.05-.7-.14-.99-.1-.3-.25-.53-.47-.7a1.26 1.26 0 0 0-.82-.26c-.32 0-.58.07-.8.23-.22.15-.38.38-.5.67a3 3 0 0 0-.16 1.05c0 .37.05.7.15 1 .1.3.26.53.47.7.22.17.5.26.84.26Zm5.38.73c-.27 0-.53-.04-.77-.12a1.96 1.96 0 0 1-.63-.33 1.6 1.6 0 0 1-.43-.54c-.1-.23-.16-.48-.16-.77v-3.51h.93v3.41c0 .34.1.62.3.83.22.2.53.31.95.31.38 0 .69-.1.92-.3.23-.2.35-.5.35-.88v-3.37h.92V557h-.74l-.1-.99a1.35 1.35 0 0 1-.86.99c-.21.07-.44.1-.68.1Zm3.89-.1v-5.17h.9v.75a1.6 1.6 0 0 1 .88-.71c.21-.08.46-.12.73-.12.33 0 .63.07.9.2.28.13.5.33.66.61a2 2 0 0 1 .25 1.06V557h-.92v-3.29c0-.4-.1-.7-.32-.9-.21-.2-.48-.29-.82-.29-.23 0-.45.04-.66.12-.2.07-.36.18-.49.34a.85.85 0 0 0-.19.56V557h-.92Zm8.15-4.5h-1.16v3.22c0 .18.02.32.05.4.04.09.1.14.2.16.1.03.22.04.38.04h.56v.62l-.29.06c-.12.02-.28.02-.47.02-.36 0-.63-.04-.83-.14a.83.83 0 0 1-.42-.43 1.87 1.87 0 0 1-.11-.7v-3.25h-.84v-.67h.86l.23-1.5h.68v1.5h1.16v.67Zm5.38 4.6c-.68 0-1.2-.23-1.6-.69-.4-.46-.59-1.13-.59-2.01 0-.54.08-1.01.23-1.41.16-.4.4-.71.72-.93.3-.22.7-.33 1.16-.33a2.08 2.08 0 0 1 1.16.34 1.73 1.73 0 0 1 .54.58v-3.08h.93V557h-.7l-.1-1.06-.16.35a1.58 1.58 0 0 1-.83.69c-.2.08-.46.12-.76.12Zm.16-.71c.52 0 .9-.16 1.12-.48.23-.31.34-.84.34-1.56 0-.4-.06-.75-.16-1.03s-.25-.5-.46-.65c-.2-.14-.48-.22-.82-.22-.43 0-.77.15-1.04.45-.27.3-.4.79-.4 1.45 0 .65.12 1.15.36 1.5.24.36.6.54 1.06.54Zm4.58-1.76c0 .33.05.62.16.89.1.26.27.47.5.63.22.16.5.24.83.24.33 0 .61-.08.85-.24.24-.15.4-.37.46-.66h.87c-.06.35-.2.64-.42.88-.21.25-.48.43-.78.55-.3.12-.63.18-.96.18-.49 0-.91-.1-1.28-.32a2.2 2.2 0 0 1-.86-.9c-.2-.4-.3-.87-.3-1.41 0-.55.09-1.02.27-1.44.19-.4.46-.73.81-.95.36-.24.79-.35 1.29-.35.48 0 .9.1 1.23.31.34.22.6.51.77.9.17.38.26.83.26 1.35v.34h-3.7Zm0-.63h2.81c0-.3-.05-.56-.15-.8-.1-.24-.25-.42-.46-.56-.2-.14-.46-.21-.77-.21a1.32 1.32 0 0 0-1.28.83c-.1.24-.15.49-.15.75Zm6.84 3.1c-.67 0-1.2-.23-1.6-.69-.4-.46-.59-1.13-.59-2.01 0-.54.08-1.01.24-1.41.16-.4.4-.71.7-.93.32-.22.71-.33 1.18-.33a2.08 2.08 0 0 1 1.15.34 1.73 1.73 0 0 1 .54.58v-3.08h.93V557h-.7l-.1-1.06-.16.35a1.58 1.58 0 0 1-.83.69c-.2.08-.46.12-.76.12Zm.16-.71c.52 0 .9-.16 1.12-.48.23-.31.34-.84.34-1.56 0-.4-.05-.75-.15-1.03-.1-.28-.25-.5-.46-.65-.21-.14-.49-.22-.83-.22-.42 0-.77.15-1.04.45-.27.3-.4.79-.4 1.45 0 .65.12 1.15.36 1.5.24.36.6.54 1.06.54Zm5.82.71c-.27 0-.53-.04-.77-.12a1.98 1.98 0 0 1-.63-.33 1.6 1.6 0 0 1-.43-.54c-.1-.23-.16-.48-.16-.77v-3.51h.93v3.41c0 .34.1.62.3.83.22.2.53.31.95.31.38 0 .69-.1.92-.3.23-.2.35-.5.35-.88v-3.37h.92V557h-.74l-.1-.99a1.34 1.34 0 0 1-.86.99c-.21.07-.44.1-.68.1Zm5.88-5.37c.37 0 .7.07 1 .22.3.13.54.33.73.6.19.25.3.56.35.92h-.82a1.15 1.15 0 0 0-.63-.86 1.35 1.35 0 0 0-.62-.13c-.45 0-.8.15-1.08.48-.28.31-.42.8-.42 1.46 0 .6.13 1.08.38 1.44.26.36.64.53 1.13.53a1.2 1.2 0 0 0 1.25-.99h.8a1.85 1.85 0 0 1-1.08 1.5c-.3.13-.62.2-.99.2-.46 0-.87-.1-1.23-.3a2.1 2.1 0 0 1-.84-.9c-.2-.4-.3-.89-.3-1.47 0-.53.08-1 .27-1.41.18-.4.45-.72.8-.95.36-.23.8-.34 1.3-.34Zm5.8.77h-1.17v3.22c0 .18.02.32.05.4.04.09.1.14.2.16.1.03.22.04.38.04h.56v.62l-.29.06c-.12.02-.28.02-.47.02-.36 0-.63-.04-.83-.14a.83.83 0 0 1-.42-.43 1.89 1.89 0 0 1-.11-.7v-3.25h-.84v-.67h.86l.23-1.5h.68v1.5h1.16v.67Zm1.84 2.13c0 .33.06.62.17.89.1.26.27.47.49.63.22.16.5.24.83.24.34 0 .62-.08.85-.24.25-.15.4-.37.47-.66h.87c-.06.35-.2.64-.42.88a2.1 2.1 0 0 1-.78.55c-.31.12-.63.18-.97.18-.48 0-.9-.1-1.27-.32a2.2 2.2 0 0 1-.86-.9 3 3 0 0 1-.31-1.41c0-.55.1-1.02.28-1.44.19-.4.46-.73.81-.95.36-.24.78-.35 1.28-.35s.9.1 1.24.31c.34.22.6.51.77.9.17.38.26.83.26 1.35v.34h-3.7Zm.01-.63h2.81c0-.3-.05-.56-.15-.8-.1-.24-.25-.42-.46-.56-.2-.14-.46-.21-.77-.21a1.32 1.32 0 0 0-1.28.83c-.1.24-.15.49-.15.75Zm6.83 3.1c-.66 0-1.2-.23-1.59-.69-.4-.46-.59-1.13-.59-2.01 0-.54.08-1.01.23-1.41.16-.4.4-.71.72-.93.3-.22.7-.33 1.16-.33a2.08 2.08 0 0 1 1.16.34 1.73 1.73 0 0 1 .54.58v-3.08h.93V557h-.7l-.1-1.06-.16.35a1.59 1.59 0 0 1-.83.69c-.2.08-.46.12-.77.12Zm.17-.71c.52 0 .9-.16 1.12-.48.23-.31.34-.84.34-1.56 0-.4-.06-.75-.15-1.03-.1-.28-.25-.5-.47-.65-.2-.14-.48-.22-.82-.22-.43 0-.77.15-1.04.45-.27.3-.4.79-.4 1.45 0 .65.12 1.15.36 1.5.24.36.6.54 1.06.54Zm9.14-4.56v.67h-1.25v4.5h-.93v-4.5h-1.1v-.67h1.1v-.8c0-.41.1-.72.31-.93.21-.22.53-.33.94-.33h.98v.65h-.77c-.21 0-.36.06-.43.18a.92.92 0 0 0-.12.51v.72h1.27Zm1.14 5.17v-5.17h.88v1c.1-.25.21-.46.37-.62.16-.16.33-.28.53-.36a1.71 1.71 0 0 1 .86-.1c.07 0 .13.02.17.04v.9a1.53 1.53 0 0 0-.39-.06c-.2-.01-.4 0-.58.04-.18.04-.34.1-.48.2a1 1 0 0 0-.32.37 1.2 1.2 0 0 0-.12.54V557h-.92Zm5.82.1c-.48 0-.9-.1-1.25-.3-.36-.21-.63-.51-.83-.91-.2-.4-.3-.88-.3-1.46 0-.53.1-1 .28-1.41.18-.41.45-.73.8-.95.36-.23.8-.34 1.3-.34.48 0 .89.1 1.24.31s.63.52.82.92c.2.4.29.9.29 1.47 0 .53-.1 1-.27 1.4-.18.4-.44.7-.8.93-.34.23-.77.34-1.28.34Zm0-.73c.3 0 .57-.08.78-.24.22-.15.38-.38.49-.67.1-.3.16-.64.16-1.05 0-.37-.04-.7-.14-.99-.1-.3-.25-.53-.47-.7a1.26 1.26 0 0 0-.82-.26c-.31 0-.58.07-.8.23-.21.15-.38.38-.5.67a3 3 0 0 0-.16 1.05c0 .37.05.7.15 1 .1.3.26.53.47.7.22.17.5.26.84.26Zm3.56.63v-5.17h.89v.75c.14-.23.34-.43.59-.6.25-.16.57-.25.97-.25a1.83 1.83 0 0 1 1.11.38c.17.13.3.28.38.47a1.83 1.83 0 0 1 1.57-.85c.19 0 .38.03.57.09.2.05.38.14.55.28.17.14.3.33.41.58.11.24.16.56.16.94V557h-.93v-3.29c0-.31-.05-.56-.15-.73a.83.83 0 0 0-.4-.36c-.15-.07-.32-.1-.5-.1-.17 0-.34.03-.52.09s-.33.17-.46.32a.93.93 0 0 0-.19.62V557h-.92v-3.56c0-.2-.05-.37-.16-.51a1 1 0 0 0-.4-.31c-.17-.07-.33-.1-.49-.1-.17 0-.35.03-.53.1a1.1 1.1 0 0 0-.45.34.92.92 0 0 0-.18.58V557h-.92Zm11.4 1.65c-.3 0-.51-.02-.63-.06l-.17-.07v-.6l.53.01c.2 0 .35 0 .48-.04a.88.88 0 0 0 .3-.13.62.62 0 0 0 .18-.2c.04-.06.08-.13.1-.2l.18-.49-2.02-5.04h.94l1.52 3.99 1.52-3.99h.9l-2.18 5.56c-.13.33-.28.58-.45.76-.16.19-.34.32-.55.39-.2.07-.41.11-.65.11Zm6.69-1.55c-.48 0-.9-.1-1.25-.3a2.1 2.1 0 0 1-.83-.91c-.2-.4-.3-.88-.3-1.46 0-.53.1-1 .28-1.41.18-.41.45-.73.8-.95.36-.23.8-.34 1.3-.34.48 0 .89.1 1.24.31s.63.52.82.92c.2.4.29.9.29 1.47 0 .53-.1 1-.27 1.4-.18.4-.44.7-.8.93-.34.23-.77.34-1.28.34Zm0-.73c.3 0 .57-.08.78-.24.22-.15.38-.38.49-.67.1-.3.16-.64.16-1.05 0-.37-.04-.7-.14-.99-.1-.3-.25-.53-.47-.7a1.26 1.26 0 0 0-.82-.26c-.31 0-.58.07-.8.23-.21.15-.38.38-.5.67a3 3 0 0 0-.16 1.05c0 .37.05.7.15 1 .1.3.26.53.47.7.22.17.5.26.84.26Zm5.37.73c-.27 0-.52-.04-.76-.12a1.96 1.96 0 0 1-.63-.33 1.57 1.57 0 0 1-.6-1.31v-3.51h.93v3.41c0 .34.1.62.31.83.21.2.53.31.95.31.38 0 .68-.1.91-.3.23-.2.35-.5.35-.88v-3.37h.92V557h-.73l-.1-.99c-.06.26-.17.47-.32.63-.15.16-.33.28-.55.36-.2.07-.44.1-.68.1Zm3.9-.1v-5.17h.87v1a1.61 1.61 0 0 1 .9-.98 1.7 1.7 0 0 1 .86-.1c.07 0 .13.02.17.04v.9a1.56 1.56 0 0 0-.39-.06c-.2-.01-.4 0-.58.04-.18.04-.34.1-.48.2a1 1 0 0 0-.32.37 1.2 1.2 0 0 0-.12.54V557h-.92Zm-147 14.1c-.34 0-.63-.06-.89-.18s-.46-.29-.6-.51c-.15-.22-.22-.5-.22-.81 0-.57.2-1 .6-1.28.4-.28 1.04-.43 1.92-.45l.93-.02v-.41a1 1 0 0 0-.28-.75c-.2-.19-.49-.28-.89-.28-.3 0-.56.07-.78.21a.98.98 0 0 0-.44.67h-.81c.01-.34.11-.62.28-.85.17-.23.4-.41.71-.53.3-.12.67-.18 1.09-.18.44 0 .82.06 1.12.19.3.13.52.31.66.56.16.25.23.55.23.91V571h-.79l-.06-.97c-.2.4-.46.68-.77.84-.3.15-.65.23-1.02.23Zm.28-.67c.17 0 .34-.03.51-.09.17-.06.33-.15.47-.25.15-.12.26-.24.34-.37a.8.8 0 0 0 .14-.42v-.88l-.77.01c-.4 0-.72.05-.99.12-.26.07-.46.19-.6.35a.93.93 0 0 0-.19.61c0 .29.1.52.3.68.2.16.47.24.78.24Zm5.99-4.7c.37 0 .7.07 1 .22.3.13.54.33.72.6.2.25.31.56.36.92h-.82a1.16 1.16 0 0 0-.63-.86 1.35 1.35 0 0 0-.63-.13c-.44 0-.8.15-1.07.48-.28.31-.42.8-.42 1.46 0 .6.13 1.08.38 1.44.26.36.63.53 1.13.53a1.2 1.2 0 0 0 1.25-.99h.8a1.86 1.86 0 0 1-1.08 1.5c-.3.13-.62.2-.99.2-.46 0-.88-.1-1.23-.3a2.1 2.1 0 0 1-.84-.9c-.2-.4-.31-.89-.31-1.47 0-.53.1-1 .28-1.41.18-.4.45-.72.8-.95.36-.23.8-.34 1.3-.34Zm5.39 0c.37 0 .7.07 1 .22.3.13.54.33.72.6.2.25.31.56.36.92h-.82c-.03-.19-.1-.35-.21-.5-.1-.15-.25-.27-.42-.36a1.35 1.35 0 0 0-.63-.13c-.44 0-.8.15-1.08.48-.27.31-.41.8-.41 1.46 0 .6.13 1.08.38 1.44.26.36.63.53 1.13.53a1.2 1.2 0 0 0 1.25-.99h.8a1.85 1.85 0 0 1-1.08 1.5c-.3.13-.62.2-.99.2-.46 0-.88-.1-1.24-.3a2.1 2.1 0 0 1-.84-.9c-.2-.4-.3-.89-.3-1.47 0-.53.1-1 .28-1.41.18-.4.45-.72.8-.95.36-.23.8-.34 1.3-.34Zm5.39 5.37c-.48 0-.9-.1-1.25-.3-.36-.21-.64-.51-.83-.91-.2-.4-.3-.88-.3-1.46 0-.53.1-1 .28-1.41.18-.41.45-.73.8-.95.36-.23.79-.34 1.3-.34.47 0 .89.1 1.24.31s.62.52.82.92c.19.4.29.9.29 1.47 0 .53-.1 1-.27 1.4-.18.4-.44.7-.8.93-.34.23-.77.34-1.28.34Zm0-.73c.3 0 .57-.08.78-.24.21-.15.38-.38.49-.67.1-.3.16-.64.16-1.05 0-.37-.05-.7-.14-.99-.1-.3-.26-.53-.47-.7a1.26 1.26 0 0 0-.82-.26c-.32 0-.58.07-.8.23-.22.15-.38.38-.5.67a3 3 0 0 0-.16 1.05c0 .37.05.7.15 1 .1.3.26.53.47.7.21.17.5.26.84.26Zm5.37.73c-.27 0-.53-.04-.77-.12a1.96 1.96 0 0 1-.63-.33 1.6 1.6 0 0 1-.43-.54c-.1-.23-.16-.48-.16-.77v-3.51h.93v3.41c0 .34.1.62.3.83.22.2.53.31.95.31.38 0 .69-.1.92-.3.23-.2.35-.5.35-.88v-3.37h.92V571h-.74l-.1-.99a1.35 1.35 0 0 1-.86.99c-.21.07-.44.1-.68.1Zm3.89-.1v-5.17h.9v.75a1.6 1.6 0 0 1 .88-.71c.21-.08.46-.12.73-.12.33 0 .63.07.9.2.28.13.5.33.66.61a2 2 0 0 1 .25 1.06V571h-.92v-3.29c0-.4-.1-.7-.32-.9-.21-.2-.48-.29-.82-.29-.23 0-.45.04-.66.12-.2.07-.36.18-.5.34a.85.85 0 0 0-.18.56V571h-.92Zm8.15-4.5h-1.16v3.22c0 .18.02.32.05.4.04.09.1.14.2.16.1.03.22.04.38.04h.56v.62l-.29.06c-.12.02-.28.02-.47.02-.36 0-.64-.04-.83-.14a.83.83 0 0 1-.42-.43 1.87 1.87 0 0 1-.11-.7v-3.25h-.84v-.67h.86l.23-1.5h.68v1.5h1.16v.67Zm4.64-.67V571h-.9v-5.17h.9Zm.02-2.06v.97h-.95v-.97h.95Zm3.44 7.33c-.36 0-.7-.06-1-.17-.31-.1-.57-.28-.77-.52-.2-.24-.33-.54-.39-.91h.84c.05.2.13.37.25.5.13.14.28.24.46.31.19.07.39.1.6.1.35 0 .63-.06.84-.2a.65.65 0 0 0 .32-.6.61.61 0 0 0-.17-.45.99.99 0 0 0-.51-.25l-1.07-.27c-.42-.1-.75-.26-1-.47a1.11 1.11 0 0 1-.38-.9c0-.3.07-.56.22-.8.15-.23.37-.4.66-.54.3-.13.66-.2 1.1-.2.55 0 1 .13 1.35.38.34.25.52.62.54 1.1h-.82a.84.84 0 0 0-.33-.58 1.19 1.19 0 0 0-.76-.22c-.33 0-.6.07-.8.2-.2.13-.31.33-.31.61 0 .18.07.33.22.43.15.1.36.2.65.26l1.03.26c.24.07.44.15.6.25a1.36 1.36 0 0 1 .56.75c.04.14.06.27.06.4 0 .31-.08.58-.24.81-.16.23-.38.4-.68.53-.3.13-.65.19-1.07.19Zm11.23-2.86c0 .59-.1 1.1-.28 1.52-.2.43-.5.76-.93 1-.42.23-.99.34-1.69.34a3.5 3.5 0 0 1-1.69-.35 2.09 2.09 0 0 1-.91-1 3.9 3.9 0 0 1-.28-1.55v-4.43h1.48v4.53c0 .55.13.94.39 1.19s.6.37 1.01.37c.28 0 .53-.05.74-.16.21-.11.38-.28.5-.5.12-.24.18-.53.18-.9v-4.53H211v4.48Zm4.17 2.86c-.36 0-.71-.05-1.05-.13a3.3 3.3 0 0 1-.94-.41c-.29-.18-.52-.4-.7-.67-.2-.27-.3-.6-.34-.96h1.5c.05.23.14.41.28.56.14.15.32.26.53.35a2.5 2.5 0 0 0 1.44.02c.22-.07.4-.17.53-.3a.7.7 0 0 0 .2-.51.63.63 0 0 0-.16-.45c-.11-.12-.26-.22-.44-.29-.18-.07-.4-.13-.62-.18l-1.25-.25c-.55-.1-.98-.33-1.3-.65a1.9 1.9 0 0 1-.5-1.34c0-.45.12-.84.36-1.17.25-.33.58-.59 1-.77.42-.18.9-.27 1.42-.27.62 0 1.15.1 1.57.3.43.19.75.45.97.78a2 2 0 0 1 .35 1.11h-1.47a1.1 1.1 0 0 0-.23-.6 1.07 1.07 0 0 0-.49-.33 2.1 2.1 0 0 0-.67-.1c-.2 0-.37.02-.53.06-.16.05-.3.11-.4.19a.83.83 0 0 0-.26.27.72.72 0 0 0-.09.37c0 .2.07.38.21.5.14.13.4.24.79.32l1.24.26c.44.09.8.22 1.05.39a1.85 1.85 0 0 1 .85 1.22c.04.23.07.43.07.62 0 .38-.13.74-.37 1.05-.25.31-.59.56-1.02.74a4 4 0 0 1-1.53.27Zm9.06 0c-.87 0-1.57-.17-2.11-.52a2.08 2.08 0 0 1-.93-1.62l1.52-.03c.08.34.25.59.51.76.27.17.6.25 1 .25.24 0 .45-.03.64-.11s.33-.19.44-.32c.1-.14.16-.3.16-.47 0-.26-.09-.46-.26-.59a2.01 2.01 0 0 0-.78-.32l-1.19-.25c-.55-.12-.99-.33-1.32-.66-.33-.33-.5-.77-.5-1.33-.01-.45.11-.84.36-1.17a2.4 2.4 0 0 1 1.01-.77 3.7 3.7 0 0 1 2.86.02c.4.2.71.46.92.79.22.33.32.69.32 1.09l-1.48.02a1.4 1.4 0 0 0-.32-.75c-.16-.19-.44-.28-.83-.28-.2 0-.38.02-.53.06-.16.05-.3.11-.4.19a.8.8 0 0 0-.27.27.75.75 0 0 0-.08.37c0 .2.07.37.2.5.15.12.42.23.81.33l1.17.29c.66.15 1.13.42 1.42.8.3.38.44.84.44 1.38 0 .42-.12.79-.35 1.1-.22.3-.55.54-.96.72-.42.16-.9.25-1.47.25Zm-.63-8.37h1.27v1.3h-1.27v-1.3Zm-.02 7.92h1.26v1.3h-1.26v-1.3Zm5.64.35v-5.41h-1.29v-.83c.41 0 .75-.04 1-.12.26-.07.45-.19.58-.34.12-.14.2-.32.22-.53h.97V571h-1.48Zm5.79-7.33c.86 0 1.54.32 2.03.97.5.63.75 1.56.75 2.76 0 1.2-.25 2.12-.74 2.75-.49.64-1.17.96-2.04.96-.88 0-1.56-.32-2.06-.96a4.44 4.44 0 0 1-.73-2.75c0-.8.11-1.47.34-2.03.22-.56.55-.98.96-1.26.42-.3.91-.44 1.49-.44Zm0 6.25a1 1 0 0 0 .94-.58c.2-.39.3-1.03.3-1.94 0-.92-.1-1.58-.3-1.98a1 1 0 0 0-.95-.6c-.42 0-.74.2-.95.6-.2.4-.31 1.07-.31 1.99 0 .9.1 1.54.3 1.93.21.38.53.57.97.57Zm6.9-6.15h1.43v4.4h1.12v1.23h-1.12v1.6h-1.4v-1.6h-3.33v-1.2l3.3-4.43Zm-1.95 4.4h1.98v-2.64l-1.98 2.64Zm5.28 2.83v-1.59h1.6V571h-1.6Zm5.3.11c-.45 0-.87-.09-1.26-.26-.4-.17-.71-.42-.96-.73a2 2 0 0 1-.41-1.11h1.39c.06.28.19.5.4.69.2.17.46.25.78.25.34 0 .65-.08.9-.24.27-.16.47-.42.6-.78.13-.36.18-.82.14-1.4-.1.18-.23.33-.4.47-.16.13-.35.23-.57.3a2.97 2.97 0 0 1-2.04-.17 2.17 2.17 0 0 1-.89-.79 2.26 2.26 0 0 1-.32-1.22 2.35 2.35 0 0 1 1.29-2.13c.4-.22.89-.32 1.43-.32.61 0 1.14.15 1.59.44.44.29.79.7 1.02 1.24.24.53.36 1.16.36 1.88 0 .87-.12 1.59-.37 2.16-.24.58-.6 1-1.05 1.3-.45.28-1 .42-1.63.42Zm.13-3.87c.2 0 .4-.04.59-.13.19-.1.35-.21.47-.35a.66.66 0 0 0 .19-.43c0-.33-.05-.6-.16-.84a1.2 1.2 0 0 0-.44-.53c-.19-.12-.4-.19-.65-.19a1.13 1.13 0 0 0-1.04.61c-.1.2-.16.42-.16.67 0 .38.11.68.33.88.22.21.51.32.87.32Zm6.56-3.57c.86 0 1.54.32 2.04.97.5.63.74 1.56.74 2.76 0 1.2-.24 2.12-.73 2.75-.5.64-1.17.96-2.05.96-.87 0-1.56-.32-2.05-.96a4.44 4.44 0 0 1-.74-2.75c0-.8.12-1.47.34-2.03a2.54 2.54 0 0 1 2.45-1.7Zm0 6.25a1 1 0 0 0 .95-.58c.2-.39.3-1.03.3-1.94 0-.92-.1-1.58-.3-1.98a1 1 0 0 0-.95-.6c-.43 0-.75.2-.96.6-.2.4-.3 1.07-.3 1.99 0 .9.1 1.54.3 1.93.21.38.53.57.96.57ZM261 571v-1.18h1.1V571h-1.1Z" fill="#36536B"/></g><defs><linearGradient id="c" x1="127.02" y1="334" x2="127.02" y2="346.32" gradientUnits="userSpaceOnUse"><stop stop-color="#454545"/><stop offset=".23" stop-color="#999"/><stop offset="1" stop-color="#fff"/></linearGradient><linearGradient id="d" x1="377.1" y1="419.75" x2="367.64" y2="419.75" gradientUnits="userSpaceOnUse"><stop stop-color="#fff" stop-opacity=".01"/><stop offset=".22" stop-color="#BABABA"/><stop offset=".55" stop-color="#fff" stop-opacity=".01"/><stop offset="1" stop-color="#fff" stop-opacity=".01"/></linearGradient><linearGradient id="e" x1="119.57" y1="419.49" x2="129.04" y2="419.49" gradientUnits="userSpaceOnUse"><stop stop-color="#fff" stop-opacity=".01"/><stop offset=".22" stop-color="#BABABA"/><stop offset=".55" stop-color="#fff" stop-opacity=".01"/><stop offset="1" stop-color="#fff" stop-opacity=".01"/></linearGradient><linearGradient id="h" x1="132.91" y1="346.44" x2="132.91" y2="807.82" gradientUnits="userSpaceOnUse"><stop stop-color="#9CB6CD"/><stop offset=".42" stop-color="#9AB3CA"/><stop offset=".72" stop-color="#557496"/><stop offset="1" stop-color="#475178"/></linearGradient><clipPath id="f"><path fill="#fff" transform="translate(132.07 346.44)" d="M0 0h233v465H0z"/></clipPath><clipPath id="i"><path fill="#fff" transform="translate(139 501)" d="M0 0h218v87H0z"/></clipPath><clipPath id="k"><path fill="#fff" transform="translate(155 517)" d="M0 0h187v11H0z"/></clipPath><filter id="b" x="64.57" y="279.57" width="417.65" height="658.86" filterUnits="userSpaceOnUse" color-interpolation-filters="sRGB"><feFlood flood-opacity="0" result="BackgroundImageFix"/><feColorMatrix in="SourceAlpha" values="0 0 0 0 0 0 0 0 0 0 0 0 0 0 0 0 0 0 127 0" result="hardAlpha"/><feOffset dx="25" dy="25"/><feGaussianBlur stdDeviation="40"/><feColorMatrix values="0 0 0 0 0.212302 0 0 0 0 0.32521 0 0 0 0 0.419299 0 0 0 0.300727 0"/><feBlend in2="BackgroundImageFix" result="effect1_dropShadow_2104_2"/><feBlend in="SourceGraphic" in2="effect1_dropShadow_2104_2" result="shape"/></filter><filter id="j" x="134" y="496" width="248" height="117" filterUnits="userSpaceOnUse" color-interpolation-filters="sRGB"><feFlood flood-opacity="0" result="BackgroundImageFix"/><feColorMatrix in="SourceAlpha" values="0 0 0 0 0 0 0 0 0 0 0 0 0 0 0 0 0 0 127 0" result="hardAlpha"/><feMorphology radius="10" in="SourceAlpha" result="effect1_dropShadow_2104_2"/><feOffset dx="10" dy="10"/><feGaussianBlur stdDeviation="12.5"/><feColorMatrix values="0 0 0 0 0.212302 0 0 0 0 0.32521 0 0 0 0 0.419299 0 0 0 0.25 0"/><feBlend in2="BackgroundImageFix" result="effect1_dropShadow_2104_2"/><feBlend in="SourceGraphic" in2="effect1_dropShadow_2104_2" result="shape"/></filter></defs></svg>