<svg width="40" height="50" fill="none" xmlns="http://www.w3.org/2000/svg"><path fill-rule="evenodd" clip-rule="evenodd" d="m27 3.38-3.1 9.04H6.21l-3.1-9.04L8.25 0l3.4 2.23L15.06 0l3.4 2.23L21.85 0l5.13 3.38ZM6.8 15.34h16.5v2.9H6.8v-2.9Zm15.15 16.9h7.4c-.15-.44-.33-.86-.52-1.27l-4.67-9.8H5.96l-4.68 9.8a13.04 13.04 0 0 0 .75 12.63 13.04 13.04 0 0 0 11.09 6.1h3.87c.7 0 1.37-.05 2.05-.15v-8.58h2.9v-8.74Zm-3.29 4.65c-.18.37-.42.67-.72.91s-.64.42-1.03.54c-.38.12-.78.2-1.2.22v1.63h-1.07v-1.65a8.76 8.76 0 0 1-3.47-1.08l1.13-2.3a7.98 7.98 0 0 0 1.59.77c.3.11.62.19.94.23v-1.18a9.69 9.69 0 0 1-1.92-.72c-.3-.17-.55-.36-.75-.57-.2-.2-.34-.45-.43-.72-.1-.27-.14-.58-.14-.93a2.97 2.97 0 0 1 1.87-2.9c.37-.16.76-.26 1.18-.3v-1.37h1.08v1.38a6.53 6.53 0 0 1 1.66.4 10.03 10.03 0 0 1 1.33.6L17.58 32a5.53 5.53 0 0 0-1.3-.62c-.25-.09-.5-.15-.75-.2v1.22c.08.01.17.04.26.07l.28.09c.44.13.83.28 1.18.44.36.16.66.35.91.57.25.22.44.5.58.8.13.32.2.7.2 1.15 0 .53-.1.98-.28 1.36ZM14.3 31.6c0 .13.04.24.13.33.09.09.22.16.4.24v-1.03c-.35.05-.53.2-.53.46Zm1.23 3.6v1c.22-.02.37-.07.46-.14a.35.35 0 0 0 .13-.28.43.43 0 0 0-.16-.33 1.5 1.5 0 0 0-.43-.25Zm9.33-.07h15.05v5.83H24.86v-5.83ZM37 43.88H21.95v5.83H37v-5.83Z" fill="#EDF3F8"/></svg>